<?xml version="1.0" encoding="UTF-8" standalone="no"?>
<!DOCTYPE svg PUBLIC "-//W3C//DTD SVG 1.1//EN"
 "http://www.w3.org/Graphics/SVG/1.1/DTD/svg11.dtd">
<!-- Generated by graphviz version 2.38.0 (20140413.2041)
 -->
<!-- Title: %3 Pages: 1 -->
<svg width="241pt" height="216pt"
 viewBox="0.00 0.00 241.00 216.00" xmlns="http://www.w3.org/2000/svg" xmlns:xlink="http://www.w3.org/1999/xlink">
<g id="graph0" class="graph" transform="scale(1 1) rotate(0) translate(4 195)">
<title>%3</title>
<polygon fill="white" stroke="none" points="-4,21 -4,-195 237,-195 237,21 -4,21"/>
<text text-anchor="middle" x="116.5" y="10.4" font-family="Helvetica,sans-Serif" font-size="8.00">Made with graphviz and Zero</text>
<!-- c1 -->
<g id="node1" class="node"><title>c1</title>
<polygon fill="YellowGreen" stroke="black" points="61.9702,-101.596 34.9702,-83.5965 61.9702,-65.5965 88.9702,-83.5965 61.9702,-101.596"/>
<text text-anchor="middle" x="61.9702" y="-81.0965" font-family="Helvetica,sans-Serif" font-size="10.00">c1</text>
</g>
<!-- c1_gnd -->
<!-- c1_gnd&#45;&gt;c1 -->
<g id="edge1" class="edge"><title>c1_gnd&#45;&gt;c1</title>
<path fill="none" stroke="black" d="M99.8351,-74.0059C96.9196,-74.7444 93.3218,-75.6556 89.5146,-76.6199"/>
<polygon fill="black" stroke="black" points="102.653,-68.1343 105.108,-77.8282 103.17,-78.3193 100.714,-68.6254 102.653,-68.1343"/>
<polyline fill="none" stroke="black" points="104.85,-72.7357 100.003,-73.9634 "/>
<ellipse fill="black" stroke="black" cx="85.4347" cy="-77.6532" rx="4.00001" ry="4.00001"/>
</g>
<!-- n1 -->
<g id="node3" class="node"><title>n1</title>
<ellipse fill="Red" stroke="black" cx="41.2987" cy="-137.41" rx="3.6" ry="3.6"/>
<text text-anchor="middle" x="32.1987" y="-144.01" font-family="Helvetica,sans-Serif" font-size="10.00">n1</text>
</g>
<!-- n1&#45;&gt;c1 -->
<g id="edge2" class="edge"><title>n1&#45;&gt;c1</title>
<path fill="none" stroke="black" d="M42.655,-133.879C44.8523,-128.159 49.3591,-116.427 53.467,-105.733"/>
<ellipse fill="black" stroke="black" cx="54.9145" cy="-101.964" rx="4.00001" ry="4.00001"/>
</g>
<!-- r1 -->
<g id="node4" class="node"><title>r1</title>
<polygon fill="Orchid" stroke="black" points="97.6807,-172.16 70.6807,-154.16 97.6807,-136.16 124.681,-154.16 97.6807,-172.16"/>
<text text-anchor="middle" x="97.6807" y="-151.66" font-family="Helvetica,sans-Serif" font-size="10.00">r1</text>
</g>
<!-- n1&#45;&gt;r1 -->
<g id="edge3" class="edge"><title>n1&#45;&gt;r1</title>
<path fill="none" stroke="black" d="M44.9981,-138.509C50.4254,-140.122 61.0189,-143.269 71.2919,-146.321"/>
<ellipse fill="black" stroke="black" cx="75.16" cy="-147.47" rx="4.00001" ry="4.00001"/>
</g>
<!-- nm -->
<g id="node5" class="node"><title>nm</title>
<ellipse fill="Red" stroke="black" cx="153.54" cy="-108.519" rx="3.6" ry="3.6"/>
<text text-anchor="middle" x="142.94" y="-115.119" font-family="Helvetica,sans-Serif" font-size="10.00">nm</text>
</g>
<!-- nm&#45;&gt;r1 -->
<g id="edge4" class="edge"><title>nm&#45;&gt;r1</title>
<path fill="none" stroke="black" d="M150.536,-110.973C144.13,-116.208 128.682,-128.829 116.132,-139.084"/>
<ellipse fill="black" stroke="black" cx="112.994" cy="-141.648" rx="4.00002" ry="4.00002"/>
</g>
<!-- r2 -->
<g id="node6" class="node"><title>r2</title>
<polygon fill="Orchid" stroke="black" points="170.189,-191.257 143.189,-173.257 170.189,-155.257 197.189,-173.257 170.189,-191.257"/>
<text text-anchor="middle" x="170.189" y="-170.757" font-family="Helvetica,sans-Serif" font-size="10.00">r2</text>
</g>
<!-- nm&#45;&gt;r2 -->
<g id="edge5" class="edge"><title>nm&#45;&gt;r2</title>
<path fill="none" stroke="black" d="M154.531,-112.375C156.404,-119.656 160.594,-135.948 164.169,-149.847"/>
<ellipse fill="black" stroke="black" cx="165.184" cy="-153.794" rx="4.00001" ry="4.00001"/>
</g>
<!-- c2 -->
<g id="node8" class="node"><title>c2</title>
<polygon fill="YellowGreen" stroke="black" points="205.908,-134.307 178.908,-116.307 205.908,-98.307 232.908,-116.307 205.908,-134.307"/>
<text text-anchor="middle" x="205.908" y="-113.807" font-family="Helvetica,sans-Serif" font-size="10.00">c2</text>
</g>
<!-- nm&#45;&gt;c2 -->
<g id="edge7" class="edge"><title>nm&#45;&gt;c2</title>
<path fill="none" stroke="black" d="M157.306,-109.079C161.37,-109.683 168.252,-110.707 175.578,-111.796"/>
<ellipse fill="black" stroke="black" cx="179.634" cy="-112.399" rx="4.00001" ry="4.00001"/>
</g>
<!-- o1 -->
<g id="node9" class="node"><title>o1</title>
<polygon fill="lightgrey" stroke="black" points="185.855,-25.8061 131.855,-25.8061 131.855,-78.8061 185.855,-78.8061 185.855,-25.8061"/>
<polygon fill="LightSkyBlue" stroke="none" points="131.855,-25.8061 131.855,-78.8061 185.855,-78.8061 185.855,-25.8061 131.855,-25.8061"/>
<text text-anchor="start" x="135.855" y="-66.3061" font-family="Helvetica,sans-Serif" font-size="10.00">+</text>
<text text-anchor="start" x="159.855" y="-54.8061" font-family="Helvetica,sans-Serif" font-size="10.00">o1</text>
<text text-anchor="start" x="148.855" y="-43.8061" font-family="Helvetica,sans-Serif" font-size="10.00">LT1124</text>
<text text-anchor="start" x="137.355" y="-49.3061" font-family="Helvetica,sans-Serif" font-size="10.00"> </text>
<text text-anchor="start" x="137.355" y="-32.3061" font-family="Helvetica,sans-Serif" font-size="10.00">&#45;</text>
</g>
<!-- nm&#45;&gt;o1 -->
<g id="edge10" class="edge"><title>nm&#45;&gt;o1:minus</title>
<path fill="none" stroke="black" d="M152.59,-104.939C149.58,-93.5896 140.197,-58.2152 135.964,-42.257"/>
<ellipse fill="black" stroke="black" cx="134.881" cy="-38.1724" rx="4.00001" ry="4.00001"/>
</g>
<!-- nout -->
<g id="node7" class="node"><title>nout</title>
<ellipse fill="Red" stroke="black" cx="146.446" cy="-130.578" rx="3.6" ry="3.6"/>
<text text-anchor="middle" x="152.346" y="-137.178" font-family="Helvetica,sans-Serif" font-size="10.00">nout</text>
</g>
<!-- nout&#45;&gt;r2 -->
<g id="edge6" class="edge"><title>nout&#45;&gt;r2</title>
<path fill="none" stroke="black" d="M148.309,-133.927C150.638,-138.113 154.816,-145.622 158.901,-152.966"/>
<ellipse fill="black" stroke="black" cx="160.939" cy="-156.63" rx="4.00002" ry="4.00002"/>
</g>
<!-- nout&#45;&gt;c2 -->
<g id="edge8" class="edge"><title>nout&#45;&gt;c2</title>
<path fill="none" stroke="black" d="M149.988,-129.728C155.581,-128.386 166.962,-125.654 178.005,-123.004"/>
<ellipse fill="black" stroke="black" cx="182.009" cy="-122.043" rx="4.00001" ry="4.00001"/>
</g>
<!-- nout&#45;&gt;o1 -->
<g id="edge11" class="edge"><title>nout&#45;&gt;o1:e</title>
<path fill="none" stroke="black" d="M148.354,-127.503C150.569,-123.89 154.292,-117.694 157.203,-112.21 167.039,-93.6767 177.371,-71.2181 182.523,-59.7828"/>
<ellipse fill="black" stroke="black" cx="184.227" cy="-55.9596" rx="4.00002" ry="4.00002"/>
</g>
<!-- nin -->
<g id="node10" class="node"><title>nin</title>
<ellipse fill="Red" stroke="black" cx="101.828" cy="-9.64012" rx="3.6" ry="3.6"/>
<text text-anchor="middle" x="91.7277" y="-16.2401" font-family="Helvetica,sans-Serif" font-size="10.00">nin</text>
</g>
<!-- nin&#45;&gt;o1 -->
<g id="edge9" class="edge"><title>nin&#45;&gt;o1:plus</title>
<path fill="none" stroke="black" d="M103.55,-12.848C108.539,-22.143 123.091,-49.2532 130.055,-62.2273"/>
<ellipse fill="black" stroke="black" cx="131.963" cy="-65.7818" rx="4.00002" ry="4.00002"/>
</g>
<!-- input -->
<g id="node11" class="node"><title>input</title>
<polygon fill="Orange" stroke="black" points="74.0809,-36.2614 20.0809,-36.2614 20.0809,-0.261441 74.0809,-0.261441 74.0809,-36.2614"/>
<text text-anchor="middle" x="47.0809" y="-15.7614" font-family="Helvetica,sans-Serif" font-size="10.00">input</text>
</g>
<!-- nin&#45;&gt;input -->
<g id="edge13" class="edge"><title>nin&#45;&gt;input</title>
<path fill="none" stroke="black" d="M98.2356,-10.2058C94.7231,-10.7589 88.982,-11.663 82.5899,-12.6696"/>
<ellipse fill="black" stroke="black" cx="78.2152" cy="-13.3585" rx="4.00001" ry="4.00001"/>
</g>
<!-- input_gnd -->
<!-- input_gnd&#45;&gt;input -->
<g id="edge12" class="edge"><title>input_gnd&#45;&gt;input</title>
<path fill="none" stroke="black" d="M8.85686,-25.2714C9.8264,-25.0936 10.8697,-24.9022 11.97,-24.7004"/>
<polygon fill="black" stroke="black" points="5.61228,-30.9498 3.8083,-21.1138 5.77549,-20.753 7.57947,-30.589 5.61228,-30.9498"/>
<polyline fill="none" stroke="black" points="3.72669,-26.2122 8.64468,-25.3102 "/>
<ellipse fill="black" stroke="black" cx="15.9451" cy="-23.9715" rx="4.00001" ry="4.00001"/>
</g>
</g>
</svg>
