<?xml version="1.0" encoding="utf-8" standalone="no"?>
<!DOCTYPE svg PUBLIC "-//W3C//DTD SVG 1.1//EN"
  "http://www.w3.org/Graphics/SVG/1.1/DTD/svg11.dtd">
<!-- Created with matplotlib (https://matplotlib.org/) -->
<svg height="432pt" version="1.1" viewBox="0 0 576 432" width="576pt" xmlns="http://www.w3.org/2000/svg" xmlns:xlink="http://www.w3.org/1999/xlink">
 <defs>
  <style type="text/css">
*{stroke-linecap:butt;stroke-linejoin:round;}
  </style>
 </defs>
 <g id="figure_1">
  <g id="patch_1">
   <path d="M 0 432 
L 576 432 
L 576 0 
L 0 0 
z
" style="fill:#ffffff;"/>
  </g>
  <g id="axes_1">
   <g id="patch_2">
    <path d="M 55.82 181.728 
L 562.68 181.728 
L 562.68 13.32 
L 55.82 13.32 
z
" style="fill:#ffffff;"/>
   </g>
   <g id="matplotlib.axis_1">
    <g id="xtick_1">
     <g id="line2d_1">
      <path clip-path="url(#pb90385f67f)" d="M 78.859091 181.728 
L 78.859091 13.32 
" style="fill:none;stroke:#b0b0b0;stroke-linecap:square;stroke-width:0.8;"/>
     </g>
     <g id="line2d_2">
      <defs>
       <path d="M 0 0 
L 0 3.5 
" id="m879666a938" style="stroke:#000000;stroke-width:0.8;"/>
      </defs>
      <g>
       <use style="stroke:#000000;stroke-width:0.8;" x="78.859091" xlink:href="#m879666a938" y="181.728"/>
      </g>
     </g>
     <g id="text_1">
      <!-- $\mathdefault{10^{4}}$ -->
      <defs>
       <path d="M 12.40625 8.296875 
L 28.515625 8.296875 
L 28.515625 63.921875 
L 10.984375 60.40625 
L 10.984375 69.390625 
L 28.421875 72.90625 
L 38.28125 72.90625 
L 38.28125 8.296875 
L 54.390625 8.296875 
L 54.390625 0 
L 12.40625 0 
z
" id="DejaVuSans-49"/>
       <path d="M 31.78125 66.40625 
Q 24.171875 66.40625 20.328125 58.90625 
Q 16.5 51.421875 16.5 36.375 
Q 16.5 21.390625 20.328125 13.890625 
Q 24.171875 6.390625 31.78125 6.390625 
Q 39.453125 6.390625 43.28125 13.890625 
Q 47.125 21.390625 47.125 36.375 
Q 47.125 51.421875 43.28125 58.90625 
Q 39.453125 66.40625 31.78125 66.40625 
z
M 31.78125 74.21875 
Q 44.046875 74.21875 50.515625 64.515625 
Q 56.984375 54.828125 56.984375 36.375 
Q 56.984375 17.96875 50.515625 8.265625 
Q 44.046875 -1.421875 31.78125 -1.421875 
Q 19.53125 -1.421875 13.0625 8.265625 
Q 6.59375 17.96875 6.59375 36.375 
Q 6.59375 54.828125 13.0625 64.515625 
Q 19.53125 74.21875 31.78125 74.21875 
z
" id="DejaVuSans-48"/>
       <path d="M 37.796875 64.3125 
L 12.890625 25.390625 
L 37.796875 25.390625 
z
M 35.203125 72.90625 
L 47.609375 72.90625 
L 47.609375 25.390625 
L 58.015625 25.390625 
L 58.015625 17.1875 
L 47.609375 17.1875 
L 47.609375 0 
L 37.796875 0 
L 37.796875 17.1875 
L 4.890625 17.1875 
L 4.890625 26.703125 
z
" id="DejaVuSans-52"/>
      </defs>
      <g transform="translate(70.059091 196.326438)scale(0.1 -0.1)">
       <use transform="translate(0 0.684375)" xlink:href="#DejaVuSans-49"/>
       <use transform="translate(63.623047 0.684375)" xlink:href="#DejaVuSans-48"/>
       <use transform="translate(128.203125 38.965625)scale(0.7)" xlink:href="#DejaVuSans-52"/>
      </g>
     </g>
    </g>
    <g id="xtick_2">
     <g id="line2d_3">
      <path clip-path="url(#pb90385f67f)" d="M 232.45303 181.728 
L 232.45303 13.32 
" style="fill:none;stroke:#b0b0b0;stroke-linecap:square;stroke-width:0.8;"/>
     </g>
     <g id="line2d_4">
      <g>
       <use style="stroke:#000000;stroke-width:0.8;" x="232.45303" xlink:href="#m879666a938" y="181.728"/>
      </g>
     </g>
     <g id="text_2">
      <!-- $\mathdefault{10^{5}}$ -->
      <defs>
       <path d="M 10.796875 72.90625 
L 49.515625 72.90625 
L 49.515625 64.59375 
L 19.828125 64.59375 
L 19.828125 46.734375 
Q 21.96875 47.46875 24.109375 47.828125 
Q 26.265625 48.1875 28.421875 48.1875 
Q 40.625 48.1875 47.75 41.5 
Q 54.890625 34.8125 54.890625 23.390625 
Q 54.890625 11.625 47.5625 5.09375 
Q 40.234375 -1.421875 26.90625 -1.421875 
Q 22.3125 -1.421875 17.546875 -0.640625 
Q 12.796875 0.140625 7.71875 1.703125 
L 7.71875 11.625 
Q 12.109375 9.234375 16.796875 8.0625 
Q 21.484375 6.890625 26.703125 6.890625 
Q 35.15625 6.890625 40.078125 11.328125 
Q 45.015625 15.765625 45.015625 23.390625 
Q 45.015625 31 40.078125 35.4375 
Q 35.15625 39.890625 26.703125 39.890625 
Q 22.75 39.890625 18.8125 39.015625 
Q 14.890625 38.140625 10.796875 36.28125 
z
" id="DejaVuSans-53"/>
      </defs>
      <g transform="translate(223.65303 196.326438)scale(0.1 -0.1)">
       <use transform="translate(0 0.684375)" xlink:href="#DejaVuSans-49"/>
       <use transform="translate(63.623047 0.684375)" xlink:href="#DejaVuSans-48"/>
       <use transform="translate(128.203125 38.965625)scale(0.7)" xlink:href="#DejaVuSans-53"/>
      </g>
     </g>
    </g>
    <g id="xtick_3">
     <g id="line2d_5">
      <path clip-path="url(#pb90385f67f)" d="M 386.04697 181.728 
L 386.04697 13.32 
" style="fill:none;stroke:#b0b0b0;stroke-linecap:square;stroke-width:0.8;"/>
     </g>
     <g id="line2d_6">
      <g>
       <use style="stroke:#000000;stroke-width:0.8;" x="386.04697" xlink:href="#m879666a938" y="181.728"/>
      </g>
     </g>
     <g id="text_3">
      <!-- $\mathdefault{10^{6}}$ -->
      <defs>
       <path d="M 33.015625 40.375 
Q 26.375 40.375 22.484375 35.828125 
Q 18.609375 31.296875 18.609375 23.390625 
Q 18.609375 15.53125 22.484375 10.953125 
Q 26.375 6.390625 33.015625 6.390625 
Q 39.65625 6.390625 43.53125 10.953125 
Q 47.40625 15.53125 47.40625 23.390625 
Q 47.40625 31.296875 43.53125 35.828125 
Q 39.65625 40.375 33.015625 40.375 
z
M 52.59375 71.296875 
L 52.59375 62.3125 
Q 48.875 64.0625 45.09375 64.984375 
Q 41.3125 65.921875 37.59375 65.921875 
Q 27.828125 65.921875 22.671875 59.328125 
Q 17.53125 52.734375 16.796875 39.40625 
Q 19.671875 43.65625 24.015625 45.921875 
Q 28.375 48.1875 33.59375 48.1875 
Q 44.578125 48.1875 50.953125 41.515625 
Q 57.328125 34.859375 57.328125 23.390625 
Q 57.328125 12.15625 50.6875 5.359375 
Q 44.046875 -1.421875 33.015625 -1.421875 
Q 20.359375 -1.421875 13.671875 8.265625 
Q 6.984375 17.96875 6.984375 36.375 
Q 6.984375 53.65625 15.1875 63.9375 
Q 23.390625 74.21875 37.203125 74.21875 
Q 40.921875 74.21875 44.703125 73.484375 
Q 48.484375 72.75 52.59375 71.296875 
z
" id="DejaVuSans-54"/>
      </defs>
      <g transform="translate(377.24697 196.326438)scale(0.1 -0.1)">
       <use transform="translate(0 0.765625)" xlink:href="#DejaVuSans-49"/>
       <use transform="translate(63.623047 0.765625)" xlink:href="#DejaVuSans-48"/>
       <use transform="translate(128.203125 39.046875)scale(0.7)" xlink:href="#DejaVuSans-54"/>
      </g>
     </g>
    </g>
    <g id="xtick_4">
     <g id="line2d_7">
      <path clip-path="url(#pb90385f67f)" d="M 539.640909 181.728 
L 539.640909 13.32 
" style="fill:none;stroke:#b0b0b0;stroke-linecap:square;stroke-width:0.8;"/>
     </g>
     <g id="line2d_8">
      <g>
       <use style="stroke:#000000;stroke-width:0.8;" x="539.640909" xlink:href="#m879666a938" y="181.728"/>
      </g>
     </g>
     <g id="text_4">
      <!-- $\mathdefault{10^{7}}$ -->
      <defs>
       <path d="M 8.203125 72.90625 
L 55.078125 72.90625 
L 55.078125 68.703125 
L 28.609375 0 
L 18.3125 0 
L 43.21875 64.59375 
L 8.203125 64.59375 
z
" id="DejaVuSans-55"/>
      </defs>
      <g transform="translate(530.840909 196.326438)scale(0.1 -0.1)">
       <use transform="translate(0 0.684375)" xlink:href="#DejaVuSans-49"/>
       <use transform="translate(63.623047 0.684375)" xlink:href="#DejaVuSans-48"/>
       <use transform="translate(128.203125 38.965625)scale(0.7)" xlink:href="#DejaVuSans-55"/>
      </g>
     </g>
    </g>
    <g id="xtick_5">
     <g id="line2d_9">
      <defs>
       <path d="M 0 0 
L 0 2 
" id="md45d1cb7e7" style="stroke:#000000;stroke-width:0.6;"/>
      </defs>
      <g>
       <use style="stroke:#000000;stroke-width:0.6;" x="63.9743" xlink:href="#md45d1cb7e7" y="181.728"/>
      </g>
     </g>
    </g>
    <g id="xtick_6">
     <g id="line2d_10">
      <g>
       <use style="stroke:#000000;stroke-width:0.6;" x="71.831018" xlink:href="#md45d1cb7e7" y="181.728"/>
      </g>
     </g>
    </g>
    <g id="xtick_7">
     <g id="line2d_11">
      <g>
       <use style="stroke:#000000;stroke-width:0.6;" x="125.095474" xlink:href="#md45d1cb7e7" y="181.728"/>
      </g>
     </g>
    </g>
    <g id="xtick_8">
     <g id="line2d_12">
      <g>
       <use style="stroke:#000000;stroke-width:0.6;" x="152.142024" xlink:href="#md45d1cb7e7" y="181.728"/>
      </g>
     </g>
    </g>
    <g id="xtick_9">
     <g id="line2d_13">
      <g>
       <use style="stroke:#000000;stroke-width:0.6;" x="171.331857" xlink:href="#md45d1cb7e7" y="181.728"/>
      </g>
     </g>
    </g>
    <g id="xtick_10">
     <g id="line2d_14">
      <g>
       <use style="stroke:#000000;stroke-width:0.6;" x="186.216647" xlink:href="#md45d1cb7e7" y="181.728"/>
      </g>
     </g>
    </g>
    <g id="xtick_11">
     <g id="line2d_15">
      <g>
       <use style="stroke:#000000;stroke-width:0.6;" x="198.378407" xlink:href="#md45d1cb7e7" y="181.728"/>
      </g>
     </g>
    </g>
    <g id="xtick_12">
     <g id="line2d_16">
      <g>
       <use style="stroke:#000000;stroke-width:0.6;" x="208.661028" xlink:href="#md45d1cb7e7" y="181.728"/>
      </g>
     </g>
    </g>
    <g id="xtick_13">
     <g id="line2d_17">
      <g>
       <use style="stroke:#000000;stroke-width:0.6;" x="217.56824" xlink:href="#md45d1cb7e7" y="181.728"/>
      </g>
     </g>
    </g>
    <g id="xtick_14">
     <g id="line2d_18">
      <g>
       <use style="stroke:#000000;stroke-width:0.6;" x="225.424957" xlink:href="#md45d1cb7e7" y="181.728"/>
      </g>
     </g>
    </g>
    <g id="xtick_15">
     <g id="line2d_19">
      <g>
       <use style="stroke:#000000;stroke-width:0.6;" x="278.689413" xlink:href="#md45d1cb7e7" y="181.728"/>
      </g>
     </g>
    </g>
    <g id="xtick_16">
     <g id="line2d_20">
      <g>
       <use style="stroke:#000000;stroke-width:0.6;" x="305.735963" xlink:href="#md45d1cb7e7" y="181.728"/>
      </g>
     </g>
    </g>
    <g id="xtick_17">
     <g id="line2d_21">
      <g>
       <use style="stroke:#000000;stroke-width:0.6;" x="324.925796" xlink:href="#md45d1cb7e7" y="181.728"/>
      </g>
     </g>
    </g>
    <g id="xtick_18">
     <g id="line2d_22">
      <g>
       <use style="stroke:#000000;stroke-width:0.6;" x="339.810587" xlink:href="#md45d1cb7e7" y="181.728"/>
      </g>
     </g>
    </g>
    <g id="xtick_19">
     <g id="line2d_23">
      <g>
       <use style="stroke:#000000;stroke-width:0.6;" x="351.972346" xlink:href="#md45d1cb7e7" y="181.728"/>
      </g>
     </g>
    </g>
    <g id="xtick_20">
     <g id="line2d_24">
      <g>
       <use style="stroke:#000000;stroke-width:0.6;" x="362.254967" xlink:href="#md45d1cb7e7" y="181.728"/>
      </g>
     </g>
    </g>
    <g id="xtick_21">
     <g id="line2d_25">
      <g>
       <use style="stroke:#000000;stroke-width:0.6;" x="371.162179" xlink:href="#md45d1cb7e7" y="181.728"/>
      </g>
     </g>
    </g>
    <g id="xtick_22">
     <g id="line2d_26">
      <g>
       <use style="stroke:#000000;stroke-width:0.6;" x="379.018896" xlink:href="#md45d1cb7e7" y="181.728"/>
      </g>
     </g>
    </g>
    <g id="xtick_23">
     <g id="line2d_27">
      <g>
       <use style="stroke:#000000;stroke-width:0.6;" x="432.283353" xlink:href="#md45d1cb7e7" y="181.728"/>
      </g>
     </g>
    </g>
    <g id="xtick_24">
     <g id="line2d_28">
      <g>
       <use style="stroke:#000000;stroke-width:0.6;" x="459.329903" xlink:href="#md45d1cb7e7" y="181.728"/>
      </g>
     </g>
    </g>
    <g id="xtick_25">
     <g id="line2d_29">
      <g>
       <use style="stroke:#000000;stroke-width:0.6;" x="478.519736" xlink:href="#md45d1cb7e7" y="181.728"/>
      </g>
     </g>
    </g>
    <g id="xtick_26">
     <g id="line2d_30">
      <g>
       <use style="stroke:#000000;stroke-width:0.6;" x="493.404526" xlink:href="#md45d1cb7e7" y="181.728"/>
      </g>
     </g>
    </g>
    <g id="xtick_27">
     <g id="line2d_31">
      <g>
       <use style="stroke:#000000;stroke-width:0.6;" x="505.566286" xlink:href="#md45d1cb7e7" y="181.728"/>
      </g>
     </g>
    </g>
    <g id="xtick_28">
     <g id="line2d_32">
      <g>
       <use style="stroke:#000000;stroke-width:0.6;" x="515.848907" xlink:href="#md45d1cb7e7" y="181.728"/>
      </g>
     </g>
    </g>
    <g id="xtick_29">
     <g id="line2d_33">
      <g>
       <use style="stroke:#000000;stroke-width:0.6;" x="524.756118" xlink:href="#md45d1cb7e7" y="181.728"/>
      </g>
     </g>
    </g>
    <g id="xtick_30">
     <g id="line2d_34">
      <g>
       <use style="stroke:#000000;stroke-width:0.6;" x="532.612836" xlink:href="#md45d1cb7e7" y="181.728"/>
      </g>
     </g>
    </g>
   </g>
   <g id="matplotlib.axis_2">
    <g id="ytick_1">
     <g id="line2d_35">
      <path clip-path="url(#pb90385f67f)" d="M 55.82 180.032443 
L 562.68 180.032443 
" style="fill:none;stroke:#b0b0b0;stroke-linecap:square;stroke-width:0.8;"/>
     </g>
     <g id="line2d_36">
      <defs>
       <path d="M 0 0 
L -3.5 0 
" id="m9d36b4c368" style="stroke:#000000;stroke-width:0.8;"/>
      </defs>
      <g>
       <use style="stroke:#000000;stroke-width:0.8;" x="55.82" xlink:href="#m9d36b4c368" y="180.032443"/>
      </g>
     </g>
     <g id="text_5">
      <!-- −80 -->
      <defs>
       <path d="M 10.59375 35.5 
L 73.1875 35.5 
L 73.1875 27.203125 
L 10.59375 27.203125 
z
" id="DejaVuSans-8722"/>
       <path d="M 31.78125 34.625 
Q 24.75 34.625 20.71875 30.859375 
Q 16.703125 27.09375 16.703125 20.515625 
Q 16.703125 13.921875 20.71875 10.15625 
Q 24.75 6.390625 31.78125 6.390625 
Q 38.8125 6.390625 42.859375 10.171875 
Q 46.921875 13.96875 46.921875 20.515625 
Q 46.921875 27.09375 42.890625 30.859375 
Q 38.875 34.625 31.78125 34.625 
z
M 21.921875 38.8125 
Q 15.578125 40.375 12.03125 44.71875 
Q 8.5 49.078125 8.5 55.328125 
Q 8.5 64.0625 14.71875 69.140625 
Q 20.953125 74.21875 31.78125 74.21875 
Q 42.671875 74.21875 48.875 69.140625 
Q 55.078125 64.0625 55.078125 55.328125 
Q 55.078125 49.078125 51.53125 44.71875 
Q 48 40.375 41.703125 38.8125 
Q 48.828125 37.15625 52.796875 32.3125 
Q 56.78125 27.484375 56.78125 20.515625 
Q 56.78125 9.90625 50.3125 4.234375 
Q 43.84375 -1.421875 31.78125 -1.421875 
Q 19.734375 -1.421875 13.25 4.234375 
Q 6.78125 9.90625 6.78125 20.515625 
Q 6.78125 27.484375 10.78125 32.3125 
Q 14.796875 37.15625 21.921875 38.8125 
z
M 18.3125 54.390625 
Q 18.3125 48.734375 21.84375 45.5625 
Q 25.390625 42.390625 31.78125 42.390625 
Q 38.140625 42.390625 41.71875 45.5625 
Q 45.3125 48.734375 45.3125 54.390625 
Q 45.3125 60.0625 41.71875 63.234375 
Q 38.140625 66.40625 31.78125 66.40625 
Q 25.390625 66.40625 21.84375 63.234375 
Q 18.3125 60.0625 18.3125 54.390625 
z
" id="DejaVuSans-56"/>
      </defs>
      <g transform="translate(27.715313 183.831662)scale(0.1 -0.1)">
       <use xlink:href="#DejaVuSans-8722"/>
       <use x="83.789062" xlink:href="#DejaVuSans-56"/>
       <use x="147.412109" xlink:href="#DejaVuSans-48"/>
      </g>
     </g>
    </g>
    <g id="ytick_2">
     <g id="line2d_37">
      <path clip-path="url(#pb90385f67f)" d="M 55.82 148.613465 
L 562.68 148.613465 
" style="fill:none;stroke:#b0b0b0;stroke-linecap:square;stroke-width:0.8;"/>
     </g>
     <g id="line2d_38">
      <g>
       <use style="stroke:#000000;stroke-width:0.8;" x="55.82" xlink:href="#m9d36b4c368" y="148.613465"/>
      </g>
     </g>
     <g id="text_6">
      <!-- −60 -->
      <g transform="translate(27.715313 152.412684)scale(0.1 -0.1)">
       <use xlink:href="#DejaVuSans-8722"/>
       <use x="83.789062" xlink:href="#DejaVuSans-54"/>
       <use x="147.412109" xlink:href="#DejaVuSans-48"/>
      </g>
     </g>
    </g>
    <g id="ytick_3">
     <g id="line2d_39">
      <path clip-path="url(#pb90385f67f)" d="M 55.82 117.194487 
L 562.68 117.194487 
" style="fill:none;stroke:#b0b0b0;stroke-linecap:square;stroke-width:0.8;"/>
     </g>
     <g id="line2d_40">
      <g>
       <use style="stroke:#000000;stroke-width:0.8;" x="55.82" xlink:href="#m9d36b4c368" y="117.194487"/>
      </g>
     </g>
     <g id="text_7">
      <!-- −40 -->
      <g transform="translate(27.715313 120.993706)scale(0.1 -0.1)">
       <use xlink:href="#DejaVuSans-8722"/>
       <use x="83.789062" xlink:href="#DejaVuSans-52"/>
       <use x="147.412109" xlink:href="#DejaVuSans-48"/>
      </g>
     </g>
    </g>
    <g id="ytick_4">
     <g id="line2d_41">
      <path clip-path="url(#pb90385f67f)" d="M 55.82 85.77551 
L 562.68 85.77551 
" style="fill:none;stroke:#b0b0b0;stroke-linecap:square;stroke-width:0.8;"/>
     </g>
     <g id="line2d_42">
      <g>
       <use style="stroke:#000000;stroke-width:0.8;" x="55.82" xlink:href="#m9d36b4c368" y="85.77551"/>
      </g>
     </g>
     <g id="text_8">
      <!-- −20 -->
      <defs>
       <path d="M 19.1875 8.296875 
L 53.609375 8.296875 
L 53.609375 0 
L 7.328125 0 
L 7.328125 8.296875 
Q 12.9375 14.109375 22.625 23.890625 
Q 32.328125 33.6875 34.8125 36.53125 
Q 39.546875 41.84375 41.421875 45.53125 
Q 43.3125 49.21875 43.3125 52.78125 
Q 43.3125 58.59375 39.234375 62.25 
Q 35.15625 65.921875 28.609375 65.921875 
Q 23.96875 65.921875 18.8125 64.3125 
Q 13.671875 62.703125 7.8125 59.421875 
L 7.8125 69.390625 
Q 13.765625 71.78125 18.9375 73 
Q 24.125 74.21875 28.421875 74.21875 
Q 39.75 74.21875 46.484375 68.546875 
Q 53.21875 62.890625 53.21875 53.421875 
Q 53.21875 48.921875 51.53125 44.890625 
Q 49.859375 40.875 45.40625 35.40625 
Q 44.1875 33.984375 37.640625 27.21875 
Q 31.109375 20.453125 19.1875 8.296875 
z
" id="DejaVuSans-50"/>
      </defs>
      <g transform="translate(27.715313 89.574728)scale(0.1 -0.1)">
       <use xlink:href="#DejaVuSans-8722"/>
       <use x="83.789062" xlink:href="#DejaVuSans-50"/>
       <use x="147.412109" xlink:href="#DejaVuSans-48"/>
      </g>
     </g>
    </g>
    <g id="ytick_5">
     <g id="line2d_43">
      <path clip-path="url(#pb90385f67f)" d="M 55.82 54.356532 
L 562.68 54.356532 
" style="fill:none;stroke:#b0b0b0;stroke-linecap:square;stroke-width:0.8;"/>
     </g>
     <g id="line2d_44">
      <g>
       <use style="stroke:#000000;stroke-width:0.8;" x="55.82" xlink:href="#m9d36b4c368" y="54.356532"/>
      </g>
     </g>
     <g id="text_9">
      <!-- 0 -->
      <g transform="translate(42.4575 58.15575)scale(0.1 -0.1)">
       <use xlink:href="#DejaVuSans-48"/>
      </g>
     </g>
    </g>
    <g id="ytick_6">
     <g id="line2d_45">
      <path clip-path="url(#pb90385f67f)" d="M 55.82 22.937554 
L 562.68 22.937554 
" style="fill:none;stroke:#b0b0b0;stroke-linecap:square;stroke-width:0.8;"/>
     </g>
     <g id="line2d_46">
      <g>
       <use style="stroke:#000000;stroke-width:0.8;" x="55.82" xlink:href="#m9d36b4c368" y="22.937554"/>
      </g>
     </g>
     <g id="text_10">
      <!-- 20 -->
      <g transform="translate(36.095 26.736773)scale(0.1 -0.1)">
       <use xlink:href="#DejaVuSans-50"/>
       <use x="63.623047" xlink:href="#DejaVuSans-48"/>
      </g>
     </g>
    </g>
    <g id="ytick_7">
     <g id="line2d_47">
      <defs>
       <path d="M 0 0 
L -2 0 
" id="ma4a317a5ba" style="stroke:#000000;stroke-width:0.6;"/>
      </defs>
      <g>
       <use style="stroke:#000000;stroke-width:0.6;" x="55.82" xlink:href="#ma4a317a5ba" y="180.032443"/>
      </g>
     </g>
    </g>
    <g id="ytick_8">
     <g id="line2d_48">
      <g>
       <use style="stroke:#000000;stroke-width:0.6;" x="55.82" xlink:href="#ma4a317a5ba" y="164.322954"/>
      </g>
     </g>
    </g>
    <g id="ytick_9">
     <g id="line2d_49">
      <g>
       <use style="stroke:#000000;stroke-width:0.6;" x="55.82" xlink:href="#ma4a317a5ba" y="148.613465"/>
      </g>
     </g>
    </g>
    <g id="ytick_10">
     <g id="line2d_50">
      <g>
       <use style="stroke:#000000;stroke-width:0.6;" x="55.82" xlink:href="#ma4a317a5ba" y="132.903976"/>
      </g>
     </g>
    </g>
    <g id="ytick_11">
     <g id="line2d_51">
      <g>
       <use style="stroke:#000000;stroke-width:0.6;" x="55.82" xlink:href="#ma4a317a5ba" y="117.194487"/>
      </g>
     </g>
    </g>
    <g id="ytick_12">
     <g id="line2d_52">
      <g>
       <use style="stroke:#000000;stroke-width:0.6;" x="55.82" xlink:href="#ma4a317a5ba" y="101.484998"/>
      </g>
     </g>
    </g>
    <g id="ytick_13">
     <g id="line2d_53">
      <g>
       <use style="stroke:#000000;stroke-width:0.6;" x="55.82" xlink:href="#ma4a317a5ba" y="85.77551"/>
      </g>
     </g>
    </g>
    <g id="ytick_14">
     <g id="line2d_54">
      <g>
       <use style="stroke:#000000;stroke-width:0.6;" x="55.82" xlink:href="#ma4a317a5ba" y="70.066021"/>
      </g>
     </g>
    </g>
    <g id="ytick_15">
     <g id="line2d_55">
      <g>
       <use style="stroke:#000000;stroke-width:0.6;" x="55.82" xlink:href="#ma4a317a5ba" y="54.356532"/>
      </g>
     </g>
    </g>
    <g id="ytick_16">
     <g id="line2d_56">
      <g>
       <use style="stroke:#000000;stroke-width:0.6;" x="55.82" xlink:href="#ma4a317a5ba" y="38.647043"/>
      </g>
     </g>
    </g>
    <g id="ytick_17">
     <g id="line2d_57">
      <g>
       <use style="stroke:#000000;stroke-width:0.6;" x="55.82" xlink:href="#ma4a317a5ba" y="22.937554"/>
      </g>
     </g>
    </g>
    <g id="text_11">
     <!-- $\bf{Magnitude}$ (dB) -->
     <defs>
      <path d="M 9.1875 72.90625 
L 33.109375 72.90625 
L 49.703125 33.890625 
L 66.40625 72.90625 
L 90.28125 72.90625 
L 90.28125 0 
L 72.515625 0 
L 72.515625 53.328125 
L 55.71875 14.015625 
L 43.796875 14.015625 
L 27 53.328125 
L 27 0 
L 9.1875 0 
z
" id="DejaVuSans-Bold-77"/>
      <path d="M 32.90625 24.609375 
Q 27.4375 24.609375 24.671875 22.75 
Q 21.921875 20.90625 21.921875 17.28125 
Q 21.921875 13.96875 24.140625 12.078125 
Q 26.375 10.203125 30.328125 10.203125 
Q 35.25 10.203125 38.625 13.734375 
Q 42 17.28125 42 22.609375 
L 42 24.609375 
z
M 59.625 31.203125 
L 59.625 0 
L 42 0 
L 42 8.109375 
Q 38.484375 3.125 34.078125 0.84375 
Q 29.6875 -1.421875 23.390625 -1.421875 
Q 14.890625 -1.421875 9.59375 3.53125 
Q 4.296875 8.5 4.296875 16.40625 
Q 4.296875 26.03125 10.90625 30.515625 
Q 17.53125 35.015625 31.6875 35.015625 
L 42 35.015625 
L 42 36.375 
Q 42 40.53125 38.71875 42.453125 
Q 35.453125 44.390625 28.515625 44.390625 
Q 22.90625 44.390625 18.0625 43.265625 
Q 13.234375 42.140625 9.078125 39.890625 
L 9.078125 53.21875 
Q 14.703125 54.59375 20.359375 55.296875 
Q 26.03125 56 31.6875 56 
Q 46.484375 56 53.046875 50.171875 
Q 59.625 44.34375 59.625 31.203125 
z
" id="DejaVuSans-Bold-97"/>
      <path d="M 45.609375 9.28125 
Q 42 4.5 37.640625 2.25 
Q 33.296875 0 27.59375 0 
Q 17.578125 0 11.03125 7.875 
Q 4.5 15.765625 4.5 27.984375 
Q 4.5 40.234375 11.03125 48.0625 
Q 17.578125 55.90625 27.59375 55.90625 
Q 33.296875 55.90625 37.640625 53.65625 
Q 42 51.421875 45.609375 46.578125 
L 45.609375 54.6875 
L 63.1875 54.6875 
L 63.1875 5.515625 
Q 63.1875 -7.671875 54.859375 -14.625 
Q 46.53125 -21.578125 30.71875 -21.578125 
Q 25.59375 -21.578125 20.796875 -20.796875 
Q 16.015625 -20.015625 11.1875 -18.40625 
L 11.1875 -4.78125 
Q 15.765625 -7.421875 20.15625 -8.71875 
Q 24.5625 -10.015625 29 -10.015625 
Q 37.59375 -10.015625 41.59375 -6.25 
Q 45.609375 -2.484375 45.609375 5.515625 
z
M 34.078125 43.3125 
Q 28.65625 43.3125 25.625 39.296875 
Q 22.609375 35.296875 22.609375 27.984375 
Q 22.609375 20.453125 25.53125 16.578125 
Q 28.46875 12.703125 34.078125 12.703125 
Q 39.546875 12.703125 42.578125 16.703125 
Q 45.609375 20.703125 45.609375 27.984375 
Q 45.609375 35.296875 42.578125 39.296875 
Q 39.546875 43.3125 34.078125 43.3125 
z
" id="DejaVuSans-Bold-103"/>
      <path d="M 63.375 33.296875 
L 63.375 0 
L 45.796875 0 
L 45.796875 5.421875 
L 45.796875 25.484375 
Q 45.796875 32.5625 45.484375 35.25 
Q 45.171875 37.9375 44.390625 39.203125 
Q 43.359375 40.921875 41.59375 41.875 
Q 39.84375 42.828125 37.59375 42.828125 
Q 32.125 42.828125 29 38.59375 
Q 25.875 34.375 25.875 26.90625 
L 25.875 0 
L 8.40625 0 
L 8.40625 54.6875 
L 25.875 54.6875 
L 25.875 46.6875 
Q 29.828125 51.46875 34.265625 53.734375 
Q 38.71875 56 44.09375 56 
Q 53.5625 56 58.46875 50.1875 
Q 63.375 44.390625 63.375 33.296875 
z
" id="DejaVuSans-Bold-110"/>
      <path d="M 8.40625 54.6875 
L 25.875 54.6875 
L 25.875 0 
L 8.40625 0 
z
M 8.40625 75.984375 
L 25.875 75.984375 
L 25.875 61.71875 
L 8.40625 61.71875 
z
" id="DejaVuSans-Bold-105"/>
      <path d="M 27.484375 70.21875 
L 27.484375 54.6875 
L 45.515625 54.6875 
L 45.515625 42.1875 
L 27.484375 42.1875 
L 27.484375 19 
Q 27.484375 15.1875 29 13.84375 
Q 30.515625 12.5 35.015625 12.5 
L 44 12.5 
L 44 0 
L 29 0 
Q 18.65625 0 14.328125 4.3125 
Q 10.015625 8.640625 10.015625 19 
L 10.015625 42.1875 
L 1.3125 42.1875 
L 1.3125 54.6875 
L 10.015625 54.6875 
L 10.015625 70.21875 
z
" id="DejaVuSans-Bold-116"/>
      <path d="M 7.8125 21.296875 
L 7.8125 54.6875 
L 25.390625 54.6875 
L 25.390625 49.21875 
Q 25.390625 44.78125 25.34375 38.0625 
Q 25.296875 31.34375 25.296875 29.109375 
Q 25.296875 22.515625 25.640625 19.609375 
Q 25.984375 16.703125 26.8125 15.375 
Q 27.875 13.671875 29.609375 12.734375 
Q 31.34375 11.8125 33.59375 11.8125 
Q 39.0625 11.8125 42.1875 16.015625 
Q 45.3125 20.21875 45.3125 27.6875 
L 45.3125 54.6875 
L 62.796875 54.6875 
L 62.796875 0 
L 45.3125 0 
L 45.3125 7.90625 
Q 41.359375 3.125 36.9375 0.84375 
Q 32.515625 -1.421875 27.203125 -1.421875 
Q 17.71875 -1.421875 12.765625 4.390625 
Q 7.8125 10.203125 7.8125 21.296875 
z
" id="DejaVuSans-Bold-117"/>
      <path d="M 45.609375 46.6875 
L 45.609375 75.984375 
L 63.1875 75.984375 
L 63.1875 0 
L 45.609375 0 
L 45.609375 7.90625 
Q 42 3.078125 37.640625 0.828125 
Q 33.296875 -1.421875 27.59375 -1.421875 
Q 17.484375 -1.421875 10.984375 6.609375 
Q 4.5 14.65625 4.5 27.296875 
Q 4.5 39.9375 10.984375 47.96875 
Q 17.484375 56 27.59375 56 
Q 33.25 56 37.625 53.734375 
Q 42 51.46875 45.609375 46.6875 
z
M 34.078125 11.28125 
Q 39.703125 11.28125 42.65625 15.375 
Q 45.609375 19.484375 45.609375 27.296875 
Q 45.609375 35.109375 42.65625 39.203125 
Q 39.703125 43.3125 34.078125 43.3125 
Q 28.515625 43.3125 25.5625 39.203125 
Q 22.609375 35.109375 22.609375 27.296875 
Q 22.609375 19.484375 25.5625 15.375 
Q 28.515625 11.28125 34.078125 11.28125 
z
" id="DejaVuSans-Bold-100"/>
      <path d="M 62.984375 27.484375 
L 62.984375 22.515625 
L 22.125 22.515625 
Q 22.75 16.359375 26.5625 13.28125 
Q 30.375 10.203125 37.203125 10.203125 
Q 42.71875 10.203125 48.5 11.84375 
Q 54.296875 13.484375 60.40625 16.796875 
L 60.40625 3.328125 
Q 54.203125 0.984375 48 -0.21875 
Q 41.796875 -1.421875 35.59375 -1.421875 
Q 20.75 -1.421875 12.515625 6.125 
Q 4.296875 13.671875 4.296875 27.296875 
Q 4.296875 40.671875 12.375 48.328125 
Q 20.453125 56 34.625 56 
Q 47.515625 56 55.25 48.234375 
Q 62.984375 40.484375 62.984375 27.484375 
z
M 45.015625 33.296875 
Q 45.015625 38.28125 42.109375 41.328125 
Q 39.203125 44.390625 34.515625 44.390625 
Q 29.4375 44.390625 26.265625 41.53125 
Q 23.09375 38.671875 22.3125 33.296875 
z
" id="DejaVuSans-Bold-101"/>
      <path id="DejaVuSans-32"/>
      <path d="M 31 75.875 
Q 24.46875 64.65625 21.28125 53.65625 
Q 18.109375 42.671875 18.109375 31.390625 
Q 18.109375 20.125 21.3125 9.0625 
Q 24.515625 -2 31 -13.1875 
L 23.1875 -13.1875 
Q 15.875 -1.703125 12.234375 9.375 
Q 8.59375 20.453125 8.59375 31.390625 
Q 8.59375 42.28125 12.203125 53.3125 
Q 15.828125 64.359375 23.1875 75.875 
z
" id="DejaVuSans-40"/>
      <path d="M 45.40625 46.390625 
L 45.40625 75.984375 
L 54.390625 75.984375 
L 54.390625 0 
L 45.40625 0 
L 45.40625 8.203125 
Q 42.578125 3.328125 38.25 0.953125 
Q 33.9375 -1.421875 27.875 -1.421875 
Q 17.96875 -1.421875 11.734375 6.484375 
Q 5.515625 14.40625 5.515625 27.296875 
Q 5.515625 40.1875 11.734375 48.09375 
Q 17.96875 56 27.875 56 
Q 33.9375 56 38.25 53.625 
Q 42.578125 51.265625 45.40625 46.390625 
z
M 14.796875 27.296875 
Q 14.796875 17.390625 18.875 11.75 
Q 22.953125 6.109375 30.078125 6.109375 
Q 37.203125 6.109375 41.296875 11.75 
Q 45.40625 17.390625 45.40625 27.296875 
Q 45.40625 37.203125 41.296875 42.84375 
Q 37.203125 48.484375 30.078125 48.484375 
Q 22.953125 48.484375 18.875 42.84375 
Q 14.796875 37.203125 14.796875 27.296875 
z
" id="DejaVuSans-100"/>
      <path d="M 19.671875 34.8125 
L 19.671875 8.109375 
L 35.5 8.109375 
Q 43.453125 8.109375 47.28125 11.40625 
Q 51.125 14.703125 51.125 21.484375 
Q 51.125 28.328125 47.28125 31.5625 
Q 43.453125 34.8125 35.5 34.8125 
z
M 19.671875 64.796875 
L 19.671875 42.828125 
L 34.28125 42.828125 
Q 41.5 42.828125 45.03125 45.53125 
Q 48.578125 48.25 48.578125 53.8125 
Q 48.578125 59.328125 45.03125 62.0625 
Q 41.5 64.796875 34.28125 64.796875 
z
M 9.8125 72.90625 
L 35.015625 72.90625 
Q 46.296875 72.90625 52.390625 68.21875 
Q 58.5 63.53125 58.5 54.890625 
Q 58.5 48.1875 55.375 44.234375 
Q 52.25 40.28125 46.1875 39.3125 
Q 53.46875 37.75 57.5 32.78125 
Q 61.53125 27.828125 61.53125 20.40625 
Q 61.53125 10.640625 54.890625 5.3125 
Q 48.25 0 35.984375 0 
L 9.8125 0 
z
" id="DejaVuSans-66"/>
      <path d="M 8.015625 75.875 
L 15.828125 75.875 
Q 23.140625 64.359375 26.78125 53.3125 
Q 30.421875 42.28125 30.421875 31.390625 
Q 30.421875 20.453125 26.78125 9.375 
Q 23.140625 -1.703125 15.828125 -13.1875 
L 8.015625 -13.1875 
Q 14.5 -2 17.703125 9.0625 
Q 20.90625 20.125 20.90625 31.390625 
Q 20.90625 42.671875 17.703125 53.65625 
Q 14.5 64.65625 8.015625 75.875 
z
" id="DejaVuSans-41"/>
     </defs>
     <g transform="translate(21.515313 139.774)rotate(-90)scale(0.1 -0.1)">
      <use transform="translate(0 0.015625)" xlink:href="#DejaVuSans-Bold-77"/>
      <use transform="translate(99.511719 0.015625)" xlink:href="#DejaVuSans-Bold-97"/>
      <use transform="translate(166.992188 0.015625)" xlink:href="#DejaVuSans-Bold-103"/>
      <use transform="translate(238.574219 0.015625)" xlink:href="#DejaVuSans-Bold-110"/>
      <use transform="translate(309.765625 0.015625)" xlink:href="#DejaVuSans-Bold-105"/>
      <use transform="translate(344.042969 0.015625)" xlink:href="#DejaVuSans-Bold-116"/>
      <use transform="translate(391.845703 0.015625)" xlink:href="#DejaVuSans-Bold-117"/>
      <use transform="translate(463.037109 0.015625)" xlink:href="#DejaVuSans-Bold-100"/>
      <use transform="translate(534.619141 0.015625)" xlink:href="#DejaVuSans-Bold-101"/>
      <use transform="translate(602.441406 0.015625)" xlink:href="#DejaVuSans-32"/>
      <use transform="translate(634.228516 0.015625)" xlink:href="#DejaVuSans-40"/>
      <use transform="translate(673.242188 0.015625)" xlink:href="#DejaVuSans-100"/>
      <use transform="translate(736.71875 0.015625)" xlink:href="#DejaVuSans-66"/>
      <use transform="translate(805.322266 0.015625)" xlink:href="#DejaVuSans-41"/>
     </g>
    </g>
   </g>
   <g id="line2d_58">
    <path clip-path="url(#pb90385f67f)" d="M 78.859091 117.191623 
L 83.466909 117.191184 
L 88.074727 117.190681 
L 92.682545 117.190102 
L 97.290364 117.189439 
L 101.898182 117.188677 
L 106.506 117.187803 
L 111.113818 117.186799 
L 115.721636 117.185647 
L 120.329455 117.184324 
L 124.937273 117.182807 
L 129.545091 117.181065 
L 134.152909 117.179066 
L 138.760727 117.176773 
L 143.368545 117.174142 
L 147.976364 117.171124 
L 152.584182 117.167661 
L 157.192 117.16369 
L 161.799818 117.159137 
L 166.407636 117.153916 
L 171.015455 117.147932 
L 175.623273 117.141075 
L 180.231091 117.133219 
L 184.838909 117.124222 
L 189.446727 117.113923 
L 194.054545 117.102138 
L 198.662364 117.088661 
L 203.270182 117.073259 
L 207.878 117.055668 
L 212.485818 117.035597 
L 217.093636 117.012717 
L 221.701455 116.986669 
L 226.309273 116.957057 
L 230.917091 116.923449 
L 235.524909 116.885387 
L 240.132727 116.842387 
L 244.740545 116.793957 
L 249.348364 116.739615 
L 253.956182 116.678921 
L 258.564 116.611528 
L 263.171818 116.53725 
L 267.779636 116.456164 
L 272.387455 116.368762 
L 276.995273 116.276151 
L 281.603091 116.18035 
L 286.210909 116.084672 
L 290.818727 115.994245 
L 295.426545 115.916662 
L 300.034364 115.862745 
L 304.642182 115.847342 
L 309.25 115.889944 
L 313.857818 116.014785 
L 318.465636 116.249884 
L 323.073455 116.624569 
L 327.681273 117.165348 
L 332.289091 117.890835 
L 336.896909 118.807373 
L 341.504727 119.907194 
L 346.112545 121.169985 
L 350.720364 122.567143 
L 355.328182 124.066886 
L 359.936 125.638545 
L 364.543818 127.255236 
L 369.151636 128.894969 
L 373.759455 130.540675 
L 378.367273 132.179655 
L 382.975091 133.802841 
L 387.582909 135.404066 
L 392.190727 136.979438 
L 396.798545 138.526845 
L 401.406364 140.045582 
L 406.014182 141.536062 
L 410.622 142.999612 
L 415.229818 144.438313 
L 419.837636 145.854878 
L 424.445455 147.252557 
L 429.053273 148.635059 
L 433.661091 150.006481 
L 438.268909 151.371244 
L 442.876727 152.73403 
L 447.484545 154.099702 
L 452.092364 155.473203 
L 456.700182 156.859414 
L 461.308 158.262931 
L 465.915818 159.687724 
L 470.523636 161.136602 
L 475.131455 162.610382 
L 479.739273 164.106625 
L 484.347091 165.61777 
L 488.954909 167.128534 
L 493.562727 168.612687 
L 498.170545 170.029882 
L 502.778364 171.324456 
L 507.386182 172.429497 
L 511.994 173.279361 
L 516.601818 173.829326 
L 521.209636 174.073091 
L 525.817455 174.046151 
L 530.425273 173.812421 
L 535.033091 173.44391 
L 539.640909 173.004962 
" style="fill:none;stroke:#1f77b4;stroke-linecap:square;stroke-width:1.5;"/>
   </g>
   <g id="line2d_59">
    <path clip-path="url(#pb90385f67f)" d="M 78.859091 21.948359 
L 83.466909 21.947992 
L 88.074727 21.94757 
L 92.682545 21.947087 
L 97.290364 21.946531 
L 101.898182 21.945894 
L 106.506 21.945162 
L 111.113818 21.944322 
L 115.721636 21.943358 
L 120.329455 21.942251 
L 124.937273 21.940981 
L 129.545091 21.939524 
L 134.152909 21.937852 
L 138.760727 21.935934 
L 143.368545 21.933734 
L 147.976364 21.93121 
L 152.584182 21.928315 
L 157.192 21.924996 
L 161.799818 21.92119 
L 166.407636 21.916828 
L 171.015455 21.91183 
L 175.623273 21.906104 
L 180.231091 21.899547 
L 184.838909 21.892042 
L 189.446727 21.883455 
L 194.054545 21.873635 
L 198.662364 21.862413 
L 203.270182 21.849599 
L 207.878 21.834979 
L 212.485818 21.818316 
L 217.093636 21.799348 
L 221.701455 21.777788 
L 226.309273 21.753325 
L 230.917091 21.725624 
L 235.524909 21.694337 
L 240.132727 21.659107 
L 244.740545 21.619587 
L 249.348364 21.575459 
L 253.956182 21.526472 
L 258.564 21.472495 
L 263.171818 21.413584 
L 267.779636 21.350097 
L 272.387455 21.28284 
L 276.995273 21.213281 
L 281.603091 21.143844 
L 286.210909 21.078301 
L 290.818727 21.022298 
L 295.426545 20.984009 
L 300.034364 20.974909 
L 304.642182 21.010573 
L 309.25 21.111306 
L 313.857818 21.302234 
L 318.465636 21.612369 
L 323.073455 22.07212 
L 327.681273 22.70917 
L 332.289091 23.543405 
L 336.896909 24.582524 
L 341.504727 25.820194 
L 346.112545 27.237602 
L 350.720364 28.807691 
L 355.328182 30.500243 
L 359.936 32.286143 
L 364.543818 34.140013 
L 369.151636 36.041283 
L 373.759455 37.974163 
L 378.367273 39.927057 
L 382.975091 41.891766 
L 387.582909 43.862713 
L 392.190727 45.836283 
L 396.798545 47.81029 
L 401.406364 49.783578 
L 406.014182 51.755724 
L 410.622 53.726829 
L 415.229818 55.697362 
L 419.837636 57.668064 
L 424.445455 59.639875 
L 429.053273 61.613889 
L 433.661091 63.591326 
L 438.268909 65.573512 
L 442.876727 67.561877 
L 447.484545 69.557945 
L 452.092364 71.563337 
L 456.700182 73.579769 
L 461.308 75.60905 
L 465.915818 77.653083 
L 470.523636 79.713858 
L 475.131455 81.79344 
L 479.739273 83.893958 
L 484.347091 86.017583 
L 488.954909 88.166505 
L 493.562727 90.342905 
L 498.170545 92.548918 
L 502.778364 94.786603 
L 507.386182 97.057903 
L 511.994 99.364611 
L 516.601818 101.708345 
L 521.209636 104.090517 
L 525.817455 106.512328 
L 530.425273 108.974754 
L 535.033091 111.47856 
L 539.640909 114.024313 
" style="fill:none;stroke:#ff7f0e;stroke-linecap:square;stroke-width:1.5;"/>
   </g>
   <g id="line2d_60">
    <path clip-path="url(#pb90385f67f)" d="M 78.859091 21.948359 
L 83.466909 21.947992 
L 88.074727 21.94757 
L 92.682545 21.947087 
L 97.290364 21.946531 
L 101.898182 21.945894 
L 106.506 21.945162 
L 111.113818 21.944322 
L 115.721636 21.943358 
L 120.329455 21.942251 
L 124.937273 21.940981 
L 129.545091 21.939524 
L 134.152909 21.937852 
L 138.760727 21.935934 
L 143.368545 21.933734 
L 147.976364 21.93121 
L 152.584182 21.928315 
L 157.192 21.924996 
L 161.799818 21.92119 
L 166.407636 21.916828 
L 171.015455 21.91183 
L 175.623273 21.906104 
L 180.231091 21.899547 
L 184.838909 21.892042 
L 189.446727 21.883455 
L 194.054545 21.873635 
L 198.662364 21.862413 
L 203.270182 21.849599 
L 207.878 21.834979 
L 212.485818 21.818316 
L 217.093636 21.799348 
L 221.701455 21.777788 
L 226.309273 21.753325 
L 230.917091 21.725624 
L 235.524909 21.694337 
L 240.132727 21.659107 
L 244.740545 21.619587 
L 249.348364 21.575459 
L 253.956182 21.526472 
L 258.564 21.472495 
L 263.171818 21.413584 
L 267.779636 21.350097 
L 272.387455 21.28284 
L 276.995273 21.213281 
L 281.603091 21.143844 
L 286.210909 21.078301 
L 290.818727 21.022298 
L 295.426545 20.984009 
L 300.034364 20.974909 
L 304.642182 21.010573 
L 309.25 21.111306 
L 313.857818 21.302234 
L 318.465636 21.612369 
L 323.073455 22.07212 
L 327.681273 22.70917 
L 332.289091 23.543405 
L 336.896909 24.582524 
L 341.504727 25.820194 
L 346.112545 27.237602 
L 350.720364 28.807691 
L 355.328182 30.500243 
L 359.936 32.286143 
L 364.543818 34.140013 
L 369.151636 36.041283 
L 373.759455 37.974163 
L 378.367273 39.927057 
L 382.975091 41.891766 
L 387.582909 43.862713 
L 392.190727 45.836283 
L 396.798545 47.81029 
L 401.406364 49.783578 
L 406.014182 51.755724 
L 410.622 53.726829 
L 415.229818 55.697362 
L 419.837636 57.668064 
L 424.445455 59.639875 
L 429.053273 61.613889 
L 433.661091 63.591326 
L 438.268909 65.573512 
L 442.876727 67.561877 
L 447.484545 69.557945 
L 452.092364 71.563337 
L 456.700182 73.579769 
L 461.308 75.60905 
L 465.915818 77.653083 
L 470.523636 79.713858 
L 475.131455 81.79344 
L 479.739273 83.893958 
L 484.347091 86.017583 
L 488.954909 88.166505 
L 493.562727 90.342905 
L 498.170545 92.548918 
L 502.778364 94.786603 
L 507.386182 97.057903 
L 511.994 99.364611 
L 516.601818 101.708345 
L 521.209636 104.090517 
L 525.817455 106.512328 
L 530.425273 108.974754 
L 535.033091 111.47856 
L 539.640909 114.024313 
" style="fill:none;stroke:#2ca02c;stroke-dasharray:5.55,2.4;stroke-dashoffset:0;stroke-width:1.5;"/>
   </g>
   <g id="line2d_61">
    <path clip-path="url(#pb90385f67f)" d="M 78.859091 117.191623 
L 83.466909 117.191184 
L 88.074727 117.190681 
L 92.682545 117.190102 
L 97.290364 117.189439 
L 101.898182 117.188677 
L 106.506 117.187803 
L 111.113818 117.186799 
L 115.721636 117.185647 
L 120.329455 117.184324 
L 124.937273 117.182807 
L 129.545091 117.181065 
L 134.152909 117.179066 
L 138.760727 117.176773 
L 143.368545 117.174142 
L 147.976364 117.171124 
L 152.584182 117.167661 
L 157.192 117.16369 
L 161.799818 117.159137 
L 166.407636 117.153916 
L 171.015455 117.147932 
L 175.623273 117.141075 
L 180.231091 117.133219 
L 184.838909 117.124222 
L 189.446727 117.113923 
L 194.054545 117.102138 
L 198.662364 117.088661 
L 203.270182 117.073259 
L 207.878 117.055668 
L 212.485818 117.035597 
L 217.093636 117.012717 
L 221.701455 116.986669 
L 226.309273 116.957057 
L 230.917091 116.923449 
L 235.524909 116.885387 
L 240.132727 116.842387 
L 244.740545 116.793957 
L 249.348364 116.739615 
L 253.956182 116.678921 
L 258.564 116.611528 
L 263.171818 116.53725 
L 267.779636 116.456164 
L 272.387455 116.368762 
L 276.995273 116.276151 
L 281.603091 116.18035 
L 286.210909 116.084672 
L 290.818727 115.994245 
L 295.426545 115.916662 
L 300.034364 115.862745 
L 304.642182 115.847342 
L 309.25 115.889944 
L 313.857818 116.014785 
L 318.465636 116.249884 
L 323.073455 116.624569 
L 327.681273 117.165348 
L 332.289091 117.890835 
L 336.896909 118.807373 
L 341.504727 119.907194 
L 346.112545 121.169985 
L 350.720364 122.567143 
L 355.328182 124.066886 
L 359.936 125.638545 
L 364.543818 127.255236 
L 369.151636 128.894969 
L 373.759455 130.540675 
L 378.367273 132.179655 
L 382.975091 133.802841 
L 387.582909 135.404066 
L 392.190727 136.979438 
L 396.798545 138.526845 
L 401.406364 140.045582 
L 406.014182 141.536062 
L 410.622 142.999612 
L 415.229818 144.438313 
L 419.837636 145.854878 
L 424.445455 147.252557 
L 429.053273 148.635059 
L 433.661091 150.006481 
L 438.268909 151.371244 
L 442.876727 152.73403 
L 447.484545 154.099702 
L 452.092364 155.473203 
L 456.700182 156.859414 
L 461.308 158.262931 
L 465.915818 159.687724 
L 470.523636 161.136602 
L 475.131455 162.610382 
L 479.739273 164.106625 
L 484.347091 165.61777 
L 488.954909 167.128534 
L 493.562727 168.612687 
L 498.170545 170.029882 
L 502.778364 171.324456 
L 507.386182 172.429497 
L 511.994 173.279361 
L 516.601818 173.829326 
L 521.209636 174.073091 
L 525.817455 174.046151 
L 530.425273 173.812421 
L 535.033091 173.44391 
L 539.640909 173.004962 
" style="fill:none;stroke:#d62728;stroke-dasharray:5.55,2.4;stroke-dashoffset:0;stroke-width:1.5;"/>
   </g>
   <g id="patch_3">
    <path d="M 55.82 181.728 
L 55.82 13.32 
" style="fill:none;stroke:#000000;stroke-linecap:square;stroke-linejoin:miter;stroke-width:0.8;"/>
   </g>
   <g id="patch_4">
    <path d="M 562.68 181.728 
L 562.68 13.32 
" style="fill:none;stroke:#000000;stroke-linecap:square;stroke-linejoin:miter;stroke-width:0.8;"/>
   </g>
   <g id="patch_5">
    <path d="M 55.82 181.728 
L 562.68 181.728 
" style="fill:none;stroke:#000000;stroke-linecap:square;stroke-linejoin:miter;stroke-width:0.8;"/>
   </g>
   <g id="patch_6">
    <path d="M 55.82 13.32 
L 562.68 13.32 
" style="fill:none;stroke:#000000;stroke-linecap:square;stroke-linejoin:miter;stroke-width:0.8;"/>
   </g>
   <g id="legend_1">
    <g id="patch_7">
     <path d="M 62.12 177.228 
L 196.13 177.228 
Q 197.93 177.228 197.93 175.428 
L 197.93 123.447375 
Q 197.93 121.647375 196.13 121.647375 
L 62.12 121.647375 
Q 60.32 121.647375 60.32 123.447375 
L 60.32 175.428 
Q 60.32 177.228 62.12 177.228 
z
" style="fill:#ffffff;opacity:0.8;stroke:#cccccc;stroke-linejoin:miter;"/>
    </g>
    <g id="line2d_62">
     <path d="M 63.92 128.937375 
L 81.92 128.937375 
" style="fill:none;stroke:#1f77b4;stroke-linecap:square;stroke-width:1.5;"/>
    </g>
    <g id="line2d_63"/>
    <g id="text_12">
     <!-- $\bf{nin}$ to $\bf{op1}$ (A/V) -->
     <defs>
      <path d="M 18.3125 70.21875 
L 18.3125 54.6875 
L 36.8125 54.6875 
L 36.8125 47.703125 
L 18.3125 47.703125 
L 18.3125 18.015625 
Q 18.3125 11.328125 20.140625 9.421875 
Q 21.96875 7.515625 27.59375 7.515625 
L 36.8125 7.515625 
L 36.8125 0 
L 27.59375 0 
Q 17.1875 0 13.234375 3.875 
Q 9.28125 7.765625 9.28125 18.015625 
L 9.28125 47.703125 
L 2.6875 47.703125 
L 2.6875 54.6875 
L 9.28125 54.6875 
L 9.28125 70.21875 
z
" id="DejaVuSans-116"/>
      <path d="M 30.609375 48.390625 
Q 23.390625 48.390625 19.1875 42.75 
Q 14.984375 37.109375 14.984375 27.296875 
Q 14.984375 17.484375 19.15625 11.84375 
Q 23.34375 6.203125 30.609375 6.203125 
Q 37.796875 6.203125 41.984375 11.859375 
Q 46.1875 17.53125 46.1875 27.296875 
Q 46.1875 37.015625 41.984375 42.703125 
Q 37.796875 48.390625 30.609375 48.390625 
z
M 30.609375 56 
Q 42.328125 56 49.015625 48.375 
Q 55.71875 40.765625 55.71875 27.296875 
Q 55.71875 13.875 49.015625 6.21875 
Q 42.328125 -1.421875 30.609375 -1.421875 
Q 18.84375 -1.421875 12.171875 6.21875 
Q 5.515625 13.875 5.515625 27.296875 
Q 5.515625 40.765625 12.171875 48.375 
Q 18.84375 56 30.609375 56 
z
" id="DejaVuSans-111"/>
      <path d="M 34.421875 43.5 
Q 28.609375 43.5 25.5625 39.328125 
Q 22.515625 35.15625 22.515625 27.296875 
Q 22.515625 19.4375 25.5625 15.25 
Q 28.609375 11.078125 34.421875 11.078125 
Q 40.140625 11.078125 43.15625 15.25 
Q 46.1875 19.4375 46.1875 27.296875 
Q 46.1875 35.15625 43.15625 39.328125 
Q 40.140625 43.5 34.421875 43.5 
z
M 34.421875 56 
Q 48.53125 56 56.46875 48.375 
Q 64.40625 40.765625 64.40625 27.296875 
Q 64.40625 13.8125 56.46875 6.1875 
Q 48.53125 -1.421875 34.421875 -1.421875 
Q 20.265625 -1.421875 12.28125 6.1875 
Q 4.296875 13.8125 4.296875 27.296875 
Q 4.296875 40.765625 12.28125 48.375 
Q 20.265625 56 34.421875 56 
z
" id="DejaVuSans-Bold-111"/>
      <path d="M 25.875 7.90625 
L 25.875 -20.796875 
L 8.40625 -20.796875 
L 8.40625 54.6875 
L 25.875 54.6875 
L 25.875 46.6875 
Q 29.5 51.46875 33.890625 53.734375 
Q 38.28125 56 44 56 
Q 54.109375 56 60.59375 47.96875 
Q 67.09375 39.9375 67.09375 27.296875 
Q 67.09375 14.65625 60.59375 6.609375 
Q 54.109375 -1.421875 44 -1.421875 
Q 38.28125 -1.421875 33.890625 0.84375 
Q 29.5 3.125 25.875 7.90625 
z
M 37.5 43.3125 
Q 31.890625 43.3125 28.875 39.1875 
Q 25.875 35.0625 25.875 27.296875 
Q 25.875 19.53125 28.875 15.40625 
Q 31.890625 11.28125 37.5 11.28125 
Q 43.109375 11.28125 46.0625 15.375 
Q 49.03125 19.484375 49.03125 27.296875 
Q 49.03125 35.109375 46.0625 39.203125 
Q 43.109375 43.3125 37.5 43.3125 
z
" id="DejaVuSans-Bold-112"/>
      <path d="M 11.71875 12.984375 
L 28.328125 12.984375 
L 28.328125 60.109375 
L 11.28125 56.59375 
L 11.28125 69.390625 
L 28.21875 72.90625 
L 46.09375 72.90625 
L 46.09375 12.984375 
L 62.703125 12.984375 
L 62.703125 0 
L 11.71875 0 
z
" id="DejaVuSans-Bold-49"/>
      <path d="M 34.1875 63.1875 
L 20.796875 26.90625 
L 47.609375 26.90625 
z
M 28.609375 72.90625 
L 39.796875 72.90625 
L 67.578125 0 
L 57.328125 0 
L 50.6875 18.703125 
L 17.828125 18.703125 
L 11.1875 0 
L 0.78125 0 
z
" id="DejaVuSans-65"/>
      <path d="M 25.390625 72.90625 
L 33.6875 72.90625 
L 8.296875 -9.28125 
L 0 -9.28125 
z
" id="DejaVuSans-47"/>
      <path d="M 28.609375 0 
L 0.78125 72.90625 
L 11.078125 72.90625 
L 34.1875 11.53125 
L 57.328125 72.90625 
L 67.578125 72.90625 
L 39.796875 0 
z
" id="DejaVuSans-86"/>
     </defs>
     <g transform="translate(89.12 132.087375)scale(0.09 -0.09)">
      <use transform="translate(0 0.015625)" xlink:href="#DejaVuSans-Bold-110"/>
      <use transform="translate(71.191406 0.015625)" xlink:href="#DejaVuSans-Bold-105"/>
      <use transform="translate(105.46875 0.015625)" xlink:href="#DejaVuSans-Bold-110"/>
      <use transform="translate(176.660156 0.015625)" xlink:href="#DejaVuSans-32"/>
      <use transform="translate(208.447266 0.015625)" xlink:href="#DejaVuSans-116"/>
      <use transform="translate(247.65625 0.015625)" xlink:href="#DejaVuSans-111"/>
      <use transform="translate(308.837891 0.015625)" xlink:href="#DejaVuSans-32"/>
      <use transform="translate(340.625 0.015625)" xlink:href="#DejaVuSans-Bold-111"/>
      <use transform="translate(409.326172 0.015625)" xlink:href="#DejaVuSans-Bold-112"/>
      <use transform="translate(480.908203 0.015625)" xlink:href="#DejaVuSans-Bold-49"/>
      <use transform="translate(550.488281 0.015625)" xlink:href="#DejaVuSans-32"/>
      <use transform="translate(582.275391 0.015625)" xlink:href="#DejaVuSans-40"/>
      <use transform="translate(621.289062 0.015625)" xlink:href="#DejaVuSans-65"/>
      <use transform="translate(689.697266 0.015625)" xlink:href="#DejaVuSans-47"/>
      <use transform="translate(723.388672 0.015625)" xlink:href="#DejaVuSans-86"/>
      <use transform="translate(791.796875 0.015625)" xlink:href="#DejaVuSans-41"/>
     </g>
    </g>
    <g id="line2d_64">
     <path d="M 63.92 142.165969 
L 81.92 142.165969 
" style="fill:none;stroke:#ff7f0e;stroke-linecap:square;stroke-width:1.5;"/>
    </g>
    <g id="line2d_65"/>
    <g id="text_13">
     <!-- $\bf{nin}$ to $\bf{no}$ (V/V) -->
     <g transform="translate(89.12 145.315969)scale(0.09 -0.09)">
      <use transform="translate(0 0.015625)" xlink:href="#DejaVuSans-Bold-110"/>
      <use transform="translate(71.191406 0.015625)" xlink:href="#DejaVuSans-Bold-105"/>
      <use transform="translate(105.46875 0.015625)" xlink:href="#DejaVuSans-Bold-110"/>
      <use transform="translate(176.660156 0.015625)" xlink:href="#DejaVuSans-32"/>
      <use transform="translate(208.447266 0.015625)" xlink:href="#DejaVuSans-116"/>
      <use transform="translate(247.65625 0.015625)" xlink:href="#DejaVuSans-111"/>
      <use transform="translate(308.837891 0.015625)" xlink:href="#DejaVuSans-32"/>
      <use transform="translate(340.625 0.015625)" xlink:href="#DejaVuSans-Bold-110"/>
      <use transform="translate(411.816406 0.015625)" xlink:href="#DejaVuSans-Bold-111"/>
      <use transform="translate(480.517578 0.015625)" xlink:href="#DejaVuSans-32"/>
      <use transform="translate(512.304688 0.015625)" xlink:href="#DejaVuSans-40"/>
      <use transform="translate(551.318359 0.015625)" xlink:href="#DejaVuSans-86"/>
      <use transform="translate(619.726562 0.015625)" xlink:href="#DejaVuSans-47"/>
      <use transform="translate(653.417969 0.015625)" xlink:href="#DejaVuSans-86"/>
      <use transform="translate(721.826172 0.015625)" xlink:href="#DejaVuSans-41"/>
     </g>
    </g>
    <g id="line2d_66">
     <path d="M 63.92 155.376281 
L 81.92 155.376281 
" style="fill:none;stroke:#2ca02c;stroke-dasharray:5.55,2.4;stroke-dashoffset:0;stroke-width:1.5;"/>
    </g>
    <g id="line2d_67"/>
    <g id="text_14">
     <!-- $\bf{nin}$ to $\bf{no}$ (V/V) (LISO) -->
     <defs>
      <path d="M 9.8125 72.90625 
L 19.671875 72.90625 
L 19.671875 8.296875 
L 55.171875 8.296875 
L 55.171875 0 
L 9.8125 0 
z
" id="DejaVuSans-76"/>
      <path d="M 9.8125 72.90625 
L 19.671875 72.90625 
L 19.671875 0 
L 9.8125 0 
z
" id="DejaVuSans-73"/>
      <path d="M 53.515625 70.515625 
L 53.515625 60.890625 
Q 47.90625 63.578125 42.921875 64.890625 
Q 37.9375 66.21875 33.296875 66.21875 
Q 25.25 66.21875 20.875 63.09375 
Q 16.5 59.96875 16.5 54.203125 
Q 16.5 49.359375 19.40625 46.890625 
Q 22.3125 44.4375 30.421875 42.921875 
L 36.375 41.703125 
Q 47.40625 39.59375 52.65625 34.296875 
Q 57.90625 29 57.90625 20.125 
Q 57.90625 9.515625 50.796875 4.046875 
Q 43.703125 -1.421875 29.984375 -1.421875 
Q 24.8125 -1.421875 18.96875 -0.25 
Q 13.140625 0.921875 6.890625 3.21875 
L 6.890625 13.375 
Q 12.890625 10.015625 18.65625 8.296875 
Q 24.421875 6.59375 29.984375 6.59375 
Q 38.421875 6.59375 43.015625 9.90625 
Q 47.609375 13.234375 47.609375 19.390625 
Q 47.609375 24.75 44.3125 27.78125 
Q 41.015625 30.8125 33.5 32.328125 
L 27.484375 33.5 
Q 16.453125 35.6875 11.515625 40.375 
Q 6.59375 45.0625 6.59375 53.421875 
Q 6.59375 63.09375 13.40625 68.65625 
Q 20.21875 74.21875 32.171875 74.21875 
Q 37.3125 74.21875 42.625 73.28125 
Q 47.953125 72.359375 53.515625 70.515625 
z
" id="DejaVuSans-83"/>
      <path d="M 39.40625 66.21875 
Q 28.65625 66.21875 22.328125 58.203125 
Q 16.015625 50.203125 16.015625 36.375 
Q 16.015625 22.609375 22.328125 14.59375 
Q 28.65625 6.59375 39.40625 6.59375 
Q 50.140625 6.59375 56.421875 14.59375 
Q 62.703125 22.609375 62.703125 36.375 
Q 62.703125 50.203125 56.421875 58.203125 
Q 50.140625 66.21875 39.40625 66.21875 
z
M 39.40625 74.21875 
Q 54.734375 74.21875 63.90625 63.9375 
Q 73.09375 53.65625 73.09375 36.375 
Q 73.09375 19.140625 63.90625 8.859375 
Q 54.734375 -1.421875 39.40625 -1.421875 
Q 24.03125 -1.421875 14.8125 8.828125 
Q 5.609375 19.09375 5.609375 36.375 
Q 5.609375 53.65625 14.8125 63.9375 
Q 24.03125 74.21875 39.40625 74.21875 
z
" id="DejaVuSans-79"/>
     </defs>
     <g transform="translate(89.12 158.526281)scale(0.09 -0.09)">
      <use transform="translate(0 0.015625)" xlink:href="#DejaVuSans-Bold-110"/>
      <use transform="translate(71.191406 0.015625)" xlink:href="#DejaVuSans-Bold-105"/>
      <use transform="translate(105.46875 0.015625)" xlink:href="#DejaVuSans-Bold-110"/>
      <use transform="translate(176.660156 0.015625)" xlink:href="#DejaVuSans-32"/>
      <use transform="translate(208.447266 0.015625)" xlink:href="#DejaVuSans-116"/>
      <use transform="translate(247.65625 0.015625)" xlink:href="#DejaVuSans-111"/>
      <use transform="translate(308.837891 0.015625)" xlink:href="#DejaVuSans-32"/>
      <use transform="translate(340.625 0.015625)" xlink:href="#DejaVuSans-Bold-110"/>
      <use transform="translate(411.816406 0.015625)" xlink:href="#DejaVuSans-Bold-111"/>
      <use transform="translate(480.517578 0.015625)" xlink:href="#DejaVuSans-32"/>
      <use transform="translate(512.304688 0.015625)" xlink:href="#DejaVuSans-40"/>
      <use transform="translate(551.318359 0.015625)" xlink:href="#DejaVuSans-86"/>
      <use transform="translate(619.726562 0.015625)" xlink:href="#DejaVuSans-47"/>
      <use transform="translate(653.417969 0.015625)" xlink:href="#DejaVuSans-86"/>
      <use transform="translate(721.826172 0.015625)" xlink:href="#DejaVuSans-41"/>
      <use transform="translate(760.839844 0.015625)" xlink:href="#DejaVuSans-32"/>
      <use transform="translate(792.626953 0.015625)" xlink:href="#DejaVuSans-40"/>
      <use transform="translate(831.640625 0.015625)" xlink:href="#DejaVuSans-76"/>
      <use transform="translate(887.353516 0.015625)" xlink:href="#DejaVuSans-73"/>
      <use transform="translate(916.845703 0.015625)" xlink:href="#DejaVuSans-83"/>
      <use transform="translate(980.322266 0.015625)" xlink:href="#DejaVuSans-79"/>
      <use transform="translate(1059.033203 0.015625)" xlink:href="#DejaVuSans-41"/>
     </g>
    </g>
    <g id="line2d_68">
     <path d="M 63.92 168.588 
L 81.92 168.588 
" style="fill:none;stroke:#d62728;stroke-dasharray:5.55,2.4;stroke-dashoffset:0;stroke-width:1.5;"/>
    </g>
    <g id="line2d_69"/>
    <g id="text_15">
     <!-- $\bf{nin}$ to $\bf{op1}$ (A/V) (LISO) -->
     <g transform="translate(89.12 171.738)scale(0.09 -0.09)">
      <use transform="translate(0 0.015625)" xlink:href="#DejaVuSans-Bold-110"/>
      <use transform="translate(71.191406 0.015625)" xlink:href="#DejaVuSans-Bold-105"/>
      <use transform="translate(105.46875 0.015625)" xlink:href="#DejaVuSans-Bold-110"/>
      <use transform="translate(176.660156 0.015625)" xlink:href="#DejaVuSans-32"/>
      <use transform="translate(208.447266 0.015625)" xlink:href="#DejaVuSans-116"/>
      <use transform="translate(247.65625 0.015625)" xlink:href="#DejaVuSans-111"/>
      <use transform="translate(308.837891 0.015625)" xlink:href="#DejaVuSans-32"/>
      <use transform="translate(340.625 0.015625)" xlink:href="#DejaVuSans-Bold-111"/>
      <use transform="translate(409.326172 0.015625)" xlink:href="#DejaVuSans-Bold-112"/>
      <use transform="translate(480.908203 0.015625)" xlink:href="#DejaVuSans-Bold-49"/>
      <use transform="translate(550.488281 0.015625)" xlink:href="#DejaVuSans-32"/>
      <use transform="translate(582.275391 0.015625)" xlink:href="#DejaVuSans-40"/>
      <use transform="translate(621.289062 0.015625)" xlink:href="#DejaVuSans-65"/>
      <use transform="translate(689.697266 0.015625)" xlink:href="#DejaVuSans-47"/>
      <use transform="translate(723.388672 0.015625)" xlink:href="#DejaVuSans-86"/>
      <use transform="translate(791.796875 0.015625)" xlink:href="#DejaVuSans-41"/>
      <use transform="translate(830.810547 0.015625)" xlink:href="#DejaVuSans-32"/>
      <use transform="translate(862.597656 0.015625)" xlink:href="#DejaVuSans-40"/>
      <use transform="translate(901.611328 0.015625)" xlink:href="#DejaVuSans-76"/>
      <use transform="translate(957.324219 0.015625)" xlink:href="#DejaVuSans-73"/>
      <use transform="translate(986.816406 0.015625)" xlink:href="#DejaVuSans-83"/>
      <use transform="translate(1050.292969 0.015625)" xlink:href="#DejaVuSans-79"/>
      <use transform="translate(1129.003906 0.015625)" xlink:href="#DejaVuSans-41"/>
     </g>
    </g>
   </g>
  </g>
  <g id="axes_2">
   <g id="patch_8">
    <path d="M 55.82 383.848 
L 562.68 383.848 
L 562.68 215.44 
L 55.82 215.44 
z
" style="fill:#ffffff;"/>
   </g>
   <g id="matplotlib.axis_3">
    <g id="xtick_31">
     <g id="line2d_70">
      <path clip-path="url(#p619131e6ba)" d="M 78.859091 383.848 
L 78.859091 215.44 
" style="fill:none;stroke:#b0b0b0;stroke-linecap:square;stroke-width:0.8;"/>
     </g>
     <g id="line2d_71">
      <g>
       <use style="stroke:#000000;stroke-width:0.8;" x="78.859091" xlink:href="#m879666a938" y="383.848"/>
      </g>
     </g>
     <g id="text_16">
      <!-- $\mathdefault{10^{4}}$ -->
      <g transform="translate(70.059091 398.446438)scale(0.1 -0.1)">
       <use transform="translate(0 0.684375)" xlink:href="#DejaVuSans-49"/>
       <use transform="translate(63.623047 0.684375)" xlink:href="#DejaVuSans-48"/>
       <use transform="translate(128.203125 38.965625)scale(0.7)" xlink:href="#DejaVuSans-52"/>
      </g>
     </g>
    </g>
    <g id="xtick_32">
     <g id="line2d_72">
      <path clip-path="url(#p619131e6ba)" d="M 232.45303 383.848 
L 232.45303 215.44 
" style="fill:none;stroke:#b0b0b0;stroke-linecap:square;stroke-width:0.8;"/>
     </g>
     <g id="line2d_73">
      <g>
       <use style="stroke:#000000;stroke-width:0.8;" x="232.45303" xlink:href="#m879666a938" y="383.848"/>
      </g>
     </g>
     <g id="text_17">
      <!-- $\mathdefault{10^{5}}$ -->
      <g transform="translate(223.65303 398.446438)scale(0.1 -0.1)">
       <use transform="translate(0 0.684375)" xlink:href="#DejaVuSans-49"/>
       <use transform="translate(63.623047 0.684375)" xlink:href="#DejaVuSans-48"/>
       <use transform="translate(128.203125 38.965625)scale(0.7)" xlink:href="#DejaVuSans-53"/>
      </g>
     </g>
    </g>
    <g id="xtick_33">
     <g id="line2d_74">
      <path clip-path="url(#p619131e6ba)" d="M 386.04697 383.848 
L 386.04697 215.44 
" style="fill:none;stroke:#b0b0b0;stroke-linecap:square;stroke-width:0.8;"/>
     </g>
     <g id="line2d_75">
      <g>
       <use style="stroke:#000000;stroke-width:0.8;" x="386.04697" xlink:href="#m879666a938" y="383.848"/>
      </g>
     </g>
     <g id="text_18">
      <!-- $\mathdefault{10^{6}}$ -->
      <g transform="translate(377.24697 398.446438)scale(0.1 -0.1)">
       <use transform="translate(0 0.765625)" xlink:href="#DejaVuSans-49"/>
       <use transform="translate(63.623047 0.765625)" xlink:href="#DejaVuSans-48"/>
       <use transform="translate(128.203125 39.046875)scale(0.7)" xlink:href="#DejaVuSans-54"/>
      </g>
     </g>
    </g>
    <g id="xtick_34">
     <g id="line2d_76">
      <path clip-path="url(#p619131e6ba)" d="M 539.640909 383.848 
L 539.640909 215.44 
" style="fill:none;stroke:#b0b0b0;stroke-linecap:square;stroke-width:0.8;"/>
     </g>
     <g id="line2d_77">
      <g>
       <use style="stroke:#000000;stroke-width:0.8;" x="539.640909" xlink:href="#m879666a938" y="383.848"/>
      </g>
     </g>
     <g id="text_19">
      <!-- $\mathdefault{10^{7}}$ -->
      <g transform="translate(530.840909 398.446438)scale(0.1 -0.1)">
       <use transform="translate(0 0.684375)" xlink:href="#DejaVuSans-49"/>
       <use transform="translate(63.623047 0.684375)" xlink:href="#DejaVuSans-48"/>
       <use transform="translate(128.203125 38.965625)scale(0.7)" xlink:href="#DejaVuSans-55"/>
      </g>
     </g>
    </g>
    <g id="xtick_35">
     <g id="line2d_78">
      <g>
       <use style="stroke:#000000;stroke-width:0.6;" x="63.9743" xlink:href="#md45d1cb7e7" y="383.848"/>
      </g>
     </g>
    </g>
    <g id="xtick_36">
     <g id="line2d_79">
      <g>
       <use style="stroke:#000000;stroke-width:0.6;" x="71.831018" xlink:href="#md45d1cb7e7" y="383.848"/>
      </g>
     </g>
    </g>
    <g id="xtick_37">
     <g id="line2d_80">
      <g>
       <use style="stroke:#000000;stroke-width:0.6;" x="125.095474" xlink:href="#md45d1cb7e7" y="383.848"/>
      </g>
     </g>
    </g>
    <g id="xtick_38">
     <g id="line2d_81">
      <g>
       <use style="stroke:#000000;stroke-width:0.6;" x="152.142024" xlink:href="#md45d1cb7e7" y="383.848"/>
      </g>
     </g>
    </g>
    <g id="xtick_39">
     <g id="line2d_82">
      <g>
       <use style="stroke:#000000;stroke-width:0.6;" x="171.331857" xlink:href="#md45d1cb7e7" y="383.848"/>
      </g>
     </g>
    </g>
    <g id="xtick_40">
     <g id="line2d_83">
      <g>
       <use style="stroke:#000000;stroke-width:0.6;" x="186.216647" xlink:href="#md45d1cb7e7" y="383.848"/>
      </g>
     </g>
    </g>
    <g id="xtick_41">
     <g id="line2d_84">
      <g>
       <use style="stroke:#000000;stroke-width:0.6;" x="198.378407" xlink:href="#md45d1cb7e7" y="383.848"/>
      </g>
     </g>
    </g>
    <g id="xtick_42">
     <g id="line2d_85">
      <g>
       <use style="stroke:#000000;stroke-width:0.6;" x="208.661028" xlink:href="#md45d1cb7e7" y="383.848"/>
      </g>
     </g>
    </g>
    <g id="xtick_43">
     <g id="line2d_86">
      <g>
       <use style="stroke:#000000;stroke-width:0.6;" x="217.56824" xlink:href="#md45d1cb7e7" y="383.848"/>
      </g>
     </g>
    </g>
    <g id="xtick_44">
     <g id="line2d_87">
      <g>
       <use style="stroke:#000000;stroke-width:0.6;" x="225.424957" xlink:href="#md45d1cb7e7" y="383.848"/>
      </g>
     </g>
    </g>
    <g id="xtick_45">
     <g id="line2d_88">
      <g>
       <use style="stroke:#000000;stroke-width:0.6;" x="278.689413" xlink:href="#md45d1cb7e7" y="383.848"/>
      </g>
     </g>
    </g>
    <g id="xtick_46">
     <g id="line2d_89">
      <g>
       <use style="stroke:#000000;stroke-width:0.6;" x="305.735963" xlink:href="#md45d1cb7e7" y="383.848"/>
      </g>
     </g>
    </g>
    <g id="xtick_47">
     <g id="line2d_90">
      <g>
       <use style="stroke:#000000;stroke-width:0.6;" x="324.925796" xlink:href="#md45d1cb7e7" y="383.848"/>
      </g>
     </g>
    </g>
    <g id="xtick_48">
     <g id="line2d_91">
      <g>
       <use style="stroke:#000000;stroke-width:0.6;" x="339.810587" xlink:href="#md45d1cb7e7" y="383.848"/>
      </g>
     </g>
    </g>
    <g id="xtick_49">
     <g id="line2d_92">
      <g>
       <use style="stroke:#000000;stroke-width:0.6;" x="351.972346" xlink:href="#md45d1cb7e7" y="383.848"/>
      </g>
     </g>
    </g>
    <g id="xtick_50">
     <g id="line2d_93">
      <g>
       <use style="stroke:#000000;stroke-width:0.6;" x="362.254967" xlink:href="#md45d1cb7e7" y="383.848"/>
      </g>
     </g>
    </g>
    <g id="xtick_51">
     <g id="line2d_94">
      <g>
       <use style="stroke:#000000;stroke-width:0.6;" x="371.162179" xlink:href="#md45d1cb7e7" y="383.848"/>
      </g>
     </g>
    </g>
    <g id="xtick_52">
     <g id="line2d_95">
      <g>
       <use style="stroke:#000000;stroke-width:0.6;" x="379.018896" xlink:href="#md45d1cb7e7" y="383.848"/>
      </g>
     </g>
    </g>
    <g id="xtick_53">
     <g id="line2d_96">
      <g>
       <use style="stroke:#000000;stroke-width:0.6;" x="432.283353" xlink:href="#md45d1cb7e7" y="383.848"/>
      </g>
     </g>
    </g>
    <g id="xtick_54">
     <g id="line2d_97">
      <g>
       <use style="stroke:#000000;stroke-width:0.6;" x="459.329903" xlink:href="#md45d1cb7e7" y="383.848"/>
      </g>
     </g>
    </g>
    <g id="xtick_55">
     <g id="line2d_98">
      <g>
       <use style="stroke:#000000;stroke-width:0.6;" x="478.519736" xlink:href="#md45d1cb7e7" y="383.848"/>
      </g>
     </g>
    </g>
    <g id="xtick_56">
     <g id="line2d_99">
      <g>
       <use style="stroke:#000000;stroke-width:0.6;" x="493.404526" xlink:href="#md45d1cb7e7" y="383.848"/>
      </g>
     </g>
    </g>
    <g id="xtick_57">
     <g id="line2d_100">
      <g>
       <use style="stroke:#000000;stroke-width:0.6;" x="505.566286" xlink:href="#md45d1cb7e7" y="383.848"/>
      </g>
     </g>
    </g>
    <g id="xtick_58">
     <g id="line2d_101">
      <g>
       <use style="stroke:#000000;stroke-width:0.6;" x="515.848907" xlink:href="#md45d1cb7e7" y="383.848"/>
      </g>
     </g>
    </g>
    <g id="xtick_59">
     <g id="line2d_102">
      <g>
       <use style="stroke:#000000;stroke-width:0.6;" x="524.756118" xlink:href="#md45d1cb7e7" y="383.848"/>
      </g>
     </g>
    </g>
    <g id="xtick_60">
     <g id="line2d_103">
      <g>
       <use style="stroke:#000000;stroke-width:0.6;" x="532.612836" xlink:href="#md45d1cb7e7" y="383.848"/>
      </g>
     </g>
    </g>
    <g id="text_20">
     <!-- $\bf{Frequency}$ (Hz) -->
     <defs>
      <path d="M 9.1875 72.90625 
L 59.90625 72.90625 
L 59.90625 58.6875 
L 27.984375 58.6875 
L 27.984375 45.125 
L 58.015625 45.125 
L 58.015625 30.90625 
L 27.984375 30.90625 
L 27.984375 0 
L 9.1875 0 
z
" id="DejaVuSans-Bold-70"/>
      <path d="M 49.03125 39.796875 
Q 46.734375 40.875 44.453125 41.375 
Q 42.1875 41.890625 39.890625 41.890625 
Q 33.15625 41.890625 29.515625 37.5625 
Q 25.875 33.25 25.875 25.203125 
L 25.875 0 
L 8.40625 0 
L 8.40625 54.6875 
L 25.875 54.6875 
L 25.875 45.703125 
Q 29.25 51.078125 33.609375 53.53125 
Q 37.984375 56 44.09375 56 
Q 44.96875 56 45.984375 55.921875 
Q 47.015625 55.859375 48.96875 55.609375 
z
" id="DejaVuSans-Bold-114"/>
      <path d="M 34.078125 43.3125 
Q 28.515625 43.3125 25.5625 39.203125 
Q 22.609375 35.109375 22.609375 27.296875 
Q 22.609375 19.484375 25.5625 15.375 
Q 28.515625 11.28125 34.078125 11.28125 
Q 39.703125 11.28125 42.65625 15.375 
Q 45.609375 19.484375 45.609375 27.296875 
Q 45.609375 35.109375 42.65625 39.203125 
Q 39.703125 43.3125 34.078125 43.3125 
z
M 45.609375 7.90625 
Q 42 3.078125 37.640625 0.828125 
Q 33.296875 -1.421875 27.59375 -1.421875 
Q 17.484375 -1.421875 10.984375 6.609375 
Q 4.5 14.65625 4.5 27.296875 
Q 4.5 39.9375 10.984375 47.921875 
Q 17.484375 55.90625 27.59375 55.90625 
Q 33.296875 55.90625 37.640625 53.65625 
Q 42 51.421875 45.609375 46.578125 
L 45.609375 54.6875 
L 63.1875 54.6875 
L 63.1875 -20.796875 
L 45.609375 -20.796875 
z
" id="DejaVuSans-Bold-113"/>
      <path d="M 52.59375 52.984375 
L 52.59375 38.71875 
Q 49.03125 41.15625 45.4375 42.328125 
Q 41.84375 43.5 37.984375 43.5 
Q 30.671875 43.5 26.59375 39.234375 
Q 22.515625 34.96875 22.515625 27.296875 
Q 22.515625 19.625 26.59375 15.34375 
Q 30.671875 11.078125 37.984375 11.078125 
Q 42.09375 11.078125 45.78125 12.296875 
Q 49.46875 13.53125 52.59375 15.921875 
L 52.59375 1.609375 
Q 48.484375 0.09375 44.265625 -0.65625 
Q 40.046875 -1.421875 35.796875 -1.421875 
Q 21 -1.421875 12.640625 6.171875 
Q 4.296875 13.765625 4.296875 27.296875 
Q 4.296875 40.828125 12.640625 48.40625 
Q 21 56 35.796875 56 
Q 40.09375 56 44.265625 55.25 
Q 48.4375 54.5 52.59375 52.984375 
z
" id="DejaVuSans-Bold-99"/>
      <path d="M 1.21875 54.6875 
L 18.703125 54.6875 
L 33.40625 17.578125 
L 45.90625 54.6875 
L 63.375 54.6875 
L 40.375 -5.171875 
Q 36.921875 -14.3125 32.296875 -17.9375 
Q 27.6875 -21.578125 20.125 -21.578125 
L 10.015625 -21.578125 
L 10.015625 -10.109375 
L 15.484375 -10.109375 
Q 19.921875 -10.109375 21.9375 -8.6875 
Q 23.96875 -7.28125 25.09375 -3.609375 
L 25.59375 -2.09375 
z
" id="DejaVuSans-Bold-121"/>
      <path d="M 9.8125 72.90625 
L 19.671875 72.90625 
L 19.671875 43.015625 
L 55.515625 43.015625 
L 55.515625 72.90625 
L 65.375 72.90625 
L 65.375 0 
L 55.515625 0 
L 55.515625 34.71875 
L 19.671875 34.71875 
L 19.671875 0 
L 9.8125 0 
z
" id="DejaVuSans-72"/>
      <path d="M 5.515625 54.6875 
L 48.1875 54.6875 
L 48.1875 46.484375 
L 14.40625 7.171875 
L 48.1875 7.171875 
L 48.1875 0 
L 4.296875 0 
L 4.296875 8.203125 
L 38.09375 47.515625 
L 5.515625 47.515625 
z
" id="DejaVuSans-122"/>
     </defs>
     <g transform="translate(267.75 412.126125)scale(0.1 -0.1)">
      <use transform="translate(0 0.125)" xlink:href="#DejaVuSans-Bold-70"/>
      <use transform="translate(68.310547 0.125)" xlink:href="#DejaVuSans-Bold-114"/>
      <use transform="translate(117.626953 0.125)" xlink:href="#DejaVuSans-Bold-101"/>
      <use transform="translate(185.449219 0.125)" xlink:href="#DejaVuSans-Bold-113"/>
      <use transform="translate(257.03125 0.125)" xlink:href="#DejaVuSans-Bold-117"/>
      <use transform="translate(328.222656 0.125)" xlink:href="#DejaVuSans-Bold-101"/>
      <use transform="translate(396.044922 0.125)" xlink:href="#DejaVuSans-Bold-110"/>
      <use transform="translate(467.236328 0.125)" xlink:href="#DejaVuSans-Bold-99"/>
      <use transform="translate(526.513672 0.125)" xlink:href="#DejaVuSans-Bold-121"/>
      <use transform="translate(591.699219 0.125)" xlink:href="#DejaVuSans-32"/>
      <use transform="translate(623.486328 0.125)" xlink:href="#DejaVuSans-40"/>
      <use transform="translate(662.5 0.125)" xlink:href="#DejaVuSans-72"/>
      <use transform="translate(737.695312 0.125)" xlink:href="#DejaVuSans-122"/>
      <use transform="translate(790.185547 0.125)" xlink:href="#DejaVuSans-41"/>
     </g>
    </g>
   </g>
   <g id="matplotlib.axis_4">
    <g id="ytick_18">
     <g id="line2d_104">
      <path clip-path="url(#p619131e6ba)" d="M 55.82 371.448205 
L 562.68 371.448205 
" style="fill:none;stroke:#b0b0b0;stroke-linecap:square;stroke-width:0.8;"/>
     </g>
     <g id="line2d_105">
      <g>
       <use style="stroke:#000000;stroke-width:0.8;" x="55.82" xlink:href="#m9d36b4c368" y="371.448205"/>
      </g>
     </g>
     <g id="text_21">
      <!-- −60 -->
      <g transform="translate(27.715313 375.247424)scale(0.1 -0.1)">
       <use xlink:href="#DejaVuSans-8722"/>
       <use x="83.789062" xlink:href="#DejaVuSans-54"/>
       <use x="147.412109" xlink:href="#DejaVuSans-48"/>
      </g>
     </g>
    </g>
    <g id="ytick_19">
     <g id="line2d_106">
      <path clip-path="url(#p619131e6ba)" d="M 55.82 352.828822 
L 562.68 352.828822 
" style="fill:none;stroke:#b0b0b0;stroke-linecap:square;stroke-width:0.8;"/>
     </g>
     <g id="line2d_107">
      <g>
       <use style="stroke:#000000;stroke-width:0.8;" x="55.82" xlink:href="#m9d36b4c368" y="352.828822"/>
      </g>
     </g>
     <g id="text_22">
      <!-- −30 -->
      <defs>
       <path d="M 40.578125 39.3125 
Q 47.65625 37.796875 51.625 33 
Q 55.609375 28.21875 55.609375 21.1875 
Q 55.609375 10.40625 48.1875 4.484375 
Q 40.765625 -1.421875 27.09375 -1.421875 
Q 22.515625 -1.421875 17.65625 -0.515625 
Q 12.796875 0.390625 7.625 2.203125 
L 7.625 11.71875 
Q 11.71875 9.328125 16.59375 8.109375 
Q 21.484375 6.890625 26.8125 6.890625 
Q 36.078125 6.890625 40.9375 10.546875 
Q 45.796875 14.203125 45.796875 21.1875 
Q 45.796875 27.640625 41.28125 31.265625 
Q 36.765625 34.90625 28.71875 34.90625 
L 20.21875 34.90625 
L 20.21875 43.015625 
L 29.109375 43.015625 
Q 36.375 43.015625 40.234375 45.921875 
Q 44.09375 48.828125 44.09375 54.296875 
Q 44.09375 59.90625 40.109375 62.90625 
Q 36.140625 65.921875 28.71875 65.921875 
Q 24.65625 65.921875 20.015625 65.03125 
Q 15.375 64.15625 9.8125 62.3125 
L 9.8125 71.09375 
Q 15.4375 72.65625 20.34375 73.4375 
Q 25.25 74.21875 29.59375 74.21875 
Q 40.828125 74.21875 47.359375 69.109375 
Q 53.90625 64.015625 53.90625 55.328125 
Q 53.90625 49.265625 50.4375 45.09375 
Q 46.96875 40.921875 40.578125 39.3125 
z
" id="DejaVuSans-51"/>
      </defs>
      <g transform="translate(27.715313 356.628041)scale(0.1 -0.1)">
       <use xlink:href="#DejaVuSans-8722"/>
       <use x="83.789062" xlink:href="#DejaVuSans-51"/>
       <use x="147.412109" xlink:href="#DejaVuSans-48"/>
      </g>
     </g>
    </g>
    <g id="ytick_20">
     <g id="line2d_108">
      <path clip-path="url(#p619131e6ba)" d="M 55.82 334.209439 
L 562.68 334.209439 
" style="fill:none;stroke:#b0b0b0;stroke-linecap:square;stroke-width:0.8;"/>
     </g>
     <g id="line2d_109">
      <g>
       <use style="stroke:#000000;stroke-width:0.8;" x="55.82" xlink:href="#m9d36b4c368" y="334.209439"/>
      </g>
     </g>
     <g id="text_23">
      <!-- 0 -->
      <g transform="translate(42.4575 338.008658)scale(0.1 -0.1)">
       <use xlink:href="#DejaVuSans-48"/>
      </g>
     </g>
    </g>
    <g id="ytick_21">
     <g id="line2d_110">
      <path clip-path="url(#p619131e6ba)" d="M 55.82 315.590056 
L 562.68 315.590056 
" style="fill:none;stroke:#b0b0b0;stroke-linecap:square;stroke-width:0.8;"/>
     </g>
     <g id="line2d_111">
      <g>
       <use style="stroke:#000000;stroke-width:0.8;" x="55.82" xlink:href="#m9d36b4c368" y="315.590056"/>
      </g>
     </g>
     <g id="text_24">
      <!-- 30 -->
      <g transform="translate(36.095 319.389275)scale(0.1 -0.1)">
       <use xlink:href="#DejaVuSans-51"/>
       <use x="63.623047" xlink:href="#DejaVuSans-48"/>
      </g>
     </g>
    </g>
    <g id="ytick_22">
     <g id="line2d_112">
      <path clip-path="url(#p619131e6ba)" d="M 55.82 296.970673 
L 562.68 296.970673 
" style="fill:none;stroke:#b0b0b0;stroke-linecap:square;stroke-width:0.8;"/>
     </g>
     <g id="line2d_113">
      <g>
       <use style="stroke:#000000;stroke-width:0.8;" x="55.82" xlink:href="#m9d36b4c368" y="296.970673"/>
      </g>
     </g>
     <g id="text_25">
      <!-- 60 -->
      <g transform="translate(36.095 300.769892)scale(0.1 -0.1)">
       <use xlink:href="#DejaVuSans-54"/>
       <use x="63.623047" xlink:href="#DejaVuSans-48"/>
      </g>
     </g>
    </g>
    <g id="ytick_23">
     <g id="line2d_114">
      <path clip-path="url(#p619131e6ba)" d="M 55.82 278.35129 
L 562.68 278.35129 
" style="fill:none;stroke:#b0b0b0;stroke-linecap:square;stroke-width:0.8;"/>
     </g>
     <g id="line2d_115">
      <g>
       <use style="stroke:#000000;stroke-width:0.8;" x="55.82" xlink:href="#m9d36b4c368" y="278.35129"/>
      </g>
     </g>
     <g id="text_26">
      <!-- 90 -->
      <defs>
       <path d="M 10.984375 1.515625 
L 10.984375 10.5 
Q 14.703125 8.734375 18.5 7.8125 
Q 22.3125 6.890625 25.984375 6.890625 
Q 35.75 6.890625 40.890625 13.453125 
Q 46.046875 20.015625 46.78125 33.40625 
Q 43.953125 29.203125 39.59375 26.953125 
Q 35.25 24.703125 29.984375 24.703125 
Q 19.046875 24.703125 12.671875 31.3125 
Q 6.296875 37.9375 6.296875 49.421875 
Q 6.296875 60.640625 12.9375 67.421875 
Q 19.578125 74.21875 30.609375 74.21875 
Q 43.265625 74.21875 49.921875 64.515625 
Q 56.59375 54.828125 56.59375 36.375 
Q 56.59375 19.140625 48.40625 8.859375 
Q 40.234375 -1.421875 26.421875 -1.421875 
Q 22.703125 -1.421875 18.890625 -0.6875 
Q 15.09375 0.046875 10.984375 1.515625 
z
M 30.609375 32.421875 
Q 37.25 32.421875 41.125 36.953125 
Q 45.015625 41.5 45.015625 49.421875 
Q 45.015625 57.28125 41.125 61.84375 
Q 37.25 66.40625 30.609375 66.40625 
Q 23.96875 66.40625 20.09375 61.84375 
Q 16.21875 57.28125 16.21875 49.421875 
Q 16.21875 41.5 20.09375 36.953125 
Q 23.96875 32.421875 30.609375 32.421875 
z
" id="DejaVuSans-57"/>
      </defs>
      <g transform="translate(36.095 282.150509)scale(0.1 -0.1)">
       <use xlink:href="#DejaVuSans-57"/>
       <use x="63.623047" xlink:href="#DejaVuSans-48"/>
      </g>
     </g>
    </g>
    <g id="ytick_24">
     <g id="line2d_116">
      <path clip-path="url(#p619131e6ba)" d="M 55.82 259.731907 
L 562.68 259.731907 
" style="fill:none;stroke:#b0b0b0;stroke-linecap:square;stroke-width:0.8;"/>
     </g>
     <g id="line2d_117">
      <g>
       <use style="stroke:#000000;stroke-width:0.8;" x="55.82" xlink:href="#m9d36b4c368" y="259.731907"/>
      </g>
     </g>
     <g id="text_27">
      <!-- 120 -->
      <g transform="translate(29.7325 263.531126)scale(0.1 -0.1)">
       <use xlink:href="#DejaVuSans-49"/>
       <use x="63.623047" xlink:href="#DejaVuSans-50"/>
       <use x="127.246094" xlink:href="#DejaVuSans-48"/>
      </g>
     </g>
    </g>
    <g id="ytick_25">
     <g id="line2d_118">
      <path clip-path="url(#p619131e6ba)" d="M 55.82 241.112525 
L 562.68 241.112525 
" style="fill:none;stroke:#b0b0b0;stroke-linecap:square;stroke-width:0.8;"/>
     </g>
     <g id="line2d_119">
      <g>
       <use style="stroke:#000000;stroke-width:0.8;" x="55.82" xlink:href="#m9d36b4c368" y="241.112525"/>
      </g>
     </g>
     <g id="text_28">
      <!-- 150 -->
      <g transform="translate(29.7325 244.911743)scale(0.1 -0.1)">
       <use xlink:href="#DejaVuSans-49"/>
       <use x="63.623047" xlink:href="#DejaVuSans-53"/>
       <use x="127.246094" xlink:href="#DejaVuSans-48"/>
      </g>
     </g>
    </g>
    <g id="ytick_26">
     <g id="line2d_120">
      <path clip-path="url(#p619131e6ba)" d="M 55.82 222.493142 
L 562.68 222.493142 
" style="fill:none;stroke:#b0b0b0;stroke-linecap:square;stroke-width:0.8;"/>
     </g>
     <g id="line2d_121">
      <g>
       <use style="stroke:#000000;stroke-width:0.8;" x="55.82" xlink:href="#m9d36b4c368" y="222.493142"/>
      </g>
     </g>
     <g id="text_29">
      <!-- 180 -->
      <g transform="translate(29.7325 226.29236)scale(0.1 -0.1)">
       <use xlink:href="#DejaVuSans-49"/>
       <use x="63.623047" xlink:href="#DejaVuSans-56"/>
       <use x="127.246094" xlink:href="#DejaVuSans-48"/>
      </g>
     </g>
    </g>
    <g id="ytick_27">
     <g id="line2d_122">
      <g>
       <use style="stroke:#000000;stroke-width:0.6;" x="55.82" xlink:href="#ma4a317a5ba" y="380.757897"/>
      </g>
     </g>
    </g>
    <g id="ytick_28">
     <g id="line2d_123">
      <g>
       <use style="stroke:#000000;stroke-width:0.6;" x="55.82" xlink:href="#ma4a317a5ba" y="371.448205"/>
      </g>
     </g>
    </g>
    <g id="ytick_29">
     <g id="line2d_124">
      <g>
       <use style="stroke:#000000;stroke-width:0.6;" x="55.82" xlink:href="#ma4a317a5ba" y="362.138514"/>
      </g>
     </g>
    </g>
    <g id="ytick_30">
     <g id="line2d_125">
      <g>
       <use style="stroke:#000000;stroke-width:0.6;" x="55.82" xlink:href="#ma4a317a5ba" y="352.828822"/>
      </g>
     </g>
    </g>
    <g id="ytick_31">
     <g id="line2d_126">
      <g>
       <use style="stroke:#000000;stroke-width:0.6;" x="55.82" xlink:href="#ma4a317a5ba" y="343.519131"/>
      </g>
     </g>
    </g>
    <g id="ytick_32">
     <g id="line2d_127">
      <g>
       <use style="stroke:#000000;stroke-width:0.6;" x="55.82" xlink:href="#ma4a317a5ba" y="334.209439"/>
      </g>
     </g>
    </g>
    <g id="ytick_33">
     <g id="line2d_128">
      <g>
       <use style="stroke:#000000;stroke-width:0.6;" x="55.82" xlink:href="#ma4a317a5ba" y="324.899748"/>
      </g>
     </g>
    </g>
    <g id="ytick_34">
     <g id="line2d_129">
      <g>
       <use style="stroke:#000000;stroke-width:0.6;" x="55.82" xlink:href="#ma4a317a5ba" y="315.590056"/>
      </g>
     </g>
    </g>
    <g id="ytick_35">
     <g id="line2d_130">
      <g>
       <use style="stroke:#000000;stroke-width:0.6;" x="55.82" xlink:href="#ma4a317a5ba" y="306.280365"/>
      </g>
     </g>
    </g>
    <g id="ytick_36">
     <g id="line2d_131">
      <g>
       <use style="stroke:#000000;stroke-width:0.6;" x="55.82" xlink:href="#ma4a317a5ba" y="296.970673"/>
      </g>
     </g>
    </g>
    <g id="ytick_37">
     <g id="line2d_132">
      <g>
       <use style="stroke:#000000;stroke-width:0.6;" x="55.82" xlink:href="#ma4a317a5ba" y="287.660982"/>
      </g>
     </g>
    </g>
    <g id="ytick_38">
     <g id="line2d_133">
      <g>
       <use style="stroke:#000000;stroke-width:0.6;" x="55.82" xlink:href="#ma4a317a5ba" y="278.35129"/>
      </g>
     </g>
    </g>
    <g id="ytick_39">
     <g id="line2d_134">
      <g>
       <use style="stroke:#000000;stroke-width:0.6;" x="55.82" xlink:href="#ma4a317a5ba" y="269.041599"/>
      </g>
     </g>
    </g>
    <g id="ytick_40">
     <g id="line2d_135">
      <g>
       <use style="stroke:#000000;stroke-width:0.6;" x="55.82" xlink:href="#ma4a317a5ba" y="259.731907"/>
      </g>
     </g>
    </g>
    <g id="ytick_41">
     <g id="line2d_136">
      <g>
       <use style="stroke:#000000;stroke-width:0.6;" x="55.82" xlink:href="#ma4a317a5ba" y="250.422216"/>
      </g>
     </g>
    </g>
    <g id="ytick_42">
     <g id="line2d_137">
      <g>
       <use style="stroke:#000000;stroke-width:0.6;" x="55.82" xlink:href="#ma4a317a5ba" y="241.112525"/>
      </g>
     </g>
    </g>
    <g id="ytick_43">
     <g id="line2d_138">
      <g>
       <use style="stroke:#000000;stroke-width:0.6;" x="55.82" xlink:href="#ma4a317a5ba" y="231.802833"/>
      </g>
     </g>
    </g>
    <g id="ytick_44">
     <g id="line2d_139">
      <g>
       <use style="stroke:#000000;stroke-width:0.6;" x="55.82" xlink:href="#ma4a317a5ba" y="222.493142"/>
      </g>
     </g>
    </g>
    <g id="text_30">
     <!-- $\bf{Phase}$ ($\degree$) -->
     <defs>
      <path d="M 9.1875 72.90625 
L 40.375 72.90625 
Q 54.296875 72.90625 61.734375 66.71875 
Q 69.1875 60.546875 69.1875 49.125 
Q 69.1875 37.640625 61.734375 31.46875 
Q 54.296875 25.296875 40.375 25.296875 
L 27.984375 25.296875 
L 27.984375 0 
L 9.1875 0 
z
M 27.984375 59.28125 
L 27.984375 38.921875 
L 38.375 38.921875 
Q 43.84375 38.921875 46.828125 41.578125 
Q 49.8125 44.234375 49.8125 49.125 
Q 49.8125 54 46.828125 56.640625 
Q 43.84375 59.28125 38.375 59.28125 
z
" id="DejaVuSans-Bold-80"/>
      <path d="M 63.375 33.296875 
L 63.375 0 
L 45.796875 0 
L 45.796875 5.421875 
L 45.796875 25.390625 
Q 45.796875 32.5625 45.484375 35.25 
Q 45.171875 37.9375 44.390625 39.203125 
Q 43.359375 40.921875 41.59375 41.875 
Q 39.84375 42.828125 37.59375 42.828125 
Q 32.125 42.828125 29 38.59375 
Q 25.875 34.375 25.875 26.90625 
L 25.875 0 
L 8.40625 0 
L 8.40625 75.984375 
L 25.875 75.984375 
L 25.875 46.6875 
Q 29.828125 51.46875 34.265625 53.734375 
Q 38.71875 56 44.09375 56 
Q 53.5625 56 58.46875 50.1875 
Q 63.375 44.390625 63.375 33.296875 
z
" id="DejaVuSans-Bold-104"/>
      <path d="M 51.125 52.984375 
L 51.125 39.703125 
Q 45.515625 42.046875 40.28125 43.21875 
Q 35.0625 44.390625 30.421875 44.390625 
Q 25.4375 44.390625 23.015625 43.140625 
Q 20.609375 41.890625 20.609375 39.3125 
Q 20.609375 37.203125 22.4375 36.078125 
Q 24.265625 34.96875 29 34.421875 
L 32.078125 33.984375 
Q 45.515625 32.28125 50.140625 28.375 
Q 54.78125 24.46875 54.78125 16.109375 
Q 54.78125 7.375 48.328125 2.96875 
Q 41.890625 -1.421875 29.109375 -1.421875 
Q 23.6875 -1.421875 17.890625 -0.5625 
Q 12.109375 0.296875 6 2 
L 6 15.28125 
Q 11.234375 12.75 16.71875 11.46875 
Q 22.21875 10.203125 27.875 10.203125 
Q 33.015625 10.203125 35.59375 11.609375 
Q 38.1875 13.03125 38.1875 15.828125 
Q 38.1875 18.171875 36.40625 19.3125 
Q 34.625 20.453125 29.296875 21.09375 
L 26.21875 21.484375 
Q 14.546875 22.953125 9.859375 26.90625 
Q 5.171875 30.859375 5.171875 38.921875 
Q 5.171875 47.609375 11.125 51.796875 
Q 17.09375 56 29.390625 56 
Q 34.234375 56 39.546875 55.265625 
Q 44.875 54.546875 51.125 52.984375 
z
" id="DejaVuSans-Bold-115"/>
      <path d="M 25 67.921875 
Q 21.09375 67.921875 18.40625 65.203125 
Q 15.71875 62.5 15.71875 58.59375 
Q 15.71875 54.734375 18.40625 52.078125 
Q 21.09375 49.421875 25 49.421875 
Q 28.90625 49.421875 31.59375 52.078125 
Q 34.28125 54.734375 34.28125 58.59375 
Q 34.28125 62.453125 31.5625 65.1875 
Q 28.859375 67.921875 25 67.921875 
z
M 25 74.21875 
Q 28.125 74.21875 31 73.015625 
Q 33.890625 71.828125 35.984375 69.578125 
Q 38.234375 67.390625 39.359375 64.59375 
Q 40.484375 61.8125 40.484375 58.59375 
Q 40.484375 52.15625 35.96875 47.6875 
Q 31.453125 43.21875 24.90625 43.21875 
Q 18.3125 43.21875 13.90625 47.609375 
Q 9.515625 52 9.515625 58.59375 
Q 9.515625 65.140625 14 69.671875 
Q 18.5 74.21875 25 74.21875 
z
" id="DejaVuSans-176"/>
     </defs>
     <g transform="translate(21.635625 324.644)rotate(-90)scale(0.1 -0.1)">
      <use transform="translate(0 0.015625)" xlink:href="#DejaVuSans-Bold-80"/>
      <use transform="translate(73.291016 0.015625)" xlink:href="#DejaVuSans-Bold-104"/>
      <use transform="translate(144.482422 0.015625)" xlink:href="#DejaVuSans-Bold-97"/>
      <use transform="translate(211.962891 0.015625)" xlink:href="#DejaVuSans-Bold-115"/>
      <use transform="translate(271.484375 0.015625)" xlink:href="#DejaVuSans-Bold-101"/>
      <use transform="translate(339.306641 0.015625)" xlink:href="#DejaVuSans-32"/>
      <use transform="translate(371.09375 0.015625)" xlink:href="#DejaVuSans-40"/>
      <use transform="translate(410.107422 0.015625)" xlink:href="#DejaVuSans-176"/>
      <use transform="translate(460.107422 0.015625)" xlink:href="#DejaVuSans-41"/>
     </g>
    </g>
   </g>
   <g id="line2d_140">
    <path clip-path="url(#p619131e6ba)" d="M 78.859091 223.094909 
L 83.466909 223.137989 
L 88.074727 223.18416 
L 92.682545 223.233644 
L 97.290364 223.286683 
L 101.898182 223.343533 
L 106.506 223.40447 
L 111.113818 223.469793 
L 115.721636 223.539822 
L 120.329455 223.6149 
L 124.937273 223.695399 
L 129.545091 223.781717 
L 134.152909 223.874285 
L 138.760727 223.973568 
L 143.368545 224.080069 
L 147.976364 224.194329 
L 152.584182 224.316937 
L 157.192 224.448531 
L 161.799818 224.589802 
L 166.407636 224.741506 
L 171.015455 224.904463 
L 175.623273 225.079571 
L 180.231091 225.267814 
L 184.838909 225.470272 
L 189.446727 225.688136 
L 194.054545 225.922722 
L 198.662364 226.175487 
L 203.270182 226.448056 
L 207.878 226.742245 
L 212.485818 227.06009 
L 217.093636 227.403886 
L 221.701455 227.776235 
L 226.309273 228.180093 
L 230.917091 228.618839 
L 235.524909 229.096354 
L 240.132727 229.617113 
L 244.740545 230.186298 
L 249.348364 230.809935 
L 253.956182 231.495056 
L 258.564 232.249884 
L 263.171818 233.084057 
L 267.779636 234.008873 
L 272.387455 235.037553 
L 276.995273 236.185509 
L 281.603091 237.470563 
L 286.210909 238.913057 
L 290.818727 240.535723 
L 295.426545 242.363105 
L 300.034364 244.420263 
L 304.642182 246.730371 
L 309.25 249.310818 
L 313.857818 252.16766 
L 318.465636 255.288823 
L 323.073455 258.637561 
L 327.681273 262.148881 
L 332.289091 265.732004 
L 336.896909 269.280321 
L 341.504727 272.686813 
L 346.112545 275.859735 
L 350.720364 278.733211 
L 355.328182 281.270358 
L 359.936 283.460129 
L 364.543818 285.31091 
L 369.151636 286.84364 
L 373.759455 288.086077 
L 378.367273 289.068697 
L 382.975091 289.822083 
L 387.582909 290.375435 
L 392.190727 290.755805 
L 396.798545 290.987773 
L 401.406364 291.093364 
L 406.014182 291.092056 
L 410.622 291.000842 
L 415.229818 290.834273 
L 419.837636 290.604486 
L 424.445455 290.321199 
L 429.053273 289.991657 
L 433.661091 289.620543 
L 438.268909 289.209824 
L 442.876727 288.758526 
L 447.484545 288.26243 
L 452.092364 287.713644 
L 456.700182 287.100046 
L 461.308 286.404574 
L 465.915818 285.604335 
L 470.523636 284.669576 
L 475.131455 283.562595 
L 479.739273 282.23687 
L 484.347091 280.636971 
L 488.954909 278.700386 
L 493.562727 276.363198 
L 498.170545 273.572301 
L 502.778364 270.306362 
L 507.386182 266.60367 
L 511.994 262.58574 
L 516.601818 258.456422 
L 521.209636 254.462621 
L 525.817455 250.830424 
L 530.425273 247.713226 
L 535.033091 245.176966 
L 539.640909 243.217117 
" style="fill:none;stroke:#1f77b4;stroke-linecap:square;stroke-width:1.5;"/>
   </g>
   <g id="line2d_141">
    <path clip-path="url(#p619131e6ba)" d="M 78.859091 223.443887 
L 83.466909 223.511925 
L 88.074727 223.584838 
L 92.682545 223.662977 
L 97.290364 223.746719 
L 101.898182 223.836467 
L 106.506 223.932656 
L 111.113818 224.03575 
L 115.721636 224.146251 
L 120.329455 224.264694 
L 124.937273 224.391658 
L 129.545091 224.527763 
L 134.152909 224.673676 
L 138.760727 224.830117 
L 143.368545 224.99786 
L 147.976364 225.177739 
L 152.584182 225.370654 
L 157.192 225.577576 
L 161.799818 225.799557 
L 166.407636 226.037732 
L 171.015455 226.293334 
L 175.623273 226.5677 
L 180.231091 226.862282 
L 184.838909 227.178664 
L 189.446727 227.518574 
L 194.054545 227.883902 
L 198.662364 228.276722 
L 203.270182 228.699315 
L 207.878 229.154198 
L 212.485818 229.644158 
L 217.093636 230.172291 
L 221.701455 230.742051 
L 226.309273 231.357305 
L 230.917091 232.022402 
L 235.524909 232.742254 
L 240.132727 233.522435 
L 244.740545 234.369292 
L 249.348364 235.290087 
L 253.956182 236.293161 
L 258.564 237.388122 
L 263.171818 238.586067 
L 267.779636 239.899831 
L 272.387455 241.344248 
L 276.995273 242.936416 
L 281.603091 244.695915 
L 286.210909 246.644913 
L 290.818727 248.808021 
L 295.426545 251.211716 
L 300.034364 253.883025 
L 304.642182 256.847104 
L 309.25 260.123328 
L 313.857818 263.719706 
L 318.465636 267.62606 
L 323.073455 271.807451 
L 327.681273 276.200554 
L 332.289091 280.716081 
L 336.896909 285.248689 
L 341.504727 289.692342 
L 346.112545 293.955946 
L 350.720364 297.97389 
L 355.328182 301.709129 
L 359.936 305.149983 
L 364.543818 308.303711 
L 369.151636 311.189626 
L 373.759455 313.833372 
L 378.367273 316.262864 
L 382.975091 318.505748 
L 387.582909 320.588003 
L 392.190727 322.533309 
L 396.798545 324.36287 
L 401.406364 326.095505 
L 406.014182 327.747854 
L 410.622 329.334634 
L 415.229818 330.868896 
L 419.837636 332.36227 
L 424.445455 333.82517 
L 429.053273 335.266976 
L 433.661091 336.696178 
L 438.268909 338.120493 
L 442.876727 339.546955 
L 447.484545 340.981978 
L 452.092364 342.431399 
L 456.700182 343.900505 
L 461.308 345.394035 
L 465.915818 346.91618 
L 470.523636 348.47056 
L 475.131455 350.060205 
L 479.739273 351.687524 
L 484.347091 353.354277 
L 488.954909 355.061551 
L 493.562727 356.809747 
L 498.170545 358.598579 
L 502.778364 360.427088 
L 507.386182 362.29368 
L 511.994 364.196183 
L 516.601818 366.131922 
L 521.209636 368.097816 
L 525.817455 370.090481 
L 530.425273 372.106347 
L 535.033091 374.14176 
L 539.640909 376.193091 
" style="fill:none;stroke:#ff7f0e;stroke-linecap:square;stroke-width:1.5;"/>
   </g>
   <g id="line2d_142">
    <path clip-path="url(#p619131e6ba)" d="M 78.859091 223.443887 
L 83.466909 223.511925 
L 88.074727 223.584838 
L 92.682545 223.662977 
L 97.290364 223.746719 
L 101.898182 223.836467 
L 106.506 223.932656 
L 111.113818 224.03575 
L 115.721636 224.146251 
L 120.329455 224.264694 
L 124.937273 224.391658 
L 129.545091 224.527763 
L 134.152909 224.673676 
L 138.760727 224.830117 
L 143.368545 224.99786 
L 147.976364 225.177739 
L 152.584182 225.370654 
L 157.192 225.577576 
L 161.799818 225.799557 
L 166.407636 226.037732 
L 171.015455 226.293334 
L 175.623273 226.5677 
L 180.231091 226.862282 
L 184.838909 227.178664 
L 189.446727 227.518574 
L 194.054545 227.883902 
L 198.662364 228.276722 
L 203.270182 228.699315 
L 207.878 229.154198 
L 212.485818 229.644158 
L 217.093636 230.172291 
L 221.701455 230.742051 
L 226.309273 231.357305 
L 230.917091 232.022402 
L 235.524909 232.742254 
L 240.132727 233.522435 
L 244.740545 234.369292 
L 249.348364 235.290087 
L 253.956182 236.293161 
L 258.564 237.388122 
L 263.171818 238.586067 
L 267.779636 239.899831 
L 272.387455 241.344248 
L 276.995273 242.936416 
L 281.603091 244.695915 
L 286.210909 246.644913 
L 290.818727 248.808021 
L 295.426545 251.211716 
L 300.034364 253.883025 
L 304.642182 256.847104 
L 309.25 260.123328 
L 313.857818 263.719706 
L 318.465636 267.62606 
L 323.073455 271.807451 
L 327.681273 276.200554 
L 332.289091 280.716081 
L 336.896909 285.248689 
L 341.504727 289.692342 
L 346.112545 293.955946 
L 350.720364 297.97389 
L 355.328182 301.709129 
L 359.936 305.149983 
L 364.543818 308.303711 
L 369.151636 311.189626 
L 373.759455 313.833372 
L 378.367273 316.262864 
L 382.975091 318.505748 
L 387.582909 320.588003 
L 392.190727 322.533309 
L 396.798545 324.36287 
L 401.406364 326.095505 
L 406.014182 327.747854 
L 410.622 329.334634 
L 415.229818 330.868896 
L 419.837636 332.36227 
L 424.445455 333.82517 
L 429.053273 335.266976 
L 433.661091 336.696178 
L 438.268909 338.120493 
L 442.876727 339.546955 
L 447.484545 340.981978 
L 452.092364 342.431399 
L 456.700182 343.900505 
L 461.308 345.394035 
L 465.915818 346.91618 
L 470.523636 348.47056 
L 475.131455 350.060205 
L 479.739273 351.687524 
L 484.347091 353.354277 
L 488.954909 355.061551 
L 493.562727 356.809747 
L 498.170545 358.598579 
L 502.778364 360.427088 
L 507.386182 362.29368 
L 511.994 364.196183 
L 516.601818 366.131922 
L 521.209636 368.097816 
L 525.817455 370.090481 
L 530.425273 372.106347 
L 535.033091 374.14176 
L 539.640909 376.193091 
" style="fill:none;stroke:#2ca02c;stroke-dasharray:5.55,2.4;stroke-dashoffset:0;stroke-width:1.5;"/>
   </g>
   <g id="line2d_143">
    <path clip-path="url(#p619131e6ba)" d="M 78.859091 223.094909 
L 83.466909 223.137989 
L 88.074727 223.18416 
L 92.682545 223.233644 
L 97.290364 223.286683 
L 101.898182 223.343533 
L 106.506 223.40447 
L 111.113818 223.469793 
L 115.721636 223.539822 
L 120.329455 223.6149 
L 124.937273 223.695399 
L 129.545091 223.781717 
L 134.152909 223.874285 
L 138.760727 223.973568 
L 143.368545 224.080069 
L 147.976364 224.194329 
L 152.584182 224.316937 
L 157.192 224.448531 
L 161.799818 224.589802 
L 166.407636 224.741506 
L 171.015455 224.904463 
L 175.623273 225.079571 
L 180.231091 225.267814 
L 184.838909 225.470272 
L 189.446727 225.688136 
L 194.054545 225.922722 
L 198.662364 226.175487 
L 203.270182 226.448056 
L 207.878 226.742245 
L 212.485818 227.06009 
L 217.093636 227.403886 
L 221.701455 227.776235 
L 226.309273 228.180093 
L 230.917091 228.618839 
L 235.524909 229.096354 
L 240.132727 229.617113 
L 244.740545 230.186298 
L 249.348364 230.809935 
L 253.956182 231.495056 
L 258.564 232.249884 
L 263.171818 233.084058 
L 267.779636 234.008873 
L 272.387455 235.037553 
L 276.995273 236.185509 
L 281.603091 237.470563 
L 286.210909 238.913057 
L 290.818727 240.535723 
L 295.426545 242.363105 
L 300.034364 244.420263 
L 304.642182 246.730371 
L 309.25 249.310818 
L 313.857818 252.16766 
L 318.465636 255.288823 
L 323.073455 258.637561 
L 327.681273 262.148881 
L 332.289091 265.732004 
L 336.896909 269.280321 
L 341.504727 272.686813 
L 346.112545 275.859735 
L 350.720364 278.733211 
L 355.328182 281.270358 
L 359.936 283.460129 
L 364.543818 285.31091 
L 369.151636 286.84364 
L 373.759455 288.086077 
L 378.367273 289.068697 
L 382.975091 289.822083 
L 387.582909 290.375435 
L 392.190727 290.755805 
L 396.798545 290.987773 
L 401.406364 291.093364 
L 406.014182 291.092056 
L 410.622 291.000842 
L 415.229818 290.834273 
L 419.837636 290.604486 
L 424.445455 290.321199 
L 429.053273 289.991657 
L 433.661091 289.620543 
L 438.268909 289.209824 
L 442.876727 288.758526 
L 447.484545 288.26243 
L 452.092364 287.713644 
L 456.700182 287.100046 
L 461.308 286.404574 
L 465.915818 285.604335 
L 470.523636 284.669576 
L 475.131455 283.562595 
L 479.739273 282.23687 
L 484.347091 280.636971 
L 488.954909 278.700386 
L 493.562727 276.363198 
L 498.170545 273.572301 
L 502.778364 270.306362 
L 507.386182 266.60367 
L 511.994 262.58574 
L 516.601818 258.456422 
L 521.209636 254.462621 
L 525.817455 250.830424 
L 530.425273 247.713226 
L 535.033091 245.176966 
L 539.640909 243.217117 
" style="fill:none;stroke:#d62728;stroke-dasharray:5.55,2.4;stroke-dashoffset:0;stroke-width:1.5;"/>
   </g>
   <g id="patch_9">
    <path d="M 55.82 383.848 
L 55.82 215.44 
" style="fill:none;stroke:#000000;stroke-linecap:square;stroke-linejoin:miter;stroke-width:0.8;"/>
   </g>
   <g id="patch_10">
    <path d="M 562.68 383.848 
L 562.68 215.44 
" style="fill:none;stroke:#000000;stroke-linecap:square;stroke-linejoin:miter;stroke-width:0.8;"/>
   </g>
   <g id="patch_11">
    <path d="M 55.82 383.848 
L 562.68 383.848 
" style="fill:none;stroke:#000000;stroke-linecap:square;stroke-linejoin:miter;stroke-width:0.8;"/>
   </g>
   <g id="patch_12">
    <path d="M 55.82 215.44 
L 562.68 215.44 
" style="fill:none;stroke:#000000;stroke-linecap:square;stroke-linejoin:miter;stroke-width:0.8;"/>
   </g>
  </g>
 </g>
 <defs>
  <clipPath id="pb90385f67f">
   <rect height="168.408" width="506.86" x="55.82" y="13.32"/>
  </clipPath>
  <clipPath id="p619131e6ba">
   <rect height="168.408" width="506.86" x="55.82" y="215.44"/>
  </clipPath>
 </defs>
</svg>
