<?xml version="1.0" encoding="utf-8" standalone="no"?>
<!DOCTYPE svg PUBLIC "-//W3C//DTD SVG 1.1//EN"
  "http://www.w3.org/Graphics/SVG/1.1/DTD/svg11.dtd">
<!-- Created with matplotlib (https://matplotlib.org/) -->
<svg height="432pt" version="1.1" viewBox="0 0 576 432" width="576pt" xmlns="http://www.w3.org/2000/svg" xmlns:xlink="http://www.w3.org/1999/xlink">
 <defs>
  <style type="text/css">
*{stroke-linecap:butt;stroke-linejoin:round;}
  </style>
 </defs>
 <g id="figure_1">
  <g id="patch_1">
   <path d="M 0 432 
L 576 432 
L 576 0 
L 0 0 
z
" style="fill:#ffffff;"/>
  </g>
  <g id="axes_1">
   <g id="patch_2">
    <path d="M 60.77 181.728 
L 562.68 181.728 
L 562.68 13.32 
L 60.77 13.32 
z
" style="fill:#ffffff;"/>
   </g>
   <g id="matplotlib.axis_1">
    <g id="xtick_1">
     <g id="line2d_1">
      <path clip-path="url(#pdacfb52f68)" d="M 83.584091 181.728 
L 83.584091 13.32 
" style="fill:none;stroke:#b0b0b0;stroke-linecap:square;stroke-width:0.8;"/>
     </g>
     <g id="line2d_2">
      <defs>
       <path d="M 0 0 
L 0 3.5 
" id="m4881a523b5" style="stroke:#000000;stroke-width:0.8;"/>
      </defs>
      <g>
       <use style="stroke:#000000;stroke-width:0.8;" x="83.584091" xlink:href="#m4881a523b5" y="181.728"/>
      </g>
     </g>
     <g id="text_1">
      <!-- $\mathdefault{10^{5}}$ -->
      <defs>
       <path d="M 12.40625 8.296875 
L 28.515625 8.296875 
L 28.515625 63.921875 
L 10.984375 60.40625 
L 10.984375 69.390625 
L 28.421875 72.90625 
L 38.28125 72.90625 
L 38.28125 8.296875 
L 54.390625 8.296875 
L 54.390625 0 
L 12.40625 0 
z
" id="DejaVuSans-49"/>
       <path d="M 31.78125 66.40625 
Q 24.171875 66.40625 20.328125 58.90625 
Q 16.5 51.421875 16.5 36.375 
Q 16.5 21.390625 20.328125 13.890625 
Q 24.171875 6.390625 31.78125 6.390625 
Q 39.453125 6.390625 43.28125 13.890625 
Q 47.125 21.390625 47.125 36.375 
Q 47.125 51.421875 43.28125 58.90625 
Q 39.453125 66.40625 31.78125 66.40625 
z
M 31.78125 74.21875 
Q 44.046875 74.21875 50.515625 64.515625 
Q 56.984375 54.828125 56.984375 36.375 
Q 56.984375 17.96875 50.515625 8.265625 
Q 44.046875 -1.421875 31.78125 -1.421875 
Q 19.53125 -1.421875 13.0625 8.265625 
Q 6.59375 17.96875 6.59375 36.375 
Q 6.59375 54.828125 13.0625 64.515625 
Q 19.53125 74.21875 31.78125 74.21875 
z
" id="DejaVuSans-48"/>
       <path d="M 10.796875 72.90625 
L 49.515625 72.90625 
L 49.515625 64.59375 
L 19.828125 64.59375 
L 19.828125 46.734375 
Q 21.96875 47.46875 24.109375 47.828125 
Q 26.265625 48.1875 28.421875 48.1875 
Q 40.625 48.1875 47.75 41.5 
Q 54.890625 34.8125 54.890625 23.390625 
Q 54.890625 11.625 47.5625 5.09375 
Q 40.234375 -1.421875 26.90625 -1.421875 
Q 22.3125 -1.421875 17.546875 -0.640625 
Q 12.796875 0.140625 7.71875 1.703125 
L 7.71875 11.625 
Q 12.109375 9.234375 16.796875 8.0625 
Q 21.484375 6.890625 26.703125 6.890625 
Q 35.15625 6.890625 40.078125 11.328125 
Q 45.015625 15.765625 45.015625 23.390625 
Q 45.015625 31 40.078125 35.4375 
Q 35.15625 39.890625 26.703125 39.890625 
Q 22.75 39.890625 18.8125 39.015625 
Q 14.890625 38.140625 10.796875 36.28125 
z
" id="DejaVuSans-53"/>
      </defs>
      <g transform="translate(74.784091 196.326438)scale(0.1 -0.1)">
       <use transform="translate(0 0.684375)" xlink:href="#DejaVuSans-49"/>
       <use transform="translate(63.623047 0.684375)" xlink:href="#DejaVuSans-48"/>
       <use transform="translate(128.203125 38.965625)scale(0.7)" xlink:href="#DejaVuSans-53"/>
      </g>
     </g>
    </g>
    <g id="xtick_2">
     <g id="line2d_3">
      <path clip-path="url(#pdacfb52f68)" d="M 235.67803 181.728 
L 235.67803 13.32 
" style="fill:none;stroke:#b0b0b0;stroke-linecap:square;stroke-width:0.8;"/>
     </g>
     <g id="line2d_4">
      <g>
       <use style="stroke:#000000;stroke-width:0.8;" x="235.67803" xlink:href="#m4881a523b5" y="181.728"/>
      </g>
     </g>
     <g id="text_2">
      <!-- $\mathdefault{10^{6}}$ -->
      <defs>
       <path d="M 33.015625 40.375 
Q 26.375 40.375 22.484375 35.828125 
Q 18.609375 31.296875 18.609375 23.390625 
Q 18.609375 15.53125 22.484375 10.953125 
Q 26.375 6.390625 33.015625 6.390625 
Q 39.65625 6.390625 43.53125 10.953125 
Q 47.40625 15.53125 47.40625 23.390625 
Q 47.40625 31.296875 43.53125 35.828125 
Q 39.65625 40.375 33.015625 40.375 
z
M 52.59375 71.296875 
L 52.59375 62.3125 
Q 48.875 64.0625 45.09375 64.984375 
Q 41.3125 65.921875 37.59375 65.921875 
Q 27.828125 65.921875 22.671875 59.328125 
Q 17.53125 52.734375 16.796875 39.40625 
Q 19.671875 43.65625 24.015625 45.921875 
Q 28.375 48.1875 33.59375 48.1875 
Q 44.578125 48.1875 50.953125 41.515625 
Q 57.328125 34.859375 57.328125 23.390625 
Q 57.328125 12.15625 50.6875 5.359375 
Q 44.046875 -1.421875 33.015625 -1.421875 
Q 20.359375 -1.421875 13.671875 8.265625 
Q 6.984375 17.96875 6.984375 36.375 
Q 6.984375 53.65625 15.1875 63.9375 
Q 23.390625 74.21875 37.203125 74.21875 
Q 40.921875 74.21875 44.703125 73.484375 
Q 48.484375 72.75 52.59375 71.296875 
z
" id="DejaVuSans-54"/>
      </defs>
      <g transform="translate(226.87803 196.326438)scale(0.1 -0.1)">
       <use transform="translate(0 0.765625)" xlink:href="#DejaVuSans-49"/>
       <use transform="translate(63.623047 0.765625)" xlink:href="#DejaVuSans-48"/>
       <use transform="translate(128.203125 39.046875)scale(0.7)" xlink:href="#DejaVuSans-54"/>
      </g>
     </g>
    </g>
    <g id="xtick_3">
     <g id="line2d_5">
      <path clip-path="url(#pdacfb52f68)" d="M 387.77197 181.728 
L 387.77197 13.32 
" style="fill:none;stroke:#b0b0b0;stroke-linecap:square;stroke-width:0.8;"/>
     </g>
     <g id="line2d_6">
      <g>
       <use style="stroke:#000000;stroke-width:0.8;" x="387.77197" xlink:href="#m4881a523b5" y="181.728"/>
      </g>
     </g>
     <g id="text_3">
      <!-- $\mathdefault{10^{7}}$ -->
      <defs>
       <path d="M 8.203125 72.90625 
L 55.078125 72.90625 
L 55.078125 68.703125 
L 28.609375 0 
L 18.3125 0 
L 43.21875 64.59375 
L 8.203125 64.59375 
z
" id="DejaVuSans-55"/>
      </defs>
      <g transform="translate(378.97197 196.326438)scale(0.1 -0.1)">
       <use transform="translate(0 0.684375)" xlink:href="#DejaVuSans-49"/>
       <use transform="translate(63.623047 0.684375)" xlink:href="#DejaVuSans-48"/>
       <use transform="translate(128.203125 38.965625)scale(0.7)" xlink:href="#DejaVuSans-55"/>
      </g>
     </g>
    </g>
    <g id="xtick_4">
     <g id="line2d_7">
      <path clip-path="url(#pdacfb52f68)" d="M 539.865909 181.728 
L 539.865909 13.32 
" style="fill:none;stroke:#b0b0b0;stroke-linecap:square;stroke-width:0.8;"/>
     </g>
     <g id="line2d_8">
      <g>
       <use style="stroke:#000000;stroke-width:0.8;" x="539.865909" xlink:href="#m4881a523b5" y="181.728"/>
      </g>
     </g>
     <g id="text_4">
      <!-- $\mathdefault{10^{8}}$ -->
      <defs>
       <path d="M 31.78125 34.625 
Q 24.75 34.625 20.71875 30.859375 
Q 16.703125 27.09375 16.703125 20.515625 
Q 16.703125 13.921875 20.71875 10.15625 
Q 24.75 6.390625 31.78125 6.390625 
Q 38.8125 6.390625 42.859375 10.171875 
Q 46.921875 13.96875 46.921875 20.515625 
Q 46.921875 27.09375 42.890625 30.859375 
Q 38.875 34.625 31.78125 34.625 
z
M 21.921875 38.8125 
Q 15.578125 40.375 12.03125 44.71875 
Q 8.5 49.078125 8.5 55.328125 
Q 8.5 64.0625 14.71875 69.140625 
Q 20.953125 74.21875 31.78125 74.21875 
Q 42.671875 74.21875 48.875 69.140625 
Q 55.078125 64.0625 55.078125 55.328125 
Q 55.078125 49.078125 51.53125 44.71875 
Q 48 40.375 41.703125 38.8125 
Q 48.828125 37.15625 52.796875 32.3125 
Q 56.78125 27.484375 56.78125 20.515625 
Q 56.78125 9.90625 50.3125 4.234375 
Q 43.84375 -1.421875 31.78125 -1.421875 
Q 19.734375 -1.421875 13.25 4.234375 
Q 6.78125 9.90625 6.78125 20.515625 
Q 6.78125 27.484375 10.78125 32.3125 
Q 14.796875 37.15625 21.921875 38.8125 
z
M 18.3125 54.390625 
Q 18.3125 48.734375 21.84375 45.5625 
Q 25.390625 42.390625 31.78125 42.390625 
Q 38.140625 42.390625 41.71875 45.5625 
Q 45.3125 48.734375 45.3125 54.390625 
Q 45.3125 60.0625 41.71875 63.234375 
Q 38.140625 66.40625 31.78125 66.40625 
Q 25.390625 66.40625 21.84375 63.234375 
Q 18.3125 60.0625 18.3125 54.390625 
z
" id="DejaVuSans-56"/>
      </defs>
      <g transform="translate(531.065909 196.326438)scale(0.1 -0.1)">
       <use transform="translate(0 0.765625)" xlink:href="#DejaVuSans-49"/>
       <use transform="translate(63.623047 0.765625)" xlink:href="#DejaVuSans-48"/>
       <use transform="translate(128.203125 39.046875)scale(0.7)" xlink:href="#DejaVuSans-56"/>
      </g>
     </g>
    </g>
    <g id="xtick_5">
     <g id="line2d_9">
      <defs>
       <path d="M 0 0 
L 0 2 
" id="mc3c77d6004" style="stroke:#000000;stroke-width:0.6;"/>
      </defs>
      <g>
       <use style="stroke:#000000;stroke-width:0.6;" x="68.844665" xlink:href="#mc3c77d6004" y="181.728"/>
      </g>
     </g>
    </g>
    <g id="xtick_6">
     <g id="line2d_10">
      <g>
       <use style="stroke:#000000;stroke-width:0.6;" x="76.624654" xlink:href="#mc3c77d6004" y="181.728"/>
      </g>
     </g>
    </g>
    <g id="xtick_7">
     <g id="line2d_11">
      <g>
       <use style="stroke:#000000;stroke-width:0.6;" x="129.368929" xlink:href="#mc3c77d6004" y="181.728"/>
      </g>
     </g>
    </g>
    <g id="xtick_8">
     <g id="line2d_12">
      <g>
       <use style="stroke:#000000;stroke-width:0.6;" x="156.151342" xlink:href="#mc3c77d6004" y="181.728"/>
      </g>
     </g>
    </g>
    <g id="xtick_9">
     <g id="line2d_13">
      <g>
       <use style="stroke:#000000;stroke-width:0.6;" x="175.153767" xlink:href="#mc3c77d6004" y="181.728"/>
      </g>
     </g>
    </g>
    <g id="xtick_10">
     <g id="line2d_14">
      <g>
       <use style="stroke:#000000;stroke-width:0.6;" x="189.893192" xlink:href="#mc3c77d6004" y="181.728"/>
      </g>
     </g>
    </g>
    <g id="xtick_11">
     <g id="line2d_15">
      <g>
       <use style="stroke:#000000;stroke-width:0.6;" x="201.93618" xlink:href="#mc3c77d6004" y="181.728"/>
      </g>
     </g>
    </g>
    <g id="xtick_12">
     <g id="line2d_16">
      <g>
       <use style="stroke:#000000;stroke-width:0.6;" x="212.118381" xlink:href="#mc3c77d6004" y="181.728"/>
      </g>
     </g>
    </g>
    <g id="xtick_13">
     <g id="line2d_17">
      <g>
       <use style="stroke:#000000;stroke-width:0.6;" x="220.938605" xlink:href="#mc3c77d6004" y="181.728"/>
      </g>
     </g>
    </g>
    <g id="xtick_14">
     <g id="line2d_18">
      <g>
       <use style="stroke:#000000;stroke-width:0.6;" x="228.718593" xlink:href="#mc3c77d6004" y="181.728"/>
      </g>
     </g>
    </g>
    <g id="xtick_15">
     <g id="line2d_19">
      <g>
       <use style="stroke:#000000;stroke-width:0.6;" x="281.462868" xlink:href="#mc3c77d6004" y="181.728"/>
      </g>
     </g>
    </g>
    <g id="xtick_16">
     <g id="line2d_20">
      <g>
       <use style="stroke:#000000;stroke-width:0.6;" x="308.245282" xlink:href="#mc3c77d6004" y="181.728"/>
      </g>
     </g>
    </g>
    <g id="xtick_17">
     <g id="line2d_21">
      <g>
       <use style="stroke:#000000;stroke-width:0.6;" x="327.247706" xlink:href="#mc3c77d6004" y="181.728"/>
      </g>
     </g>
    </g>
    <g id="xtick_18">
     <g id="line2d_22">
      <g>
       <use style="stroke:#000000;stroke-width:0.6;" x="341.987132" xlink:href="#mc3c77d6004" y="181.728"/>
      </g>
     </g>
    </g>
    <g id="xtick_19">
     <g id="line2d_23">
      <g>
       <use style="stroke:#000000;stroke-width:0.6;" x="354.030119" xlink:href="#mc3c77d6004" y="181.728"/>
      </g>
     </g>
    </g>
    <g id="xtick_20">
     <g id="line2d_24">
      <g>
       <use style="stroke:#000000;stroke-width:0.6;" x="364.21232" xlink:href="#mc3c77d6004" y="181.728"/>
      </g>
     </g>
    </g>
    <g id="xtick_21">
     <g id="line2d_25">
      <g>
       <use style="stroke:#000000;stroke-width:0.6;" x="373.032544" xlink:href="#mc3c77d6004" y="181.728"/>
      </g>
     </g>
    </g>
    <g id="xtick_22">
     <g id="line2d_26">
      <g>
       <use style="stroke:#000000;stroke-width:0.6;" x="380.812533" xlink:href="#mc3c77d6004" y="181.728"/>
      </g>
     </g>
    </g>
    <g id="xtick_23">
     <g id="line2d_27">
      <g>
       <use style="stroke:#000000;stroke-width:0.6;" x="433.556808" xlink:href="#mc3c77d6004" y="181.728"/>
      </g>
     </g>
    </g>
    <g id="xtick_24">
     <g id="line2d_28">
      <g>
       <use style="stroke:#000000;stroke-width:0.6;" x="460.339221" xlink:href="#mc3c77d6004" y="181.728"/>
      </g>
     </g>
    </g>
    <g id="xtick_25">
     <g id="line2d_29">
      <g>
       <use style="stroke:#000000;stroke-width:0.6;" x="479.341646" xlink:href="#mc3c77d6004" y="181.728"/>
      </g>
     </g>
    </g>
    <g id="xtick_26">
     <g id="line2d_30">
      <g>
       <use style="stroke:#000000;stroke-width:0.6;" x="494.081071" xlink:href="#mc3c77d6004" y="181.728"/>
      </g>
     </g>
    </g>
    <g id="xtick_27">
     <g id="line2d_31">
      <g>
       <use style="stroke:#000000;stroke-width:0.6;" x="506.124059" xlink:href="#mc3c77d6004" y="181.728"/>
      </g>
     </g>
    </g>
    <g id="xtick_28">
     <g id="line2d_32">
      <g>
       <use style="stroke:#000000;stroke-width:0.6;" x="516.30626" xlink:href="#mc3c77d6004" y="181.728"/>
      </g>
     </g>
    </g>
    <g id="xtick_29">
     <g id="line2d_33">
      <g>
       <use style="stroke:#000000;stroke-width:0.6;" x="525.126483" xlink:href="#mc3c77d6004" y="181.728"/>
      </g>
     </g>
    </g>
    <g id="xtick_30">
     <g id="line2d_34">
      <g>
       <use style="stroke:#000000;stroke-width:0.6;" x="532.906472" xlink:href="#mc3c77d6004" y="181.728"/>
      </g>
     </g>
    </g>
   </g>
   <g id="matplotlib.axis_2">
    <g id="ytick_1">
     <g id="line2d_35">
      <path clip-path="url(#pdacfb52f68)" d="M 60.77 173.412569 
L 562.68 173.412569 
" style="fill:none;stroke:#b0b0b0;stroke-linecap:square;stroke-width:0.8;"/>
     </g>
     <g id="line2d_36">
      <defs>
       <path d="M 0 0 
L -3.5 0 
" id="m81352b6b56" style="stroke:#000000;stroke-width:0.8;"/>
      </defs>
      <g>
       <use style="stroke:#000000;stroke-width:0.8;" x="60.77" xlink:href="#m81352b6b56" y="173.412569"/>
      </g>
     </g>
     <g id="text_5">
      <!-- −80 -->
      <defs>
       <path d="M 10.59375 35.5 
L 73.1875 35.5 
L 73.1875 27.203125 
L 10.59375 27.203125 
z
" id="DejaVuSans-8722"/>
      </defs>
      <g transform="translate(32.665313 177.211787)scale(0.1 -0.1)">
       <use xlink:href="#DejaVuSans-8722"/>
       <use x="83.789062" xlink:href="#DejaVuSans-56"/>
       <use x="147.412109" xlink:href="#DejaVuSans-48"/>
      </g>
     </g>
    </g>
    <g id="ytick_2">
     <g id="line2d_37">
      <path clip-path="url(#pdacfb52f68)" d="M 60.77 147.115942 
L 562.68 147.115942 
" style="fill:none;stroke:#b0b0b0;stroke-linecap:square;stroke-width:0.8;"/>
     </g>
     <g id="line2d_38">
      <g>
       <use style="stroke:#000000;stroke-width:0.8;" x="60.77" xlink:href="#m81352b6b56" y="147.115942"/>
      </g>
     </g>
     <g id="text_6">
      <!-- −60 -->
      <g transform="translate(32.665313 150.915161)scale(0.1 -0.1)">
       <use xlink:href="#DejaVuSans-8722"/>
       <use x="83.789062" xlink:href="#DejaVuSans-54"/>
       <use x="147.412109" xlink:href="#DejaVuSans-48"/>
      </g>
     </g>
    </g>
    <g id="ytick_3">
     <g id="line2d_39">
      <path clip-path="url(#pdacfb52f68)" d="M 60.77 120.819316 
L 562.68 120.819316 
" style="fill:none;stroke:#b0b0b0;stroke-linecap:square;stroke-width:0.8;"/>
     </g>
     <g id="line2d_40">
      <g>
       <use style="stroke:#000000;stroke-width:0.8;" x="60.77" xlink:href="#m81352b6b56" y="120.819316"/>
      </g>
     </g>
     <g id="text_7">
      <!-- −40 -->
      <defs>
       <path d="M 37.796875 64.3125 
L 12.890625 25.390625 
L 37.796875 25.390625 
z
M 35.203125 72.90625 
L 47.609375 72.90625 
L 47.609375 25.390625 
L 58.015625 25.390625 
L 58.015625 17.1875 
L 47.609375 17.1875 
L 47.609375 0 
L 37.796875 0 
L 37.796875 17.1875 
L 4.890625 17.1875 
L 4.890625 26.703125 
z
" id="DejaVuSans-52"/>
      </defs>
      <g transform="translate(32.665313 124.618535)scale(0.1 -0.1)">
       <use xlink:href="#DejaVuSans-8722"/>
       <use x="83.789062" xlink:href="#DejaVuSans-52"/>
       <use x="147.412109" xlink:href="#DejaVuSans-48"/>
      </g>
     </g>
    </g>
    <g id="ytick_4">
     <g id="line2d_41">
      <path clip-path="url(#pdacfb52f68)" d="M 60.77 94.522689 
L 562.68 94.522689 
" style="fill:none;stroke:#b0b0b0;stroke-linecap:square;stroke-width:0.8;"/>
     </g>
     <g id="line2d_42">
      <g>
       <use style="stroke:#000000;stroke-width:0.8;" x="60.77" xlink:href="#m81352b6b56" y="94.522689"/>
      </g>
     </g>
     <g id="text_8">
      <!-- −20 -->
      <defs>
       <path d="M 19.1875 8.296875 
L 53.609375 8.296875 
L 53.609375 0 
L 7.328125 0 
L 7.328125 8.296875 
Q 12.9375 14.109375 22.625 23.890625 
Q 32.328125 33.6875 34.8125 36.53125 
Q 39.546875 41.84375 41.421875 45.53125 
Q 43.3125 49.21875 43.3125 52.78125 
Q 43.3125 58.59375 39.234375 62.25 
Q 35.15625 65.921875 28.609375 65.921875 
Q 23.96875 65.921875 18.8125 64.3125 
Q 13.671875 62.703125 7.8125 59.421875 
L 7.8125 69.390625 
Q 13.765625 71.78125 18.9375 73 
Q 24.125 74.21875 28.421875 74.21875 
Q 39.75 74.21875 46.484375 68.546875 
Q 53.21875 62.890625 53.21875 53.421875 
Q 53.21875 48.921875 51.53125 44.890625 
Q 49.859375 40.875 45.40625 35.40625 
Q 44.1875 33.984375 37.640625 27.21875 
Q 31.109375 20.453125 19.1875 8.296875 
z
" id="DejaVuSans-50"/>
      </defs>
      <g transform="translate(32.665313 98.321908)scale(0.1 -0.1)">
       <use xlink:href="#DejaVuSans-8722"/>
       <use x="83.789062" xlink:href="#DejaVuSans-50"/>
       <use x="147.412109" xlink:href="#DejaVuSans-48"/>
      </g>
     </g>
    </g>
    <g id="ytick_5">
     <g id="line2d_43">
      <path clip-path="url(#pdacfb52f68)" d="M 60.77 68.226063 
L 562.68 68.226063 
" style="fill:none;stroke:#b0b0b0;stroke-linecap:square;stroke-width:0.8;"/>
     </g>
     <g id="line2d_44">
      <g>
       <use style="stroke:#000000;stroke-width:0.8;" x="60.77" xlink:href="#m81352b6b56" y="68.226063"/>
      </g>
     </g>
     <g id="text_9">
      <!-- 0 -->
      <g transform="translate(47.4075 72.025282)scale(0.1 -0.1)">
       <use xlink:href="#DejaVuSans-48"/>
      </g>
     </g>
    </g>
    <g id="ytick_6">
     <g id="line2d_45">
      <path clip-path="url(#pdacfb52f68)" d="M 60.77 41.929437 
L 562.68 41.929437 
" style="fill:none;stroke:#b0b0b0;stroke-linecap:square;stroke-width:0.8;"/>
     </g>
     <g id="line2d_46">
      <g>
       <use style="stroke:#000000;stroke-width:0.8;" x="60.77" xlink:href="#m81352b6b56" y="41.929437"/>
      </g>
     </g>
     <g id="text_10">
      <!-- 20 -->
      <g transform="translate(41.045 45.728655)scale(0.1 -0.1)">
       <use xlink:href="#DejaVuSans-50"/>
       <use x="63.623047" xlink:href="#DejaVuSans-48"/>
      </g>
     </g>
    </g>
    <g id="ytick_7">
     <g id="line2d_47">
      <path clip-path="url(#pdacfb52f68)" d="M 60.77 15.63281 
L 562.68 15.63281 
" style="fill:none;stroke:#b0b0b0;stroke-linecap:square;stroke-width:0.8;"/>
     </g>
     <g id="line2d_48">
      <g>
       <use style="stroke:#000000;stroke-width:0.8;" x="60.77" xlink:href="#m81352b6b56" y="15.63281"/>
      </g>
     </g>
     <g id="text_11">
      <!-- 40 -->
      <g transform="translate(41.045 19.432029)scale(0.1 -0.1)">
       <use xlink:href="#DejaVuSans-52"/>
       <use x="63.623047" xlink:href="#DejaVuSans-48"/>
      </g>
     </g>
    </g>
    <g id="ytick_8">
     <g id="line2d_49">
      <defs>
       <path d="M 0 0 
L -2 0 
" id="m2fb893c5d2" style="stroke:#000000;stroke-width:0.6;"/>
      </defs>
      <g>
       <use style="stroke:#000000;stroke-width:0.6;" x="60.77" xlink:href="#m2fb893c5d2" y="173.412569"/>
      </g>
     </g>
    </g>
    <g id="ytick_9">
     <g id="line2d_50">
      <g>
       <use style="stroke:#000000;stroke-width:0.6;" x="60.77" xlink:href="#m2fb893c5d2" y="160.264255"/>
      </g>
     </g>
    </g>
    <g id="ytick_10">
     <g id="line2d_51">
      <g>
       <use style="stroke:#000000;stroke-width:0.6;" x="60.77" xlink:href="#m2fb893c5d2" y="147.115942"/>
      </g>
     </g>
    </g>
    <g id="ytick_11">
     <g id="line2d_52">
      <g>
       <use style="stroke:#000000;stroke-width:0.6;" x="60.77" xlink:href="#m2fb893c5d2" y="133.967629"/>
      </g>
     </g>
    </g>
    <g id="ytick_12">
     <g id="line2d_53">
      <g>
       <use style="stroke:#000000;stroke-width:0.6;" x="60.77" xlink:href="#m2fb893c5d2" y="120.819316"/>
      </g>
     </g>
    </g>
    <g id="ytick_13">
     <g id="line2d_54">
      <g>
       <use style="stroke:#000000;stroke-width:0.6;" x="60.77" xlink:href="#m2fb893c5d2" y="107.671003"/>
      </g>
     </g>
    </g>
    <g id="ytick_14">
     <g id="line2d_55">
      <g>
       <use style="stroke:#000000;stroke-width:0.6;" x="60.77" xlink:href="#m2fb893c5d2" y="94.522689"/>
      </g>
     </g>
    </g>
    <g id="ytick_15">
     <g id="line2d_56">
      <g>
       <use style="stroke:#000000;stroke-width:0.6;" x="60.77" xlink:href="#m2fb893c5d2" y="81.374376"/>
      </g>
     </g>
    </g>
    <g id="ytick_16">
     <g id="line2d_57">
      <g>
       <use style="stroke:#000000;stroke-width:0.6;" x="60.77" xlink:href="#m2fb893c5d2" y="68.226063"/>
      </g>
     </g>
    </g>
    <g id="ytick_17">
     <g id="line2d_58">
      <g>
       <use style="stroke:#000000;stroke-width:0.6;" x="60.77" xlink:href="#m2fb893c5d2" y="55.07775"/>
      </g>
     </g>
    </g>
    <g id="ytick_18">
     <g id="line2d_59">
      <g>
       <use style="stroke:#000000;stroke-width:0.6;" x="60.77" xlink:href="#m2fb893c5d2" y="41.929437"/>
      </g>
     </g>
    </g>
    <g id="ytick_19">
     <g id="line2d_60">
      <g>
       <use style="stroke:#000000;stroke-width:0.6;" x="60.77" xlink:href="#m2fb893c5d2" y="28.781123"/>
      </g>
     </g>
    </g>
    <g id="ytick_20">
     <g id="line2d_61">
      <g>
       <use style="stroke:#000000;stroke-width:0.6;" x="60.77" xlink:href="#m2fb893c5d2" y="15.63281"/>
      </g>
     </g>
    </g>
    <g id="text_12">
     <!-- $\bf{Magnitude}$ (dB) -->
     <defs>
      <path d="M 9.1875 72.90625 
L 33.109375 72.90625 
L 49.703125 33.890625 
L 66.40625 72.90625 
L 90.28125 72.90625 
L 90.28125 0 
L 72.515625 0 
L 72.515625 53.328125 
L 55.71875 14.015625 
L 43.796875 14.015625 
L 27 53.328125 
L 27 0 
L 9.1875 0 
z
" id="DejaVuSans-Bold-77"/>
      <path d="M 32.90625 24.609375 
Q 27.4375 24.609375 24.671875 22.75 
Q 21.921875 20.90625 21.921875 17.28125 
Q 21.921875 13.96875 24.140625 12.078125 
Q 26.375 10.203125 30.328125 10.203125 
Q 35.25 10.203125 38.625 13.734375 
Q 42 17.28125 42 22.609375 
L 42 24.609375 
z
M 59.625 31.203125 
L 59.625 0 
L 42 0 
L 42 8.109375 
Q 38.484375 3.125 34.078125 0.84375 
Q 29.6875 -1.421875 23.390625 -1.421875 
Q 14.890625 -1.421875 9.59375 3.53125 
Q 4.296875 8.5 4.296875 16.40625 
Q 4.296875 26.03125 10.90625 30.515625 
Q 17.53125 35.015625 31.6875 35.015625 
L 42 35.015625 
L 42 36.375 
Q 42 40.53125 38.71875 42.453125 
Q 35.453125 44.390625 28.515625 44.390625 
Q 22.90625 44.390625 18.0625 43.265625 
Q 13.234375 42.140625 9.078125 39.890625 
L 9.078125 53.21875 
Q 14.703125 54.59375 20.359375 55.296875 
Q 26.03125 56 31.6875 56 
Q 46.484375 56 53.046875 50.171875 
Q 59.625 44.34375 59.625 31.203125 
z
" id="DejaVuSans-Bold-97"/>
      <path d="M 45.609375 9.28125 
Q 42 4.5 37.640625 2.25 
Q 33.296875 0 27.59375 0 
Q 17.578125 0 11.03125 7.875 
Q 4.5 15.765625 4.5 27.984375 
Q 4.5 40.234375 11.03125 48.0625 
Q 17.578125 55.90625 27.59375 55.90625 
Q 33.296875 55.90625 37.640625 53.65625 
Q 42 51.421875 45.609375 46.578125 
L 45.609375 54.6875 
L 63.1875 54.6875 
L 63.1875 5.515625 
Q 63.1875 -7.671875 54.859375 -14.625 
Q 46.53125 -21.578125 30.71875 -21.578125 
Q 25.59375 -21.578125 20.796875 -20.796875 
Q 16.015625 -20.015625 11.1875 -18.40625 
L 11.1875 -4.78125 
Q 15.765625 -7.421875 20.15625 -8.71875 
Q 24.5625 -10.015625 29 -10.015625 
Q 37.59375 -10.015625 41.59375 -6.25 
Q 45.609375 -2.484375 45.609375 5.515625 
z
M 34.078125 43.3125 
Q 28.65625 43.3125 25.625 39.296875 
Q 22.609375 35.296875 22.609375 27.984375 
Q 22.609375 20.453125 25.53125 16.578125 
Q 28.46875 12.703125 34.078125 12.703125 
Q 39.546875 12.703125 42.578125 16.703125 
Q 45.609375 20.703125 45.609375 27.984375 
Q 45.609375 35.296875 42.578125 39.296875 
Q 39.546875 43.3125 34.078125 43.3125 
z
" id="DejaVuSans-Bold-103"/>
      <path d="M 63.375 33.296875 
L 63.375 0 
L 45.796875 0 
L 45.796875 5.421875 
L 45.796875 25.484375 
Q 45.796875 32.5625 45.484375 35.25 
Q 45.171875 37.9375 44.390625 39.203125 
Q 43.359375 40.921875 41.59375 41.875 
Q 39.84375 42.828125 37.59375 42.828125 
Q 32.125 42.828125 29 38.59375 
Q 25.875 34.375 25.875 26.90625 
L 25.875 0 
L 8.40625 0 
L 8.40625 54.6875 
L 25.875 54.6875 
L 25.875 46.6875 
Q 29.828125 51.46875 34.265625 53.734375 
Q 38.71875 56 44.09375 56 
Q 53.5625 56 58.46875 50.1875 
Q 63.375 44.390625 63.375 33.296875 
z
" id="DejaVuSans-Bold-110"/>
      <path d="M 8.40625 54.6875 
L 25.875 54.6875 
L 25.875 0 
L 8.40625 0 
z
M 8.40625 75.984375 
L 25.875 75.984375 
L 25.875 61.71875 
L 8.40625 61.71875 
z
" id="DejaVuSans-Bold-105"/>
      <path d="M 27.484375 70.21875 
L 27.484375 54.6875 
L 45.515625 54.6875 
L 45.515625 42.1875 
L 27.484375 42.1875 
L 27.484375 19 
Q 27.484375 15.1875 29 13.84375 
Q 30.515625 12.5 35.015625 12.5 
L 44 12.5 
L 44 0 
L 29 0 
Q 18.65625 0 14.328125 4.3125 
Q 10.015625 8.640625 10.015625 19 
L 10.015625 42.1875 
L 1.3125 42.1875 
L 1.3125 54.6875 
L 10.015625 54.6875 
L 10.015625 70.21875 
z
" id="DejaVuSans-Bold-116"/>
      <path d="M 7.8125 21.296875 
L 7.8125 54.6875 
L 25.390625 54.6875 
L 25.390625 49.21875 
Q 25.390625 44.78125 25.34375 38.0625 
Q 25.296875 31.34375 25.296875 29.109375 
Q 25.296875 22.515625 25.640625 19.609375 
Q 25.984375 16.703125 26.8125 15.375 
Q 27.875 13.671875 29.609375 12.734375 
Q 31.34375 11.8125 33.59375 11.8125 
Q 39.0625 11.8125 42.1875 16.015625 
Q 45.3125 20.21875 45.3125 27.6875 
L 45.3125 54.6875 
L 62.796875 54.6875 
L 62.796875 0 
L 45.3125 0 
L 45.3125 7.90625 
Q 41.359375 3.125 36.9375 0.84375 
Q 32.515625 -1.421875 27.203125 -1.421875 
Q 17.71875 -1.421875 12.765625 4.390625 
Q 7.8125 10.203125 7.8125 21.296875 
z
" id="DejaVuSans-Bold-117"/>
      <path d="M 45.609375 46.6875 
L 45.609375 75.984375 
L 63.1875 75.984375 
L 63.1875 0 
L 45.609375 0 
L 45.609375 7.90625 
Q 42 3.078125 37.640625 0.828125 
Q 33.296875 -1.421875 27.59375 -1.421875 
Q 17.484375 -1.421875 10.984375 6.609375 
Q 4.5 14.65625 4.5 27.296875 
Q 4.5 39.9375 10.984375 47.96875 
Q 17.484375 56 27.59375 56 
Q 33.25 56 37.625 53.734375 
Q 42 51.46875 45.609375 46.6875 
z
M 34.078125 11.28125 
Q 39.703125 11.28125 42.65625 15.375 
Q 45.609375 19.484375 45.609375 27.296875 
Q 45.609375 35.109375 42.65625 39.203125 
Q 39.703125 43.3125 34.078125 43.3125 
Q 28.515625 43.3125 25.5625 39.203125 
Q 22.609375 35.109375 22.609375 27.296875 
Q 22.609375 19.484375 25.5625 15.375 
Q 28.515625 11.28125 34.078125 11.28125 
z
" id="DejaVuSans-Bold-100"/>
      <path d="M 62.984375 27.484375 
L 62.984375 22.515625 
L 22.125 22.515625 
Q 22.75 16.359375 26.5625 13.28125 
Q 30.375 10.203125 37.203125 10.203125 
Q 42.71875 10.203125 48.5 11.84375 
Q 54.296875 13.484375 60.40625 16.796875 
L 60.40625 3.328125 
Q 54.203125 0.984375 48 -0.21875 
Q 41.796875 -1.421875 35.59375 -1.421875 
Q 20.75 -1.421875 12.515625 6.125 
Q 4.296875 13.671875 4.296875 27.296875 
Q 4.296875 40.671875 12.375 48.328125 
Q 20.453125 56 34.625 56 
Q 47.515625 56 55.25 48.234375 
Q 62.984375 40.484375 62.984375 27.484375 
z
M 45.015625 33.296875 
Q 45.015625 38.28125 42.109375 41.328125 
Q 39.203125 44.390625 34.515625 44.390625 
Q 29.4375 44.390625 26.265625 41.53125 
Q 23.09375 38.671875 22.3125 33.296875 
z
" id="DejaVuSans-Bold-101"/>
      <path id="DejaVuSans-32"/>
      <path d="M 31 75.875 
Q 24.46875 64.65625 21.28125 53.65625 
Q 18.109375 42.671875 18.109375 31.390625 
Q 18.109375 20.125 21.3125 9.0625 
Q 24.515625 -2 31 -13.1875 
L 23.1875 -13.1875 
Q 15.875 -1.703125 12.234375 9.375 
Q 8.59375 20.453125 8.59375 31.390625 
Q 8.59375 42.28125 12.203125 53.3125 
Q 15.828125 64.359375 23.1875 75.875 
z
" id="DejaVuSans-40"/>
      <path d="M 45.40625 46.390625 
L 45.40625 75.984375 
L 54.390625 75.984375 
L 54.390625 0 
L 45.40625 0 
L 45.40625 8.203125 
Q 42.578125 3.328125 38.25 0.953125 
Q 33.9375 -1.421875 27.875 -1.421875 
Q 17.96875 -1.421875 11.734375 6.484375 
Q 5.515625 14.40625 5.515625 27.296875 
Q 5.515625 40.1875 11.734375 48.09375 
Q 17.96875 56 27.875 56 
Q 33.9375 56 38.25 53.625 
Q 42.578125 51.265625 45.40625 46.390625 
z
M 14.796875 27.296875 
Q 14.796875 17.390625 18.875 11.75 
Q 22.953125 6.109375 30.078125 6.109375 
Q 37.203125 6.109375 41.296875 11.75 
Q 45.40625 17.390625 45.40625 27.296875 
Q 45.40625 37.203125 41.296875 42.84375 
Q 37.203125 48.484375 30.078125 48.484375 
Q 22.953125 48.484375 18.875 42.84375 
Q 14.796875 37.203125 14.796875 27.296875 
z
" id="DejaVuSans-100"/>
      <path d="M 19.671875 34.8125 
L 19.671875 8.109375 
L 35.5 8.109375 
Q 43.453125 8.109375 47.28125 11.40625 
Q 51.125 14.703125 51.125 21.484375 
Q 51.125 28.328125 47.28125 31.5625 
Q 43.453125 34.8125 35.5 34.8125 
z
M 19.671875 64.796875 
L 19.671875 42.828125 
L 34.28125 42.828125 
Q 41.5 42.828125 45.03125 45.53125 
Q 48.578125 48.25 48.578125 53.8125 
Q 48.578125 59.328125 45.03125 62.0625 
Q 41.5 64.796875 34.28125 64.796875 
z
M 9.8125 72.90625 
L 35.015625 72.90625 
Q 46.296875 72.90625 52.390625 68.21875 
Q 58.5 63.53125 58.5 54.890625 
Q 58.5 48.1875 55.375 44.234375 
Q 52.25 40.28125 46.1875 39.3125 
Q 53.46875 37.75 57.5 32.78125 
Q 61.53125 27.828125 61.53125 20.40625 
Q 61.53125 10.640625 54.890625 5.3125 
Q 48.25 0 35.984375 0 
L 9.8125 0 
z
" id="DejaVuSans-66"/>
      <path d="M 8.015625 75.875 
L 15.828125 75.875 
Q 23.140625 64.359375 26.78125 53.3125 
Q 30.421875 42.28125 30.421875 31.390625 
Q 30.421875 20.453125 26.78125 9.375 
Q 23.140625 -1.703125 15.828125 -13.1875 
L 8.015625 -13.1875 
Q 14.5 -2 17.703125 9.0625 
Q 20.90625 20.125 20.90625 31.390625 
Q 20.90625 42.671875 17.703125 53.65625 
Q 14.5 64.65625 8.015625 75.875 
z
" id="DejaVuSans-41"/>
     </defs>
     <g transform="translate(26.465313 139.774)rotate(-90)scale(0.1 -0.1)">
      <use transform="translate(0 0.015625)" xlink:href="#DejaVuSans-Bold-77"/>
      <use transform="translate(99.511719 0.015625)" xlink:href="#DejaVuSans-Bold-97"/>
      <use transform="translate(166.992188 0.015625)" xlink:href="#DejaVuSans-Bold-103"/>
      <use transform="translate(238.574219 0.015625)" xlink:href="#DejaVuSans-Bold-110"/>
      <use transform="translate(309.765625 0.015625)" xlink:href="#DejaVuSans-Bold-105"/>
      <use transform="translate(344.042969 0.015625)" xlink:href="#DejaVuSans-Bold-116"/>
      <use transform="translate(391.845703 0.015625)" xlink:href="#DejaVuSans-Bold-117"/>
      <use transform="translate(463.037109 0.015625)" xlink:href="#DejaVuSans-Bold-100"/>
      <use transform="translate(534.619141 0.015625)" xlink:href="#DejaVuSans-Bold-101"/>
      <use transform="translate(602.441406 0.015625)" xlink:href="#DejaVuSans-32"/>
      <use transform="translate(634.228516 0.015625)" xlink:href="#DejaVuSans-40"/>
      <use transform="translate(673.242188 0.015625)" xlink:href="#DejaVuSans-100"/>
      <use transform="translate(736.71875 0.015625)" xlink:href="#DejaVuSans-66"/>
      <use transform="translate(805.322266 0.015625)" xlink:href="#DejaVuSans-41"/>
     </g>
    </g>
   </g>
   <g id="line2d_62">
    <path clip-path="url(#pdacfb52f68)" d="M 83.584091 68.225968 
L 316.287818 68.115319 
L 352.334082 67.883561 
L 373.323045 67.544635 
L 387.467782 67.112593 
L 397.962264 66.582394 
L 405.719055 65.986127 
L 412.107 65.275938 
L 417.1261 64.494956 
L 421.232636 63.627942 
L 424.426609 62.739609 
L 427.1643 61.758697 
L 429.445709 60.718185 
L 431.270836 59.678811 
L 433.095964 58.378373 
L 434.464809 57.162171 
L 435.833655 55.650312 
L 437.2025 53.703758 
L 438.115064 52.045284 
L 439.027627 49.946067 
L 439.940191 47.151534 
L 440.852755 43.1066 
L 441.309036 40.211432 
L 441.765318 36.188692 
L 442.2216 29.908546 
L 442.677882 20.974909 
L 443.590445 36.055486 
L 444.046727 40.885982 
L 444.959291 47.261515 
L 445.871855 51.665095 
L 446.784418 55.10651 
L 448.153264 59.278604 
L 449.522109 62.76075 
L 451.347236 66.796905 
L 454.084927 72.183183 
L 460.929155 85.269688 
L 462.754282 89.268461 
L 464.579409 93.808489 
L 465.948255 97.767009 
L 467.3171 102.472349 
L 468.229664 106.246825 
L 469.142227 110.831315 
L 470.054791 116.787257 
L 470.511073 120.670577 
L 470.967355 125.677974 
L 471.423636 132.995665 
L 471.879918 148.896887 
L 472.3362 144.781827 
L 472.792482 135.35129 
L 473.248764 131.675147 
L 473.705045 130.154376 
L 474.161327 130.051495 
L 474.617609 131.264754 
L 475.530173 137.082396 
L 475.986455 134.112947 
L 476.899018 121.962873 
L 477.811582 113.814422 
L 478.724145 107.815537 
L 480.092991 100.825698 
L 481.461836 95.140847 
L 483.286964 88.618785 
L 489.218627 68.467049 
L 490.131191 64.423779 
L 491.043755 59.430219 
L 491.956318 52.386527 
L 492.4126 47.066934 
L 493.325164 31.432283 
L 493.781445 41.690113 
L 494.237727 47.618139 
L 494.694009 51.348102 
L 495.606573 56.026527 
L 496.519136 58.973317 
L 497.4317 61.052522 
L 498.344264 62.616132 
L 499.256827 63.841424 
L 500.625673 65.25591 
L 501.994518 66.327537 
L 503.819645 67.40645 
L 505.644773 68.216912 
L 507.926182 68.979391 
L 510.663873 69.650296 
L 514.314127 70.281077 
L 518.876945 70.811034 
L 524.808609 71.252841 
L 533.021682 71.617093 
L 539.865909 71.802289 
L 539.865909 71.802289 
" style="fill:none;stroke:#1f77b4;stroke-linecap:square;stroke-width:1.5;"/>
   </g>
   <g id="line2d_63">
    <path clip-path="url(#pdacfb52f68)" d="M 83.584091 174.073091 
L 161.152 160.511828 
L 194.460573 154.474377 
L 216.818382 150.208145 
L 234.613373 146.59414 
L 249.670673 143.317807 
L 263.359127 140.11883 
L 276.5913 136.795933 
L 289.367191 133.357501 
L 302.143082 129.691995 
L 315.375255 125.666293 
L 329.063709 121.271489 
L 343.208445 116.493515 
L 356.440618 111.795358 
L 368.303945 107.361306 
L 378.798427 103.21139 
L 387.924064 99.365204 
L 395.680855 95.854134 
L 402.0688 92.7316 
L 407.544182 89.827831 
L 412.563282 86.915139 
L 416.669818 84.290133 
L 420.320073 81.708993 
L 423.514045 79.191883 
L 426.251736 76.773798 
L 428.533145 74.510041 
L 430.814555 71.936276 
L 432.639682 69.568693 
L 434.464809 66.809307 
L 435.833655 64.371255 
L 437.2025 61.464911 
L 438.115064 59.147632 
L 439.027627 56.379048 
L 439.940191 52.92777 
L 440.852755 48.364401 
L 441.765318 42.072333 
L 442.2216 38.796989 
L 442.677882 37.833148 
L 443.134164 40.163653 
L 444.046727 46.295632 
L 444.959291 50.714406 
L 445.871855 53.881062 
L 446.784418 56.28841 
L 447.696982 58.201565 
L 449.065827 60.455319 
L 450.434673 62.206787 
L 451.803518 63.609649 
L 453.628645 65.090701 
L 455.453773 66.242689 
L 457.2789 67.144569 
L 459.560309 67.995029 
L 461.841718 68.594428 
L 464.123127 68.98058 
L 466.860818 69.192531 
L 469.598509 69.144735 
L 471.879918 68.904383 
L 474.161327 68.468285 
L 476.442736 67.810895 
L 478.724145 66.888977 
L 480.549273 65.914286 
L 482.3744 64.666992 
L 483.743245 63.498254 
L 485.112091 62.062519 
L 486.480936 60.260818 
L 487.3935 58.776839 
L 488.306064 56.973244 
L 489.218627 54.710263 
L 490.131191 51.72851 
L 491.043755 47.45761 
L 491.500036 44.417145 
L 491.956318 40.184234 
L 492.4126 33.417603 
L 492.868882 22.377688 
L 493.781445 39.81683 
L 494.237727 44.566627 
L 495.150291 50.684372 
L 496.062855 54.796085 
L 496.975418 57.922747 
L 498.344264 61.578776 
L 499.713109 64.486931 
L 501.081955 66.921514 
L 502.907082 69.674652 
L 504.732209 72.036328 
L 507.013618 74.603958 
L 509.751309 77.285318 
L 512.489 79.65368 
L 515.682973 82.12826 
L 519.333227 84.674089 
L 523.439764 87.270543 
L 528.458864 90.159022 
L 533.934245 93.045487 
L 539.865909 95.94159 
L 539.865909 95.94159 
" style="fill:none;stroke:#ff7f0e;stroke-linecap:square;stroke-width:1.5;"/>
   </g>
   <g id="patch_3">
    <path d="M 60.77 181.728 
L 60.77 13.32 
" style="fill:none;stroke:#000000;stroke-linecap:square;stroke-linejoin:miter;stroke-width:0.8;"/>
   </g>
   <g id="patch_4">
    <path d="M 562.68 181.728 
L 562.68 13.32 
" style="fill:none;stroke:#000000;stroke-linecap:square;stroke-linejoin:miter;stroke-width:0.8;"/>
   </g>
   <g id="patch_5">
    <path d="M 60.77 181.728 
L 562.68 181.728 
" style="fill:none;stroke:#000000;stroke-linecap:square;stroke-linejoin:miter;stroke-width:0.8;"/>
   </g>
   <g id="patch_6">
    <path d="M 60.77 13.32 
L 562.68 13.32 
" style="fill:none;stroke:#000000;stroke-linecap:square;stroke-linejoin:miter;stroke-width:0.8;"/>
   </g>
   <g id="legend_1">
    <g id="patch_7">
     <path d="M 67.07 46.940625 
L 173.99 46.940625 
Q 175.79 46.940625 175.79 45.140625 
L 175.79 19.62 
Q 175.79 17.82 173.99 17.82 
L 67.07 17.82 
Q 65.27 17.82 65.27 19.62 
L 65.27 45.140625 
Q 65.27 46.940625 67.07 46.940625 
z
" style="fill:#ffffff;opacity:0.8;stroke:#cccccc;stroke-linejoin:miter;"/>
    </g>
    <g id="line2d_64">
     <path d="M 68.87 25.108594 
L 86.87 25.108594 
" style="fill:none;stroke:#1f77b4;stroke-linecap:square;stroke-width:1.5;"/>
    </g>
    <g id="line2d_65"/>
    <g id="text_13">
     <!-- $\bf{nlf}$ to $\bf{nout}$ (V/V) -->
     <defs>
      <path d="M 8.40625 75.984375 
L 25.875 75.984375 
L 25.875 0 
L 8.40625 0 
z
" id="DejaVuSans-Bold-108"/>
      <path d="M 44.390625 75.984375 
L 44.390625 64.5 
L 34.71875 64.5 
Q 31 64.5 29.53125 63.15625 
Q 28.078125 61.8125 28.078125 58.5 
L 28.078125 54.6875 
L 43.015625 54.6875 
L 43.015625 42.1875 
L 28.078125 42.1875 
L 28.078125 0 
L 10.59375 0 
L 10.59375 42.1875 
L 1.90625 42.1875 
L 1.90625 54.6875 
L 10.59375 54.6875 
L 10.59375 58.5 
Q 10.59375 67.4375 15.578125 71.703125 
Q 20.5625 75.984375 31 75.984375 
z
" id="DejaVuSans-Bold-102"/>
      <path d="M 18.3125 70.21875 
L 18.3125 54.6875 
L 36.8125 54.6875 
L 36.8125 47.703125 
L 18.3125 47.703125 
L 18.3125 18.015625 
Q 18.3125 11.328125 20.140625 9.421875 
Q 21.96875 7.515625 27.59375 7.515625 
L 36.8125 7.515625 
L 36.8125 0 
L 27.59375 0 
Q 17.1875 0 13.234375 3.875 
Q 9.28125 7.765625 9.28125 18.015625 
L 9.28125 47.703125 
L 2.6875 47.703125 
L 2.6875 54.6875 
L 9.28125 54.6875 
L 9.28125 70.21875 
z
" id="DejaVuSans-116"/>
      <path d="M 30.609375 48.390625 
Q 23.390625 48.390625 19.1875 42.75 
Q 14.984375 37.109375 14.984375 27.296875 
Q 14.984375 17.484375 19.15625 11.84375 
Q 23.34375 6.203125 30.609375 6.203125 
Q 37.796875 6.203125 41.984375 11.859375 
Q 46.1875 17.53125 46.1875 27.296875 
Q 46.1875 37.015625 41.984375 42.703125 
Q 37.796875 48.390625 30.609375 48.390625 
z
M 30.609375 56 
Q 42.328125 56 49.015625 48.375 
Q 55.71875 40.765625 55.71875 27.296875 
Q 55.71875 13.875 49.015625 6.21875 
Q 42.328125 -1.421875 30.609375 -1.421875 
Q 18.84375 -1.421875 12.171875 6.21875 
Q 5.515625 13.875 5.515625 27.296875 
Q 5.515625 40.765625 12.171875 48.375 
Q 18.84375 56 30.609375 56 
z
" id="DejaVuSans-111"/>
      <path d="M 34.421875 43.5 
Q 28.609375 43.5 25.5625 39.328125 
Q 22.515625 35.15625 22.515625 27.296875 
Q 22.515625 19.4375 25.5625 15.25 
Q 28.609375 11.078125 34.421875 11.078125 
Q 40.140625 11.078125 43.15625 15.25 
Q 46.1875 19.4375 46.1875 27.296875 
Q 46.1875 35.15625 43.15625 39.328125 
Q 40.140625 43.5 34.421875 43.5 
z
M 34.421875 56 
Q 48.53125 56 56.46875 48.375 
Q 64.40625 40.765625 64.40625 27.296875 
Q 64.40625 13.8125 56.46875 6.1875 
Q 48.53125 -1.421875 34.421875 -1.421875 
Q 20.265625 -1.421875 12.28125 6.1875 
Q 4.296875 13.8125 4.296875 27.296875 
Q 4.296875 40.765625 12.28125 48.375 
Q 20.265625 56 34.421875 56 
z
" id="DejaVuSans-Bold-111"/>
      <path d="M 28.609375 0 
L 0.78125 72.90625 
L 11.078125 72.90625 
L 34.1875 11.53125 
L 57.328125 72.90625 
L 67.578125 72.90625 
L 39.796875 0 
z
" id="DejaVuSans-86"/>
      <path d="M 25.390625 72.90625 
L 33.6875 72.90625 
L 8.296875 -9.28125 
L 0 -9.28125 
z
" id="DejaVuSans-47"/>
     </defs>
     <g transform="translate(94.07 28.258594)scale(0.09 -0.09)">
      <use transform="translate(0 0.015625)" xlink:href="#DejaVuSans-Bold-110"/>
      <use transform="translate(71.191406 0.015625)" xlink:href="#DejaVuSans-Bold-108"/>
      <use transform="translate(105.46875 0.015625)" xlink:href="#DejaVuSans-Bold-102"/>
      <use transform="translate(148.974609 0.015625)" xlink:href="#DejaVuSans-32"/>
      <use transform="translate(180.761719 0.015625)" xlink:href="#DejaVuSans-116"/>
      <use transform="translate(219.970703 0.015625)" xlink:href="#DejaVuSans-111"/>
      <use transform="translate(281.152344 0.015625)" xlink:href="#DejaVuSans-32"/>
      <use transform="translate(312.939453 0.015625)" xlink:href="#DejaVuSans-Bold-110"/>
      <use transform="translate(384.130859 0.015625)" xlink:href="#DejaVuSans-Bold-111"/>
      <use transform="translate(452.832031 0.015625)" xlink:href="#DejaVuSans-Bold-117"/>
      <use transform="translate(524.023438 0.015625)" xlink:href="#DejaVuSans-Bold-116"/>
      <use transform="translate(571.826172 0.015625)" xlink:href="#DejaVuSans-32"/>
      <use transform="translate(603.613281 0.015625)" xlink:href="#DejaVuSans-40"/>
      <use transform="translate(642.626953 0.015625)" xlink:href="#DejaVuSans-86"/>
      <use transform="translate(711.035156 0.015625)" xlink:href="#DejaVuSans-47"/>
      <use transform="translate(744.726562 0.015625)" xlink:href="#DejaVuSans-86"/>
      <use transform="translate(813.134766 0.015625)" xlink:href="#DejaVuSans-41"/>
     </g>
    </g>
    <g id="line2d_66">
     <path d="M 68.87 38.318906 
L 86.87 38.318906 
" style="fill:none;stroke:#ff7f0e;stroke-linecap:square;stroke-width:1.5;"/>
    </g>
    <g id="line2d_67"/>
    <g id="text_14">
     <!-- $\bf{nrf}$ to $\bf{nout}$ (V/V) -->
     <defs>
      <path d="M 49.03125 39.796875 
Q 46.734375 40.875 44.453125 41.375 
Q 42.1875 41.890625 39.890625 41.890625 
Q 33.15625 41.890625 29.515625 37.5625 
Q 25.875 33.25 25.875 25.203125 
L 25.875 0 
L 8.40625 0 
L 8.40625 54.6875 
L 25.875 54.6875 
L 25.875 45.703125 
Q 29.25 51.078125 33.609375 53.53125 
Q 37.984375 56 44.09375 56 
Q 44.96875 56 45.984375 55.921875 
Q 47.015625 55.859375 48.96875 55.609375 
z
" id="DejaVuSans-Bold-114"/>
     </defs>
     <g transform="translate(94.07 41.468906)scale(0.09 -0.09)">
      <use transform="translate(0 0.015625)" xlink:href="#DejaVuSans-Bold-110"/>
      <use transform="translate(71.191406 0.015625)" xlink:href="#DejaVuSans-Bold-114"/>
      <use transform="translate(120.507812 0.015625)" xlink:href="#DejaVuSans-Bold-102"/>
      <use transform="translate(164.013672 0.015625)" xlink:href="#DejaVuSans-32"/>
      <use transform="translate(195.800781 0.015625)" xlink:href="#DejaVuSans-116"/>
      <use transform="translate(235.009766 0.015625)" xlink:href="#DejaVuSans-111"/>
      <use transform="translate(296.191406 0.015625)" xlink:href="#DejaVuSans-32"/>
      <use transform="translate(327.978516 0.015625)" xlink:href="#DejaVuSans-Bold-110"/>
      <use transform="translate(399.169922 0.015625)" xlink:href="#DejaVuSans-Bold-111"/>
      <use transform="translate(467.871094 0.015625)" xlink:href="#DejaVuSans-Bold-117"/>
      <use transform="translate(539.0625 0.015625)" xlink:href="#DejaVuSans-Bold-116"/>
      <use transform="translate(586.865234 0.015625)" xlink:href="#DejaVuSans-32"/>
      <use transform="translate(618.652344 0.015625)" xlink:href="#DejaVuSans-40"/>
      <use transform="translate(657.666016 0.015625)" xlink:href="#DejaVuSans-86"/>
      <use transform="translate(726.074219 0.015625)" xlink:href="#DejaVuSans-47"/>
      <use transform="translate(759.765625 0.015625)" xlink:href="#DejaVuSans-86"/>
      <use transform="translate(828.173828 0.015625)" xlink:href="#DejaVuSans-41"/>
     </g>
    </g>
   </g>
  </g>
  <g id="axes_2">
   <g id="patch_8">
    <path d="M 60.77 383.848 
L 562.68 383.848 
L 562.68 215.44 
L 60.77 215.44 
z
" style="fill:#ffffff;"/>
   </g>
   <g id="matplotlib.axis_3">
    <g id="xtick_31">
     <g id="line2d_68">
      <path clip-path="url(#pa75bd42789)" d="M 83.584091 383.848 
L 83.584091 215.44 
" style="fill:none;stroke:#b0b0b0;stroke-linecap:square;stroke-width:0.8;"/>
     </g>
     <g id="line2d_69">
      <g>
       <use style="stroke:#000000;stroke-width:0.8;" x="83.584091" xlink:href="#m4881a523b5" y="383.848"/>
      </g>
     </g>
     <g id="text_15">
      <!-- $\mathdefault{10^{5}}$ -->
      <g transform="translate(74.784091 398.446438)scale(0.1 -0.1)">
       <use transform="translate(0 0.684375)" xlink:href="#DejaVuSans-49"/>
       <use transform="translate(63.623047 0.684375)" xlink:href="#DejaVuSans-48"/>
       <use transform="translate(128.203125 38.965625)scale(0.7)" xlink:href="#DejaVuSans-53"/>
      </g>
     </g>
    </g>
    <g id="xtick_32">
     <g id="line2d_70">
      <path clip-path="url(#pa75bd42789)" d="M 235.67803 383.848 
L 235.67803 215.44 
" style="fill:none;stroke:#b0b0b0;stroke-linecap:square;stroke-width:0.8;"/>
     </g>
     <g id="line2d_71">
      <g>
       <use style="stroke:#000000;stroke-width:0.8;" x="235.67803" xlink:href="#m4881a523b5" y="383.848"/>
      </g>
     </g>
     <g id="text_16">
      <!-- $\mathdefault{10^{6}}$ -->
      <g transform="translate(226.87803 398.446438)scale(0.1 -0.1)">
       <use transform="translate(0 0.765625)" xlink:href="#DejaVuSans-49"/>
       <use transform="translate(63.623047 0.765625)" xlink:href="#DejaVuSans-48"/>
       <use transform="translate(128.203125 39.046875)scale(0.7)" xlink:href="#DejaVuSans-54"/>
      </g>
     </g>
    </g>
    <g id="xtick_33">
     <g id="line2d_72">
      <path clip-path="url(#pa75bd42789)" d="M 387.77197 383.848 
L 387.77197 215.44 
" style="fill:none;stroke:#b0b0b0;stroke-linecap:square;stroke-width:0.8;"/>
     </g>
     <g id="line2d_73">
      <g>
       <use style="stroke:#000000;stroke-width:0.8;" x="387.77197" xlink:href="#m4881a523b5" y="383.848"/>
      </g>
     </g>
     <g id="text_17">
      <!-- $\mathdefault{10^{7}}$ -->
      <g transform="translate(378.97197 398.446438)scale(0.1 -0.1)">
       <use transform="translate(0 0.684375)" xlink:href="#DejaVuSans-49"/>
       <use transform="translate(63.623047 0.684375)" xlink:href="#DejaVuSans-48"/>
       <use transform="translate(128.203125 38.965625)scale(0.7)" xlink:href="#DejaVuSans-55"/>
      </g>
     </g>
    </g>
    <g id="xtick_34">
     <g id="line2d_74">
      <path clip-path="url(#pa75bd42789)" d="M 539.865909 383.848 
L 539.865909 215.44 
" style="fill:none;stroke:#b0b0b0;stroke-linecap:square;stroke-width:0.8;"/>
     </g>
     <g id="line2d_75">
      <g>
       <use style="stroke:#000000;stroke-width:0.8;" x="539.865909" xlink:href="#m4881a523b5" y="383.848"/>
      </g>
     </g>
     <g id="text_18">
      <!-- $\mathdefault{10^{8}}$ -->
      <g transform="translate(531.065909 398.446438)scale(0.1 -0.1)">
       <use transform="translate(0 0.765625)" xlink:href="#DejaVuSans-49"/>
       <use transform="translate(63.623047 0.765625)" xlink:href="#DejaVuSans-48"/>
       <use transform="translate(128.203125 39.046875)scale(0.7)" xlink:href="#DejaVuSans-56"/>
      </g>
     </g>
    </g>
    <g id="xtick_35">
     <g id="line2d_76">
      <g>
       <use style="stroke:#000000;stroke-width:0.6;" x="68.844665" xlink:href="#mc3c77d6004" y="383.848"/>
      </g>
     </g>
    </g>
    <g id="xtick_36">
     <g id="line2d_77">
      <g>
       <use style="stroke:#000000;stroke-width:0.6;" x="76.624654" xlink:href="#mc3c77d6004" y="383.848"/>
      </g>
     </g>
    </g>
    <g id="xtick_37">
     <g id="line2d_78">
      <g>
       <use style="stroke:#000000;stroke-width:0.6;" x="129.368929" xlink:href="#mc3c77d6004" y="383.848"/>
      </g>
     </g>
    </g>
    <g id="xtick_38">
     <g id="line2d_79">
      <g>
       <use style="stroke:#000000;stroke-width:0.6;" x="156.151342" xlink:href="#mc3c77d6004" y="383.848"/>
      </g>
     </g>
    </g>
    <g id="xtick_39">
     <g id="line2d_80">
      <g>
       <use style="stroke:#000000;stroke-width:0.6;" x="175.153767" xlink:href="#mc3c77d6004" y="383.848"/>
      </g>
     </g>
    </g>
    <g id="xtick_40">
     <g id="line2d_81">
      <g>
       <use style="stroke:#000000;stroke-width:0.6;" x="189.893192" xlink:href="#mc3c77d6004" y="383.848"/>
      </g>
     </g>
    </g>
    <g id="xtick_41">
     <g id="line2d_82">
      <g>
       <use style="stroke:#000000;stroke-width:0.6;" x="201.93618" xlink:href="#mc3c77d6004" y="383.848"/>
      </g>
     </g>
    </g>
    <g id="xtick_42">
     <g id="line2d_83">
      <g>
       <use style="stroke:#000000;stroke-width:0.6;" x="212.118381" xlink:href="#mc3c77d6004" y="383.848"/>
      </g>
     </g>
    </g>
    <g id="xtick_43">
     <g id="line2d_84">
      <g>
       <use style="stroke:#000000;stroke-width:0.6;" x="220.938605" xlink:href="#mc3c77d6004" y="383.848"/>
      </g>
     </g>
    </g>
    <g id="xtick_44">
     <g id="line2d_85">
      <g>
       <use style="stroke:#000000;stroke-width:0.6;" x="228.718593" xlink:href="#mc3c77d6004" y="383.848"/>
      </g>
     </g>
    </g>
    <g id="xtick_45">
     <g id="line2d_86">
      <g>
       <use style="stroke:#000000;stroke-width:0.6;" x="281.462868" xlink:href="#mc3c77d6004" y="383.848"/>
      </g>
     </g>
    </g>
    <g id="xtick_46">
     <g id="line2d_87">
      <g>
       <use style="stroke:#000000;stroke-width:0.6;" x="308.245282" xlink:href="#mc3c77d6004" y="383.848"/>
      </g>
     </g>
    </g>
    <g id="xtick_47">
     <g id="line2d_88">
      <g>
       <use style="stroke:#000000;stroke-width:0.6;" x="327.247706" xlink:href="#mc3c77d6004" y="383.848"/>
      </g>
     </g>
    </g>
    <g id="xtick_48">
     <g id="line2d_89">
      <g>
       <use style="stroke:#000000;stroke-width:0.6;" x="341.987132" xlink:href="#mc3c77d6004" y="383.848"/>
      </g>
     </g>
    </g>
    <g id="xtick_49">
     <g id="line2d_90">
      <g>
       <use style="stroke:#000000;stroke-width:0.6;" x="354.030119" xlink:href="#mc3c77d6004" y="383.848"/>
      </g>
     </g>
    </g>
    <g id="xtick_50">
     <g id="line2d_91">
      <g>
       <use style="stroke:#000000;stroke-width:0.6;" x="364.21232" xlink:href="#mc3c77d6004" y="383.848"/>
      </g>
     </g>
    </g>
    <g id="xtick_51">
     <g id="line2d_92">
      <g>
       <use style="stroke:#000000;stroke-width:0.6;" x="373.032544" xlink:href="#mc3c77d6004" y="383.848"/>
      </g>
     </g>
    </g>
    <g id="xtick_52">
     <g id="line2d_93">
      <g>
       <use style="stroke:#000000;stroke-width:0.6;" x="380.812533" xlink:href="#mc3c77d6004" y="383.848"/>
      </g>
     </g>
    </g>
    <g id="xtick_53">
     <g id="line2d_94">
      <g>
       <use style="stroke:#000000;stroke-width:0.6;" x="433.556808" xlink:href="#mc3c77d6004" y="383.848"/>
      </g>
     </g>
    </g>
    <g id="xtick_54">
     <g id="line2d_95">
      <g>
       <use style="stroke:#000000;stroke-width:0.6;" x="460.339221" xlink:href="#mc3c77d6004" y="383.848"/>
      </g>
     </g>
    </g>
    <g id="xtick_55">
     <g id="line2d_96">
      <g>
       <use style="stroke:#000000;stroke-width:0.6;" x="479.341646" xlink:href="#mc3c77d6004" y="383.848"/>
      </g>
     </g>
    </g>
    <g id="xtick_56">
     <g id="line2d_97">
      <g>
       <use style="stroke:#000000;stroke-width:0.6;" x="494.081071" xlink:href="#mc3c77d6004" y="383.848"/>
      </g>
     </g>
    </g>
    <g id="xtick_57">
     <g id="line2d_98">
      <g>
       <use style="stroke:#000000;stroke-width:0.6;" x="506.124059" xlink:href="#mc3c77d6004" y="383.848"/>
      </g>
     </g>
    </g>
    <g id="xtick_58">
     <g id="line2d_99">
      <g>
       <use style="stroke:#000000;stroke-width:0.6;" x="516.30626" xlink:href="#mc3c77d6004" y="383.848"/>
      </g>
     </g>
    </g>
    <g id="xtick_59">
     <g id="line2d_100">
      <g>
       <use style="stroke:#000000;stroke-width:0.6;" x="525.126483" xlink:href="#mc3c77d6004" y="383.848"/>
      </g>
     </g>
    </g>
    <g id="xtick_60">
     <g id="line2d_101">
      <g>
       <use style="stroke:#000000;stroke-width:0.6;" x="532.906472" xlink:href="#mc3c77d6004" y="383.848"/>
      </g>
     </g>
    </g>
    <g id="text_19">
     <!-- $\bf{Frequency}$ (Hz) -->
     <defs>
      <path d="M 9.1875 72.90625 
L 59.90625 72.90625 
L 59.90625 58.6875 
L 27.984375 58.6875 
L 27.984375 45.125 
L 58.015625 45.125 
L 58.015625 30.90625 
L 27.984375 30.90625 
L 27.984375 0 
L 9.1875 0 
z
" id="DejaVuSans-Bold-70"/>
      <path d="M 34.078125 43.3125 
Q 28.515625 43.3125 25.5625 39.203125 
Q 22.609375 35.109375 22.609375 27.296875 
Q 22.609375 19.484375 25.5625 15.375 
Q 28.515625 11.28125 34.078125 11.28125 
Q 39.703125 11.28125 42.65625 15.375 
Q 45.609375 19.484375 45.609375 27.296875 
Q 45.609375 35.109375 42.65625 39.203125 
Q 39.703125 43.3125 34.078125 43.3125 
z
M 45.609375 7.90625 
Q 42 3.078125 37.640625 0.828125 
Q 33.296875 -1.421875 27.59375 -1.421875 
Q 17.484375 -1.421875 10.984375 6.609375 
Q 4.5 14.65625 4.5 27.296875 
Q 4.5 39.9375 10.984375 47.921875 
Q 17.484375 55.90625 27.59375 55.90625 
Q 33.296875 55.90625 37.640625 53.65625 
Q 42 51.421875 45.609375 46.578125 
L 45.609375 54.6875 
L 63.1875 54.6875 
L 63.1875 -20.796875 
L 45.609375 -20.796875 
z
" id="DejaVuSans-Bold-113"/>
      <path d="M 52.59375 52.984375 
L 52.59375 38.71875 
Q 49.03125 41.15625 45.4375 42.328125 
Q 41.84375 43.5 37.984375 43.5 
Q 30.671875 43.5 26.59375 39.234375 
Q 22.515625 34.96875 22.515625 27.296875 
Q 22.515625 19.625 26.59375 15.34375 
Q 30.671875 11.078125 37.984375 11.078125 
Q 42.09375 11.078125 45.78125 12.296875 
Q 49.46875 13.53125 52.59375 15.921875 
L 52.59375 1.609375 
Q 48.484375 0.09375 44.265625 -0.65625 
Q 40.046875 -1.421875 35.796875 -1.421875 
Q 21 -1.421875 12.640625 6.171875 
Q 4.296875 13.765625 4.296875 27.296875 
Q 4.296875 40.828125 12.640625 48.40625 
Q 21 56 35.796875 56 
Q 40.09375 56 44.265625 55.25 
Q 48.4375 54.5 52.59375 52.984375 
z
" id="DejaVuSans-Bold-99"/>
      <path d="M 1.21875 54.6875 
L 18.703125 54.6875 
L 33.40625 17.578125 
L 45.90625 54.6875 
L 63.375 54.6875 
L 40.375 -5.171875 
Q 36.921875 -14.3125 32.296875 -17.9375 
Q 27.6875 -21.578125 20.125 -21.578125 
L 10.015625 -21.578125 
L 10.015625 -10.109375 
L 15.484375 -10.109375 
Q 19.921875 -10.109375 21.9375 -8.6875 
Q 23.96875 -7.28125 25.09375 -3.609375 
L 25.59375 -2.09375 
z
" id="DejaVuSans-Bold-121"/>
      <path d="M 9.8125 72.90625 
L 19.671875 72.90625 
L 19.671875 43.015625 
L 55.515625 43.015625 
L 55.515625 72.90625 
L 65.375 72.90625 
L 65.375 0 
L 55.515625 0 
L 55.515625 34.71875 
L 19.671875 34.71875 
L 19.671875 0 
L 9.8125 0 
z
" id="DejaVuSans-72"/>
      <path d="M 5.515625 54.6875 
L 48.1875 54.6875 
L 48.1875 46.484375 
L 14.40625 7.171875 
L 48.1875 7.171875 
L 48.1875 0 
L 4.296875 0 
L 4.296875 8.203125 
L 38.09375 47.515625 
L 5.515625 47.515625 
z
" id="DejaVuSans-122"/>
     </defs>
     <g transform="translate(270.225 412.126125)scale(0.1 -0.1)">
      <use transform="translate(0 0.125)" xlink:href="#DejaVuSans-Bold-70"/>
      <use transform="translate(68.310547 0.125)" xlink:href="#DejaVuSans-Bold-114"/>
      <use transform="translate(117.626953 0.125)" xlink:href="#DejaVuSans-Bold-101"/>
      <use transform="translate(185.449219 0.125)" xlink:href="#DejaVuSans-Bold-113"/>
      <use transform="translate(257.03125 0.125)" xlink:href="#DejaVuSans-Bold-117"/>
      <use transform="translate(328.222656 0.125)" xlink:href="#DejaVuSans-Bold-101"/>
      <use transform="translate(396.044922 0.125)" xlink:href="#DejaVuSans-Bold-110"/>
      <use transform="translate(467.236328 0.125)" xlink:href="#DejaVuSans-Bold-99"/>
      <use transform="translate(526.513672 0.125)" xlink:href="#DejaVuSans-Bold-121"/>
      <use transform="translate(591.699219 0.125)" xlink:href="#DejaVuSans-32"/>
      <use transform="translate(623.486328 0.125)" xlink:href="#DejaVuSans-40"/>
      <use transform="translate(662.5 0.125)" xlink:href="#DejaVuSans-72"/>
      <use transform="translate(737.695312 0.125)" xlink:href="#DejaVuSans-122"/>
      <use transform="translate(790.185547 0.125)" xlink:href="#DejaVuSans-41"/>
     </g>
    </g>
   </g>
   <g id="matplotlib.axis_4">
    <g id="ytick_21">
     <g id="line2d_102">
      <path clip-path="url(#pa75bd42789)" d="M 60.77 377.139701 
L 562.68 377.139701 
" style="fill:none;stroke:#b0b0b0;stroke-linecap:square;stroke-width:0.8;"/>
     </g>
     <g id="line2d_103">
      <g>
       <use style="stroke:#000000;stroke-width:0.8;" x="60.77" xlink:href="#m81352b6b56" y="377.139701"/>
      </g>
     </g>
     <g id="text_20">
      <!-- −180 -->
      <g transform="translate(26.302813 380.93892)scale(0.1 -0.1)">
       <use xlink:href="#DejaVuSans-8722"/>
       <use x="83.789062" xlink:href="#DejaVuSans-49"/>
       <use x="147.412109" xlink:href="#DejaVuSans-56"/>
       <use x="211.035156" xlink:href="#DejaVuSans-48"/>
      </g>
     </g>
    </g>
    <g id="ytick_22">
     <g id="line2d_104">
      <path clip-path="url(#pa75bd42789)" d="M 60.77 364.159154 
L 562.68 364.159154 
" style="fill:none;stroke:#b0b0b0;stroke-linecap:square;stroke-width:0.8;"/>
     </g>
     <g id="line2d_105">
      <g>
       <use style="stroke:#000000;stroke-width:0.8;" x="60.77" xlink:href="#m81352b6b56" y="364.159154"/>
      </g>
     </g>
     <g id="text_21">
      <!-- −150 -->
      <g transform="translate(26.302813 367.958373)scale(0.1 -0.1)">
       <use xlink:href="#DejaVuSans-8722"/>
       <use x="83.789062" xlink:href="#DejaVuSans-49"/>
       <use x="147.412109" xlink:href="#DejaVuSans-53"/>
       <use x="211.035156" xlink:href="#DejaVuSans-48"/>
      </g>
     </g>
    </g>
    <g id="ytick_23">
     <g id="line2d_106">
      <path clip-path="url(#pa75bd42789)" d="M 60.77 351.178607 
L 562.68 351.178607 
" style="fill:none;stroke:#b0b0b0;stroke-linecap:square;stroke-width:0.8;"/>
     </g>
     <g id="line2d_107">
      <g>
       <use style="stroke:#000000;stroke-width:0.8;" x="60.77" xlink:href="#m81352b6b56" y="351.178607"/>
      </g>
     </g>
     <g id="text_22">
      <!-- −120 -->
      <g transform="translate(26.302813 354.977826)scale(0.1 -0.1)">
       <use xlink:href="#DejaVuSans-8722"/>
       <use x="83.789062" xlink:href="#DejaVuSans-49"/>
       <use x="147.412109" xlink:href="#DejaVuSans-50"/>
       <use x="211.035156" xlink:href="#DejaVuSans-48"/>
      </g>
     </g>
    </g>
    <g id="ytick_24">
     <g id="line2d_108">
      <path clip-path="url(#pa75bd42789)" d="M 60.77 338.19806 
L 562.68 338.19806 
" style="fill:none;stroke:#b0b0b0;stroke-linecap:square;stroke-width:0.8;"/>
     </g>
     <g id="line2d_109">
      <g>
       <use style="stroke:#000000;stroke-width:0.8;" x="60.77" xlink:href="#m81352b6b56" y="338.19806"/>
      </g>
     </g>
     <g id="text_23">
      <!-- −90 -->
      <defs>
       <path d="M 10.984375 1.515625 
L 10.984375 10.5 
Q 14.703125 8.734375 18.5 7.8125 
Q 22.3125 6.890625 25.984375 6.890625 
Q 35.75 6.890625 40.890625 13.453125 
Q 46.046875 20.015625 46.78125 33.40625 
Q 43.953125 29.203125 39.59375 26.953125 
Q 35.25 24.703125 29.984375 24.703125 
Q 19.046875 24.703125 12.671875 31.3125 
Q 6.296875 37.9375 6.296875 49.421875 
Q 6.296875 60.640625 12.9375 67.421875 
Q 19.578125 74.21875 30.609375 74.21875 
Q 43.265625 74.21875 49.921875 64.515625 
Q 56.59375 54.828125 56.59375 36.375 
Q 56.59375 19.140625 48.40625 8.859375 
Q 40.234375 -1.421875 26.421875 -1.421875 
Q 22.703125 -1.421875 18.890625 -0.6875 
Q 15.09375 0.046875 10.984375 1.515625 
z
M 30.609375 32.421875 
Q 37.25 32.421875 41.125 36.953125 
Q 45.015625 41.5 45.015625 49.421875 
Q 45.015625 57.28125 41.125 61.84375 
Q 37.25 66.40625 30.609375 66.40625 
Q 23.96875 66.40625 20.09375 61.84375 
Q 16.21875 57.28125 16.21875 49.421875 
Q 16.21875 41.5 20.09375 36.953125 
Q 23.96875 32.421875 30.609375 32.421875 
z
" id="DejaVuSans-57"/>
      </defs>
      <g transform="translate(32.665313 341.997279)scale(0.1 -0.1)">
       <use xlink:href="#DejaVuSans-8722"/>
       <use x="83.789062" xlink:href="#DejaVuSans-57"/>
       <use x="147.412109" xlink:href="#DejaVuSans-48"/>
      </g>
     </g>
    </g>
    <g id="ytick_25">
     <g id="line2d_110">
      <path clip-path="url(#pa75bd42789)" d="M 60.77 325.217513 
L 562.68 325.217513 
" style="fill:none;stroke:#b0b0b0;stroke-linecap:square;stroke-width:0.8;"/>
     </g>
     <g id="line2d_111">
      <g>
       <use style="stroke:#000000;stroke-width:0.8;" x="60.77" xlink:href="#m81352b6b56" y="325.217513"/>
      </g>
     </g>
     <g id="text_24">
      <!-- −60 -->
      <g transform="translate(32.665313 329.016732)scale(0.1 -0.1)">
       <use xlink:href="#DejaVuSans-8722"/>
       <use x="83.789062" xlink:href="#DejaVuSans-54"/>
       <use x="147.412109" xlink:href="#DejaVuSans-48"/>
      </g>
     </g>
    </g>
    <g id="ytick_26">
     <g id="line2d_112">
      <path clip-path="url(#pa75bd42789)" d="M 60.77 312.236966 
L 562.68 312.236966 
" style="fill:none;stroke:#b0b0b0;stroke-linecap:square;stroke-width:0.8;"/>
     </g>
     <g id="line2d_113">
      <g>
       <use style="stroke:#000000;stroke-width:0.8;" x="60.77" xlink:href="#m81352b6b56" y="312.236966"/>
      </g>
     </g>
     <g id="text_25">
      <!-- −30 -->
      <defs>
       <path d="M 40.578125 39.3125 
Q 47.65625 37.796875 51.625 33 
Q 55.609375 28.21875 55.609375 21.1875 
Q 55.609375 10.40625 48.1875 4.484375 
Q 40.765625 -1.421875 27.09375 -1.421875 
Q 22.515625 -1.421875 17.65625 -0.515625 
Q 12.796875 0.390625 7.625 2.203125 
L 7.625 11.71875 
Q 11.71875 9.328125 16.59375 8.109375 
Q 21.484375 6.890625 26.8125 6.890625 
Q 36.078125 6.890625 40.9375 10.546875 
Q 45.796875 14.203125 45.796875 21.1875 
Q 45.796875 27.640625 41.28125 31.265625 
Q 36.765625 34.90625 28.71875 34.90625 
L 20.21875 34.90625 
L 20.21875 43.015625 
L 29.109375 43.015625 
Q 36.375 43.015625 40.234375 45.921875 
Q 44.09375 48.828125 44.09375 54.296875 
Q 44.09375 59.90625 40.109375 62.90625 
Q 36.140625 65.921875 28.71875 65.921875 
Q 24.65625 65.921875 20.015625 65.03125 
Q 15.375 64.15625 9.8125 62.3125 
L 9.8125 71.09375 
Q 15.4375 72.65625 20.34375 73.4375 
Q 25.25 74.21875 29.59375 74.21875 
Q 40.828125 74.21875 47.359375 69.109375 
Q 53.90625 64.015625 53.90625 55.328125 
Q 53.90625 49.265625 50.4375 45.09375 
Q 46.96875 40.921875 40.578125 39.3125 
z
" id="DejaVuSans-51"/>
      </defs>
      <g transform="translate(32.665313 316.036184)scale(0.1 -0.1)">
       <use xlink:href="#DejaVuSans-8722"/>
       <use x="83.789062" xlink:href="#DejaVuSans-51"/>
       <use x="147.412109" xlink:href="#DejaVuSans-48"/>
      </g>
     </g>
    </g>
    <g id="ytick_27">
     <g id="line2d_114">
      <path clip-path="url(#pa75bd42789)" d="M 60.77 299.256419 
L 562.68 299.256419 
" style="fill:none;stroke:#b0b0b0;stroke-linecap:square;stroke-width:0.8;"/>
     </g>
     <g id="line2d_115">
      <g>
       <use style="stroke:#000000;stroke-width:0.8;" x="60.77" xlink:href="#m81352b6b56" y="299.256419"/>
      </g>
     </g>
     <g id="text_26">
      <!-- 0 -->
      <g transform="translate(47.4075 303.055637)scale(0.1 -0.1)">
       <use xlink:href="#DejaVuSans-48"/>
      </g>
     </g>
    </g>
    <g id="ytick_28">
     <g id="line2d_116">
      <path clip-path="url(#pa75bd42789)" d="M 60.77 286.275871 
L 562.68 286.275871 
" style="fill:none;stroke:#b0b0b0;stroke-linecap:square;stroke-width:0.8;"/>
     </g>
     <g id="line2d_117">
      <g>
       <use style="stroke:#000000;stroke-width:0.8;" x="60.77" xlink:href="#m81352b6b56" y="286.275871"/>
      </g>
     </g>
     <g id="text_27">
      <!-- 30 -->
      <g transform="translate(41.045 290.07509)scale(0.1 -0.1)">
       <use xlink:href="#DejaVuSans-51"/>
       <use x="63.623047" xlink:href="#DejaVuSans-48"/>
      </g>
     </g>
    </g>
    <g id="ytick_29">
     <g id="line2d_118">
      <path clip-path="url(#pa75bd42789)" d="M 60.77 273.295324 
L 562.68 273.295324 
" style="fill:none;stroke:#b0b0b0;stroke-linecap:square;stroke-width:0.8;"/>
     </g>
     <g id="line2d_119">
      <g>
       <use style="stroke:#000000;stroke-width:0.8;" x="60.77" xlink:href="#m81352b6b56" y="273.295324"/>
      </g>
     </g>
     <g id="text_28">
      <!-- 60 -->
      <g transform="translate(41.045 277.094543)scale(0.1 -0.1)">
       <use xlink:href="#DejaVuSans-54"/>
       <use x="63.623047" xlink:href="#DejaVuSans-48"/>
      </g>
     </g>
    </g>
    <g id="ytick_30">
     <g id="line2d_120">
      <path clip-path="url(#pa75bd42789)" d="M 60.77 260.314777 
L 562.68 260.314777 
" style="fill:none;stroke:#b0b0b0;stroke-linecap:square;stroke-width:0.8;"/>
     </g>
     <g id="line2d_121">
      <g>
       <use style="stroke:#000000;stroke-width:0.8;" x="60.77" xlink:href="#m81352b6b56" y="260.314777"/>
      </g>
     </g>
     <g id="text_29">
      <!-- 90 -->
      <g transform="translate(41.045 264.113996)scale(0.1 -0.1)">
       <use xlink:href="#DejaVuSans-57"/>
       <use x="63.623047" xlink:href="#DejaVuSans-48"/>
      </g>
     </g>
    </g>
    <g id="ytick_31">
     <g id="line2d_122">
      <path clip-path="url(#pa75bd42789)" d="M 60.77 247.33423 
L 562.68 247.33423 
" style="fill:none;stroke:#b0b0b0;stroke-linecap:square;stroke-width:0.8;"/>
     </g>
     <g id="line2d_123">
      <g>
       <use style="stroke:#000000;stroke-width:0.8;" x="60.77" xlink:href="#m81352b6b56" y="247.33423"/>
      </g>
     </g>
     <g id="text_30">
      <!-- 120 -->
      <g transform="translate(34.6825 251.133449)scale(0.1 -0.1)">
       <use xlink:href="#DejaVuSans-49"/>
       <use x="63.623047" xlink:href="#DejaVuSans-50"/>
       <use x="127.246094" xlink:href="#DejaVuSans-48"/>
      </g>
     </g>
    </g>
    <g id="ytick_32">
     <g id="line2d_124">
      <path clip-path="url(#pa75bd42789)" d="M 60.77 234.353683 
L 562.68 234.353683 
" style="fill:none;stroke:#b0b0b0;stroke-linecap:square;stroke-width:0.8;"/>
     </g>
     <g id="line2d_125">
      <g>
       <use style="stroke:#000000;stroke-width:0.8;" x="60.77" xlink:href="#m81352b6b56" y="234.353683"/>
      </g>
     </g>
     <g id="text_31">
      <!-- 150 -->
      <g transform="translate(34.6825 238.152902)scale(0.1 -0.1)">
       <use xlink:href="#DejaVuSans-49"/>
       <use x="63.623047" xlink:href="#DejaVuSans-53"/>
       <use x="127.246094" xlink:href="#DejaVuSans-48"/>
      </g>
     </g>
    </g>
    <g id="ytick_33">
     <g id="line2d_126">
      <path clip-path="url(#pa75bd42789)" d="M 60.77 221.373136 
L 562.68 221.373136 
" style="fill:none;stroke:#b0b0b0;stroke-linecap:square;stroke-width:0.8;"/>
     </g>
     <g id="line2d_127">
      <g>
       <use style="stroke:#000000;stroke-width:0.8;" x="60.77" xlink:href="#m81352b6b56" y="221.373136"/>
      </g>
     </g>
     <g id="text_32">
      <!-- 180 -->
      <g transform="translate(34.6825 225.172355)scale(0.1 -0.1)">
       <use xlink:href="#DejaVuSans-49"/>
       <use x="63.623047" xlink:href="#DejaVuSans-56"/>
       <use x="127.246094" xlink:href="#DejaVuSans-48"/>
      </g>
     </g>
    </g>
    <g id="ytick_34">
     <g id="line2d_128">
      <g>
       <use style="stroke:#000000;stroke-width:0.6;" x="60.77" xlink:href="#m2fb893c5d2" y="383.629975"/>
      </g>
     </g>
    </g>
    <g id="ytick_35">
     <g id="line2d_129">
      <g>
       <use style="stroke:#000000;stroke-width:0.6;" x="60.77" xlink:href="#m2fb893c5d2" y="377.139701"/>
      </g>
     </g>
    </g>
    <g id="ytick_36">
     <g id="line2d_130">
      <g>
       <use style="stroke:#000000;stroke-width:0.6;" x="60.77" xlink:href="#m2fb893c5d2" y="370.649428"/>
      </g>
     </g>
    </g>
    <g id="ytick_37">
     <g id="line2d_131">
      <g>
       <use style="stroke:#000000;stroke-width:0.6;" x="60.77" xlink:href="#m2fb893c5d2" y="364.159154"/>
      </g>
     </g>
    </g>
    <g id="ytick_38">
     <g id="line2d_132">
      <g>
       <use style="stroke:#000000;stroke-width:0.6;" x="60.77" xlink:href="#m2fb893c5d2" y="357.668881"/>
      </g>
     </g>
    </g>
    <g id="ytick_39">
     <g id="line2d_133">
      <g>
       <use style="stroke:#000000;stroke-width:0.6;" x="60.77" xlink:href="#m2fb893c5d2" y="351.178607"/>
      </g>
     </g>
    </g>
    <g id="ytick_40">
     <g id="line2d_134">
      <g>
       <use style="stroke:#000000;stroke-width:0.6;" x="60.77" xlink:href="#m2fb893c5d2" y="344.688333"/>
      </g>
     </g>
    </g>
    <g id="ytick_41">
     <g id="line2d_135">
      <g>
       <use style="stroke:#000000;stroke-width:0.6;" x="60.77" xlink:href="#m2fb893c5d2" y="338.19806"/>
      </g>
     </g>
    </g>
    <g id="ytick_42">
     <g id="line2d_136">
      <g>
       <use style="stroke:#000000;stroke-width:0.6;" x="60.77" xlink:href="#m2fb893c5d2" y="331.707786"/>
      </g>
     </g>
    </g>
    <g id="ytick_43">
     <g id="line2d_137">
      <g>
       <use style="stroke:#000000;stroke-width:0.6;" x="60.77" xlink:href="#m2fb893c5d2" y="325.217513"/>
      </g>
     </g>
    </g>
    <g id="ytick_44">
     <g id="line2d_138">
      <g>
       <use style="stroke:#000000;stroke-width:0.6;" x="60.77" xlink:href="#m2fb893c5d2" y="318.727239"/>
      </g>
     </g>
    </g>
    <g id="ytick_45">
     <g id="line2d_139">
      <g>
       <use style="stroke:#000000;stroke-width:0.6;" x="60.77" xlink:href="#m2fb893c5d2" y="312.236966"/>
      </g>
     </g>
    </g>
    <g id="ytick_46">
     <g id="line2d_140">
      <g>
       <use style="stroke:#000000;stroke-width:0.6;" x="60.77" xlink:href="#m2fb893c5d2" y="305.746692"/>
      </g>
     </g>
    </g>
    <g id="ytick_47">
     <g id="line2d_141">
      <g>
       <use style="stroke:#000000;stroke-width:0.6;" x="60.77" xlink:href="#m2fb893c5d2" y="299.256419"/>
      </g>
     </g>
    </g>
    <g id="ytick_48">
     <g id="line2d_142">
      <g>
       <use style="stroke:#000000;stroke-width:0.6;" x="60.77" xlink:href="#m2fb893c5d2" y="292.766145"/>
      </g>
     </g>
    </g>
    <g id="ytick_49">
     <g id="line2d_143">
      <g>
       <use style="stroke:#000000;stroke-width:0.6;" x="60.77" xlink:href="#m2fb893c5d2" y="286.275871"/>
      </g>
     </g>
    </g>
    <g id="ytick_50">
     <g id="line2d_144">
      <g>
       <use style="stroke:#000000;stroke-width:0.6;" x="60.77" xlink:href="#m2fb893c5d2" y="279.785598"/>
      </g>
     </g>
    </g>
    <g id="ytick_51">
     <g id="line2d_145">
      <g>
       <use style="stroke:#000000;stroke-width:0.6;" x="60.77" xlink:href="#m2fb893c5d2" y="273.295324"/>
      </g>
     </g>
    </g>
    <g id="ytick_52">
     <g id="line2d_146">
      <g>
       <use style="stroke:#000000;stroke-width:0.6;" x="60.77" xlink:href="#m2fb893c5d2" y="266.805051"/>
      </g>
     </g>
    </g>
    <g id="ytick_53">
     <g id="line2d_147">
      <g>
       <use style="stroke:#000000;stroke-width:0.6;" x="60.77" xlink:href="#m2fb893c5d2" y="260.314777"/>
      </g>
     </g>
    </g>
    <g id="ytick_54">
     <g id="line2d_148">
      <g>
       <use style="stroke:#000000;stroke-width:0.6;" x="60.77" xlink:href="#m2fb893c5d2" y="253.824504"/>
      </g>
     </g>
    </g>
    <g id="ytick_55">
     <g id="line2d_149">
      <g>
       <use style="stroke:#000000;stroke-width:0.6;" x="60.77" xlink:href="#m2fb893c5d2" y="247.33423"/>
      </g>
     </g>
    </g>
    <g id="ytick_56">
     <g id="line2d_150">
      <g>
       <use style="stroke:#000000;stroke-width:0.6;" x="60.77" xlink:href="#m2fb893c5d2" y="240.843956"/>
      </g>
     </g>
    </g>
    <g id="ytick_57">
     <g id="line2d_151">
      <g>
       <use style="stroke:#000000;stroke-width:0.6;" x="60.77" xlink:href="#m2fb893c5d2" y="234.353683"/>
      </g>
     </g>
    </g>
    <g id="ytick_58">
     <g id="line2d_152">
      <g>
       <use style="stroke:#000000;stroke-width:0.6;" x="60.77" xlink:href="#m2fb893c5d2" y="227.863409"/>
      </g>
     </g>
    </g>
    <g id="ytick_59">
     <g id="line2d_153">
      <g>
       <use style="stroke:#000000;stroke-width:0.6;" x="60.77" xlink:href="#m2fb893c5d2" y="221.373136"/>
      </g>
     </g>
    </g>
    <g id="text_33">
     <!-- $\bf{Phase}$ ($\degree$) -->
     <defs>
      <path d="M 9.1875 72.90625 
L 40.375 72.90625 
Q 54.296875 72.90625 61.734375 66.71875 
Q 69.1875 60.546875 69.1875 49.125 
Q 69.1875 37.640625 61.734375 31.46875 
Q 54.296875 25.296875 40.375 25.296875 
L 27.984375 25.296875 
L 27.984375 0 
L 9.1875 0 
z
M 27.984375 59.28125 
L 27.984375 38.921875 
L 38.375 38.921875 
Q 43.84375 38.921875 46.828125 41.578125 
Q 49.8125 44.234375 49.8125 49.125 
Q 49.8125 54 46.828125 56.640625 
Q 43.84375 59.28125 38.375 59.28125 
z
" id="DejaVuSans-Bold-80"/>
      <path d="M 63.375 33.296875 
L 63.375 0 
L 45.796875 0 
L 45.796875 5.421875 
L 45.796875 25.390625 
Q 45.796875 32.5625 45.484375 35.25 
Q 45.171875 37.9375 44.390625 39.203125 
Q 43.359375 40.921875 41.59375 41.875 
Q 39.84375 42.828125 37.59375 42.828125 
Q 32.125 42.828125 29 38.59375 
Q 25.875 34.375 25.875 26.90625 
L 25.875 0 
L 8.40625 0 
L 8.40625 75.984375 
L 25.875 75.984375 
L 25.875 46.6875 
Q 29.828125 51.46875 34.265625 53.734375 
Q 38.71875 56 44.09375 56 
Q 53.5625 56 58.46875 50.1875 
Q 63.375 44.390625 63.375 33.296875 
z
" id="DejaVuSans-Bold-104"/>
      <path d="M 51.125 52.984375 
L 51.125 39.703125 
Q 45.515625 42.046875 40.28125 43.21875 
Q 35.0625 44.390625 30.421875 44.390625 
Q 25.4375 44.390625 23.015625 43.140625 
Q 20.609375 41.890625 20.609375 39.3125 
Q 20.609375 37.203125 22.4375 36.078125 
Q 24.265625 34.96875 29 34.421875 
L 32.078125 33.984375 
Q 45.515625 32.28125 50.140625 28.375 
Q 54.78125 24.46875 54.78125 16.109375 
Q 54.78125 7.375 48.328125 2.96875 
Q 41.890625 -1.421875 29.109375 -1.421875 
Q 23.6875 -1.421875 17.890625 -0.5625 
Q 12.109375 0.296875 6 2 
L 6 15.28125 
Q 11.234375 12.75 16.71875 11.46875 
Q 22.21875 10.203125 27.875 10.203125 
Q 33.015625 10.203125 35.59375 11.609375 
Q 38.1875 13.03125 38.1875 15.828125 
Q 38.1875 18.171875 36.40625 19.3125 
Q 34.625 20.453125 29.296875 21.09375 
L 26.21875 21.484375 
Q 14.546875 22.953125 9.859375 26.90625 
Q 5.171875 30.859375 5.171875 38.921875 
Q 5.171875 47.609375 11.125 51.796875 
Q 17.09375 56 29.390625 56 
Q 34.234375 56 39.546875 55.265625 
Q 44.875 54.546875 51.125 52.984375 
z
" id="DejaVuSans-Bold-115"/>
      <path d="M 25 67.921875 
Q 21.09375 67.921875 18.40625 65.203125 
Q 15.71875 62.5 15.71875 58.59375 
Q 15.71875 54.734375 18.40625 52.078125 
Q 21.09375 49.421875 25 49.421875 
Q 28.90625 49.421875 31.59375 52.078125 
Q 34.28125 54.734375 34.28125 58.59375 
Q 34.28125 62.453125 31.5625 65.1875 
Q 28.859375 67.921875 25 67.921875 
z
M 25 74.21875 
Q 28.125 74.21875 31 73.015625 
Q 33.890625 71.828125 35.984375 69.578125 
Q 38.234375 67.390625 39.359375 64.59375 
Q 40.484375 61.8125 40.484375 58.59375 
Q 40.484375 52.15625 35.96875 47.6875 
Q 31.453125 43.21875 24.90625 43.21875 
Q 18.3125 43.21875 13.90625 47.609375 
Q 9.515625 52 9.515625 58.59375 
Q 9.515625 65.140625 14 69.671875 
Q 18.5 74.21875 25 74.21875 
z
" id="DejaVuSans-176"/>
     </defs>
     <g transform="translate(20.223125 324.644)rotate(-90)scale(0.1 -0.1)">
      <use transform="translate(0 0.015625)" xlink:href="#DejaVuSans-Bold-80"/>
      <use transform="translate(73.291016 0.015625)" xlink:href="#DejaVuSans-Bold-104"/>
      <use transform="translate(144.482422 0.015625)" xlink:href="#DejaVuSans-Bold-97"/>
      <use transform="translate(211.962891 0.015625)" xlink:href="#DejaVuSans-Bold-115"/>
      <use transform="translate(271.484375 0.015625)" xlink:href="#DejaVuSans-Bold-101"/>
      <use transform="translate(339.306641 0.015625)" xlink:href="#DejaVuSans-32"/>
      <use transform="translate(371.09375 0.015625)" xlink:href="#DejaVuSans-40"/>
      <use transform="translate(410.107422 0.015625)" xlink:href="#DejaVuSans-176"/>
      <use transform="translate(460.107422 0.015625)" xlink:href="#DejaVuSans-41"/>
     </g>
    </g>
   </g>
   <g id="line2d_154">
    <path clip-path="url(#pa75bd42789)" d="M 83.584091 299.256419 
L 419.863791 299.364381 
L 430.814555 299.568215 
L 434.921091 299.816374 
L 437.2025 300.125346 
L 438.571345 300.479805 
L 439.483909 300.885691 
L 440.396473 301.611944 
L 440.852755 302.239447 
L 441.309036 303.264336 
L 441.765318 305.223089 
L 442.2216 310.284968 
L 442.677882 333.309612 
L 443.134164 363.433141 
L 443.590445 369.977894 
L 444.046727 372.278408 
L 444.503009 373.428526 
L 444.959291 374.114445 
L 445.871855 374.89018 
L 446.784418 375.313829 
L 448.153264 375.67491 
L 450.434673 375.97408 
L 454.084927 376.159387 
L 459.104027 376.175472 
L 464.123127 375.975452 
L 467.3171 375.639375 
L 469.142227 375.273287 
L 470.511073 374.815419 
L 471.423636 374.339898 
L 471.879918 374.014857 
L 472.3362 295.717268 
L 472.792482 295.172601 
L 473.248764 294.427093 
L 473.705045 293.349553 
L 474.161327 291.667636 
L 474.617609 288.725463 
L 475.073891 282.617357 
L 475.530173 267.797533 
L 475.986455 246.366216 
L 476.442736 235.471846 
L 476.899018 230.846505 
L 477.3553 228.465969 
L 477.811582 227.043789 
L 478.267864 226.106551 
L 479.180427 224.958193 
L 480.092991 224.29121 
L 481.461836 223.706588 
L 482.830682 223.376126 
L 484.655809 223.150491 
L 486.937218 223.109459 
L 488.762345 223.306232 
L 489.674909 223.549312 
L 490.587473 224.005889 
L 491.043755 224.39386 
L 491.500036 224.997259 
L 491.956318 226.04039 
L 492.4126 228.219381 
L 492.868882 235.069878 
L 493.325164 271.421662 
L 493.781445 290.721876 
L 494.237727 294.64501 
L 494.694009 296.198368 
L 495.150291 297.020115 
L 496.062855 297.864914 
L 496.975418 298.289932 
L 498.344264 298.632008 
L 500.625673 298.903595 
L 504.732209 299.09576 
L 513.401564 299.209768 
L 539.865909 299.253291 
L 539.865909 299.253291 
" style="fill:none;stroke:#1f77b4;stroke-linecap:square;stroke-width:1.5;"/>
   </g>
   <g id="line2d_155">
    <path clip-path="url(#pa75bd42789)" d="M 83.584091 259.011435 
L 109.135873 258.397911 
L 130.581118 257.667478 
L 149.288673 256.810875 
L 165.714818 255.840682 
L 180.772118 254.729824 
L 194.460573 253.502014 
L 207.692745 252.090544 
L 220.468636 250.499875 
L 233.244527 248.678916 
L 246.4767 246.56248 
L 261.534 243.919696 
L 289.367191 238.740892 
L 307.162182 235.561835 
L 320.850636 233.335966 
L 333.626527 231.4817 
L 345.946136 229.913256 
L 358.722027 228.512376 
L 371.9542 227.29018 
L 385.642655 226.252229 
L 399.331109 225.433426 
L 412.107 224.888503 
L 421.232636 224.700003 
L 427.1643 224.771667 
L 430.814555 224.995783 
L 433.552245 225.369859 
L 435.377373 225.826039 
L 436.746218 226.384733 
L 437.658782 226.94433 
L 438.571345 227.769053 
L 439.483909 229.081448 
L 439.940191 230.067163 
L 440.396473 231.436809 
L 440.852755 233.446129 
L 441.309036 236.609851 
L 441.765318 242.024331 
L 442.2216 251.700499 
L 443.134164 277.94783 
L 443.590445 285.023187 
L 444.046727 289.02574 
L 444.503009 291.474383 
L 444.959291 293.09435 
L 445.415573 294.234149 
L 446.328136 295.717492 
L 447.2407 296.630389 
L 448.153264 297.242394 
L 449.522109 297.849412 
L 451.347236 298.346025 
L 453.628645 298.711278 
L 456.822618 298.99012 
L 461.841718 299.182442 
L 470.511073 299.255865 
L 484.199527 299.372986 
L 487.3935 299.625075 
L 488.762345 299.884056 
L 489.674909 300.192886 
L 490.587473 300.760355 
L 491.043755 301.258907 
L 491.500036 302.083527 
L 491.956318 303.688119 
L 492.4126 308.022247 
L 492.868882 333.071195 
L 493.325164 365.664333 
L 493.781445 371.016197 
L 494.237727 372.838542 
L 494.694009 373.74151 
L 495.150291 374.276345 
L 496.062855 374.874407 
L 497.4317 375.302077 
L 499.256827 375.560612 
L 502.4508 375.727151 
L 507.926182 375.752019 
L 518.420664 375.550002 
L 535.759373 374.985452 
L 539.865909 374.824778 
L 539.865909 374.824778 
" style="fill:none;stroke:#ff7f0e;stroke-linecap:square;stroke-width:1.5;"/>
   </g>
   <g id="patch_9">
    <path d="M 60.77 383.848 
L 60.77 215.44 
" style="fill:none;stroke:#000000;stroke-linecap:square;stroke-linejoin:miter;stroke-width:0.8;"/>
   </g>
   <g id="patch_10">
    <path d="M 562.68 383.848 
L 562.68 215.44 
" style="fill:none;stroke:#000000;stroke-linecap:square;stroke-linejoin:miter;stroke-width:0.8;"/>
   </g>
   <g id="patch_11">
    <path d="M 60.77 383.848 
L 562.68 383.848 
" style="fill:none;stroke:#000000;stroke-linecap:square;stroke-linejoin:miter;stroke-width:0.8;"/>
   </g>
   <g id="patch_12">
    <path d="M 60.77 215.44 
L 562.68 215.44 
" style="fill:none;stroke:#000000;stroke-linecap:square;stroke-linejoin:miter;stroke-width:0.8;"/>
   </g>
  </g>
 </g>
 <defs>
  <clipPath id="pdacfb52f68">
   <rect height="168.408" width="501.91" x="60.77" y="13.32"/>
  </clipPath>
  <clipPath id="pa75bd42789">
   <rect height="168.408" width="501.91" x="60.77" y="215.44"/>
  </clipPath>
 </defs>
</svg>
